%TF.GenerationSoftware,KiCad,Pcbnew,(5.1.6-0-10_14)*%
%TF.CreationDate,2020-08-19T15:58:13-07:00*%
%TF.ProjectId,single_ended_differential_converter,73696e67-6c65-45f6-956e-6465645f6469,rev?*%
%TF.SameCoordinates,Original*%
%TF.FileFunction,Soldermask,Top*%
%TF.FilePolarity,Negative*%
%FSLAX46Y46*%
G04 Gerber Fmt 4.6, Leading zero omitted, Abs format (unit mm)*
G04 Created by KiCad (PCBNEW (5.1.6-0-10_14)) date 2020-08-19 15:58:13*
%MOMM*%
%LPD*%
G01*
G04 APERTURE LIST*
%ADD10C,4.100000*%
%ADD11C,2.100000*%
%ADD12C,10.260000*%
%ADD13R,5.180000X1.700000*%
%ADD14C,3.000000*%
%ADD15C,3.500000*%
G04 APERTURE END LIST*
D10*
%TO.C,H4*%
X271780000Y-100330000D03*
%TD*%
%TO.C,H3*%
X265176000Y-160528000D03*
%TD*%
%TO.C,H2*%
X215900000Y-160020000D03*
%TD*%
%TO.C,H1*%
X215900000Y-100330000D03*
%TD*%
%TO.C,C3*%
G36*
G01*
X236244000Y-125348000D02*
X234164000Y-125348000D01*
G75*
G02*
X233904000Y-125088000I0J260000D01*
G01*
X233904000Y-122008000D01*
G75*
G02*
X234164000Y-121748000I260000J0D01*
G01*
X236244000Y-121748000D01*
G75*
G02*
X236504000Y-122008000I0J-260000D01*
G01*
X236504000Y-125088000D01*
G75*
G02*
X236244000Y-125348000I-260000J0D01*
G01*
G37*
G36*
G01*
X236244000Y-131848000D02*
X234164000Y-131848000D01*
G75*
G02*
X233904000Y-131588000I0J260000D01*
G01*
X233904000Y-128508000D01*
G75*
G02*
X234164000Y-128248000I260000J0D01*
G01*
X236244000Y-128248000D01*
G75*
G02*
X236504000Y-128508000I0J-260000D01*
G01*
X236504000Y-131588000D01*
G75*
G02*
X236244000Y-131848000I-260000J0D01*
G01*
G37*
%TD*%
%TO.C,U4*%
G36*
G01*
X245270000Y-131150000D02*
X244920000Y-131150000D01*
G75*
G02*
X244745000Y-130975000I0J175000D01*
G01*
X244745000Y-129275000D01*
G75*
G02*
X244920000Y-129100000I175000J0D01*
G01*
X245270000Y-129100000D01*
G75*
G02*
X245445000Y-129275000I0J-175000D01*
G01*
X245445000Y-130975000D01*
G75*
G02*
X245270000Y-131150000I-175000J0D01*
G01*
G37*
G36*
G01*
X246540000Y-131150000D02*
X246190000Y-131150000D01*
G75*
G02*
X246015000Y-130975000I0J175000D01*
G01*
X246015000Y-129275000D01*
G75*
G02*
X246190000Y-129100000I175000J0D01*
G01*
X246540000Y-129100000D01*
G75*
G02*
X246715000Y-129275000I0J-175000D01*
G01*
X246715000Y-130975000D01*
G75*
G02*
X246540000Y-131150000I-175000J0D01*
G01*
G37*
G36*
G01*
X247810000Y-131150000D02*
X247460000Y-131150000D01*
G75*
G02*
X247285000Y-130975000I0J175000D01*
G01*
X247285000Y-129275000D01*
G75*
G02*
X247460000Y-129100000I175000J0D01*
G01*
X247810000Y-129100000D01*
G75*
G02*
X247985000Y-129275000I0J-175000D01*
G01*
X247985000Y-130975000D01*
G75*
G02*
X247810000Y-131150000I-175000J0D01*
G01*
G37*
G36*
G01*
X249080000Y-131150000D02*
X248730000Y-131150000D01*
G75*
G02*
X248555000Y-130975000I0J175000D01*
G01*
X248555000Y-129275000D01*
G75*
G02*
X248730000Y-129100000I175000J0D01*
G01*
X249080000Y-129100000D01*
G75*
G02*
X249255000Y-129275000I0J-175000D01*
G01*
X249255000Y-130975000D01*
G75*
G02*
X249080000Y-131150000I-175000J0D01*
G01*
G37*
G36*
G01*
X249080000Y-136100000D02*
X248730000Y-136100000D01*
G75*
G02*
X248555000Y-135925000I0J175000D01*
G01*
X248555000Y-134225000D01*
G75*
G02*
X248730000Y-134050000I175000J0D01*
G01*
X249080000Y-134050000D01*
G75*
G02*
X249255000Y-134225000I0J-175000D01*
G01*
X249255000Y-135925000D01*
G75*
G02*
X249080000Y-136100000I-175000J0D01*
G01*
G37*
G36*
G01*
X247810000Y-136100000D02*
X247460000Y-136100000D01*
G75*
G02*
X247285000Y-135925000I0J175000D01*
G01*
X247285000Y-134225000D01*
G75*
G02*
X247460000Y-134050000I175000J0D01*
G01*
X247810000Y-134050000D01*
G75*
G02*
X247985000Y-134225000I0J-175000D01*
G01*
X247985000Y-135925000D01*
G75*
G02*
X247810000Y-136100000I-175000J0D01*
G01*
G37*
G36*
G01*
X246540000Y-136100000D02*
X246190000Y-136100000D01*
G75*
G02*
X246015000Y-135925000I0J175000D01*
G01*
X246015000Y-134225000D01*
G75*
G02*
X246190000Y-134050000I175000J0D01*
G01*
X246540000Y-134050000D01*
G75*
G02*
X246715000Y-134225000I0J-175000D01*
G01*
X246715000Y-135925000D01*
G75*
G02*
X246540000Y-136100000I-175000J0D01*
G01*
G37*
G36*
G01*
X245270000Y-136100000D02*
X244920000Y-136100000D01*
G75*
G02*
X244745000Y-135925000I0J175000D01*
G01*
X244745000Y-134225000D01*
G75*
G02*
X244920000Y-134050000I175000J0D01*
G01*
X245270000Y-134050000D01*
G75*
G02*
X245445000Y-134225000I0J-175000D01*
G01*
X245445000Y-135925000D01*
G75*
G02*
X245270000Y-136100000I-175000J0D01*
G01*
G37*
%TD*%
%TO.C,R7*%
G36*
G01*
X253721738Y-128425000D02*
X254678262Y-128425000D01*
G75*
G02*
X254950000Y-128696738I0J-271738D01*
G01*
X254950000Y-129403262D01*
G75*
G02*
X254678262Y-129675000I-271738J0D01*
G01*
X253721738Y-129675000D01*
G75*
G02*
X253450000Y-129403262I0J271738D01*
G01*
X253450000Y-128696738D01*
G75*
G02*
X253721738Y-128425000I271738J0D01*
G01*
G37*
G36*
G01*
X253721738Y-126375000D02*
X254678262Y-126375000D01*
G75*
G02*
X254950000Y-126646738I0J-271738D01*
G01*
X254950000Y-127353262D01*
G75*
G02*
X254678262Y-127625000I-271738J0D01*
G01*
X253721738Y-127625000D01*
G75*
G02*
X253450000Y-127353262I0J271738D01*
G01*
X253450000Y-126646738D01*
G75*
G02*
X253721738Y-126375000I271738J0D01*
G01*
G37*
%TD*%
%TO.C,R6*%
G36*
G01*
X254678262Y-136800000D02*
X253721738Y-136800000D01*
G75*
G02*
X253450000Y-136528262I0J271738D01*
G01*
X253450000Y-135821738D01*
G75*
G02*
X253721738Y-135550000I271738J0D01*
G01*
X254678262Y-135550000D01*
G75*
G02*
X254950000Y-135821738I0J-271738D01*
G01*
X254950000Y-136528262D01*
G75*
G02*
X254678262Y-136800000I-271738J0D01*
G01*
G37*
G36*
G01*
X254678262Y-138850000D02*
X253721738Y-138850000D01*
G75*
G02*
X253450000Y-138578262I0J271738D01*
G01*
X253450000Y-137871738D01*
G75*
G02*
X253721738Y-137600000I271738J0D01*
G01*
X254678262Y-137600000D01*
G75*
G02*
X254950000Y-137871738I0J-271738D01*
G01*
X254950000Y-138578262D01*
G75*
G02*
X254678262Y-138850000I-271738J0D01*
G01*
G37*
%TD*%
D11*
%TO.C,VOS2*%
X243000000Y-120650000D03*
%TD*%
%TO.C,VOS1*%
X243000000Y-144500000D03*
%TD*%
D12*
%TO.C,U3*%
X254000000Y-104013000D03*
%TD*%
%TO.C,U2*%
X241300000Y-104140000D03*
%TD*%
%TO.C,U1*%
X228600000Y-104140000D03*
%TD*%
%TO.C,R5*%
G36*
G01*
X245519000Y-127986262D02*
X245519000Y-127029738D01*
G75*
G02*
X245790738Y-126758000I271738J0D01*
G01*
X246497262Y-126758000D01*
G75*
G02*
X246769000Y-127029738I0J-271738D01*
G01*
X246769000Y-127986262D01*
G75*
G02*
X246497262Y-128258000I-271738J0D01*
G01*
X245790738Y-128258000D01*
G75*
G02*
X245519000Y-127986262I0J271738D01*
G01*
G37*
G36*
G01*
X243469000Y-127986262D02*
X243469000Y-127029738D01*
G75*
G02*
X243740738Y-126758000I271738J0D01*
G01*
X244447262Y-126758000D01*
G75*
G02*
X244719000Y-127029738I0J-271738D01*
G01*
X244719000Y-127986262D01*
G75*
G02*
X244447262Y-128258000I-271738J0D01*
G01*
X243740738Y-128258000D01*
G75*
G02*
X243469000Y-127986262I0J271738D01*
G01*
G37*
%TD*%
%TO.C,R4*%
G36*
G01*
X245247000Y-138146262D02*
X245247000Y-137189738D01*
G75*
G02*
X245518738Y-136918000I271738J0D01*
G01*
X246225262Y-136918000D01*
G75*
G02*
X246497000Y-137189738I0J-271738D01*
G01*
X246497000Y-138146262D01*
G75*
G02*
X246225262Y-138418000I-271738J0D01*
G01*
X245518738Y-138418000D01*
G75*
G02*
X245247000Y-138146262I0J271738D01*
G01*
G37*
G36*
G01*
X243197000Y-138146262D02*
X243197000Y-137189738D01*
G75*
G02*
X243468738Y-136918000I271738J0D01*
G01*
X244175262Y-136918000D01*
G75*
G02*
X244447000Y-137189738I0J-271738D01*
G01*
X244447000Y-138146262D01*
G75*
G02*
X244175262Y-138418000I-271738J0D01*
G01*
X243468738Y-138418000D01*
G75*
G02*
X243197000Y-138146262I0J271738D01*
G01*
G37*
%TD*%
%TO.C,R3*%
G36*
G01*
X247500000Y-125700262D02*
X247500000Y-124743738D01*
G75*
G02*
X247771738Y-124472000I271738J0D01*
G01*
X248478262Y-124472000D01*
G75*
G02*
X248750000Y-124743738I0J-271738D01*
G01*
X248750000Y-125700262D01*
G75*
G02*
X248478262Y-125972000I-271738J0D01*
G01*
X247771738Y-125972000D01*
G75*
G02*
X247500000Y-125700262I0J271738D01*
G01*
G37*
G36*
G01*
X245450000Y-125700262D02*
X245450000Y-124743738D01*
G75*
G02*
X245721738Y-124472000I271738J0D01*
G01*
X246428262Y-124472000D01*
G75*
G02*
X246700000Y-124743738I0J-271738D01*
G01*
X246700000Y-125700262D01*
G75*
G02*
X246428262Y-125972000I-271738J0D01*
G01*
X245721738Y-125972000D01*
G75*
G02*
X245450000Y-125700262I0J271738D01*
G01*
G37*
%TD*%
%TO.C,R2*%
G36*
G01*
X247500000Y-142718262D02*
X247500000Y-141761738D01*
G75*
G02*
X247771738Y-141490000I271738J0D01*
G01*
X248478262Y-141490000D01*
G75*
G02*
X248750000Y-141761738I0J-271738D01*
G01*
X248750000Y-142718262D01*
G75*
G02*
X248478262Y-142990000I-271738J0D01*
G01*
X247771738Y-142990000D01*
G75*
G02*
X247500000Y-142718262I0J271738D01*
G01*
G37*
G36*
G01*
X245450000Y-142718262D02*
X245450000Y-141761738D01*
G75*
G02*
X245721738Y-141490000I271738J0D01*
G01*
X246428262Y-141490000D01*
G75*
G02*
X246700000Y-141761738I0J-271738D01*
G01*
X246700000Y-142718262D01*
G75*
G02*
X246428262Y-142990000I-271738J0D01*
G01*
X245721738Y-142990000D01*
G75*
G02*
X245450000Y-142718262I0J271738D01*
G01*
G37*
%TD*%
%TO.C,R1*%
G36*
G01*
X241075738Y-139347000D02*
X242032262Y-139347000D01*
G75*
G02*
X242304000Y-139618738I0J-271738D01*
G01*
X242304000Y-140325262D01*
G75*
G02*
X242032262Y-140597000I-271738J0D01*
G01*
X241075738Y-140597000D01*
G75*
G02*
X240804000Y-140325262I0J271738D01*
G01*
X240804000Y-139618738D01*
G75*
G02*
X241075738Y-139347000I271738J0D01*
G01*
G37*
G36*
G01*
X241075738Y-137297000D02*
X242032262Y-137297000D01*
G75*
G02*
X242304000Y-137568738I0J-271738D01*
G01*
X242304000Y-138275262D01*
G75*
G02*
X242032262Y-138547000I-271738J0D01*
G01*
X241075738Y-138547000D01*
G75*
G02*
X240804000Y-138275262I0J271738D01*
G01*
X240804000Y-137568738D01*
G75*
G02*
X241075738Y-137297000I271738J0D01*
G01*
G37*
%TD*%
D13*
%TO.C,JPOS1*%
X272796000Y-152170000D03*
X272796000Y-157710000D03*
X272796000Y-154940000D03*
%TD*%
%TO.C,JNEG1*%
X272796000Y-107696000D03*
X272796000Y-113236000D03*
X272796000Y-110466000D03*
%TD*%
D14*
%TO.C,J5*%
X273240000Y-131000000D03*
D15*
X269240000Y-127000000D03*
X269240000Y-135000000D03*
%TD*%
D13*
%TO.C,J2*%
X215138000Y-135370000D03*
X215138000Y-129830000D03*
X215138000Y-132600000D03*
%TD*%
%TO.C,J1*%
X215392000Y-150320000D03*
X215392000Y-144780000D03*
X215392000Y-147550000D03*
%TD*%
%TO.C,C2*%
G36*
G01*
X247500000Y-140432262D02*
X247500000Y-139475738D01*
G75*
G02*
X247771738Y-139204000I271738J0D01*
G01*
X248478262Y-139204000D01*
G75*
G02*
X248750000Y-139475738I0J-271738D01*
G01*
X248750000Y-140432262D01*
G75*
G02*
X248478262Y-140704000I-271738J0D01*
G01*
X247771738Y-140704000D01*
G75*
G02*
X247500000Y-140432262I0J271738D01*
G01*
G37*
G36*
G01*
X245450000Y-140432262D02*
X245450000Y-139475738D01*
G75*
G02*
X245721738Y-139204000I271738J0D01*
G01*
X246428262Y-139204000D01*
G75*
G02*
X246700000Y-139475738I0J-271738D01*
G01*
X246700000Y-140432262D01*
G75*
G02*
X246428262Y-140704000I-271738J0D01*
G01*
X245721738Y-140704000D01*
G75*
G02*
X245450000Y-140432262I0J271738D01*
G01*
G37*
%TD*%
%TO.C,C1*%
G36*
G01*
X247500000Y-123541262D02*
X247500000Y-122584738D01*
G75*
G02*
X247771738Y-122313000I271738J0D01*
G01*
X248478262Y-122313000D01*
G75*
G02*
X248750000Y-122584738I0J-271738D01*
G01*
X248750000Y-123541262D01*
G75*
G02*
X248478262Y-123813000I-271738J0D01*
G01*
X247771738Y-123813000D01*
G75*
G02*
X247500000Y-123541262I0J271738D01*
G01*
G37*
G36*
G01*
X245450000Y-123541262D02*
X245450000Y-122584738D01*
G75*
G02*
X245721738Y-122313000I271738J0D01*
G01*
X246428262Y-122313000D01*
G75*
G02*
X246700000Y-122584738I0J-271738D01*
G01*
X246700000Y-123541262D01*
G75*
G02*
X246428262Y-123813000I-271738J0D01*
G01*
X245721738Y-123813000D01*
G75*
G02*
X245450000Y-123541262I0J271738D01*
G01*
G37*
%TD*%
M02*
