%TF.GenerationSoftware,KiCad,Pcbnew,(5.1.6-0-10_14)*%
%TF.CreationDate,2020-10-05T14:42:17-07:00*%
%TF.ProjectId,single_ended_differential_converter,73696e67-6c65-45f6-956e-6465645f6469,rev?*%
%TF.SameCoordinates,Original*%
%TF.FileFunction,Legend,Top*%
%TF.FilePolarity,Positive*%
%FSLAX46Y46*%
G04 Gerber Fmt 4.6, Leading zero omitted, Abs format (unit mm)*
G04 Created by KiCad (PCBNEW (5.1.6-0-10_14)) date 2020-10-05 14:42:17*
%MOMM*%
%LPD*%
G01*
G04 APERTURE LIST*
%ADD10C,0.300000*%
%ADD11C,0.120000*%
%ADD12C,0.150000*%
G04 APERTURE END LIST*
D10*
X217890285Y-154338571D02*
X217890285Y-152838571D01*
X218747428Y-154338571D01*
X218747428Y-152838571D01*
X219461714Y-154338571D02*
X219461714Y-153338571D01*
X219461714Y-152838571D02*
X219390285Y-152910000D01*
X219461714Y-152981428D01*
X219533142Y-152910000D01*
X219461714Y-152838571D01*
X219461714Y-152981428D01*
X220176000Y-154338571D02*
X220176000Y-152838571D01*
X220318857Y-153767142D02*
X220747428Y-154338571D01*
X220747428Y-153338571D02*
X220176000Y-153910000D01*
X221604571Y-154338571D02*
X221461714Y-154267142D01*
X221390285Y-154195714D01*
X221318857Y-154052857D01*
X221318857Y-153624285D01*
X221390285Y-153481428D01*
X221461714Y-153410000D01*
X221604571Y-153338571D01*
X221818857Y-153338571D01*
X221961714Y-153410000D01*
X222033142Y-153481428D01*
X222104571Y-153624285D01*
X222104571Y-154052857D01*
X222033142Y-154195714D01*
X221961714Y-154267142D01*
X221818857Y-154338571D01*
X221604571Y-154338571D01*
X222961714Y-154338571D02*
X222818857Y-154267142D01*
X222747428Y-154124285D01*
X222747428Y-152838571D01*
X224104571Y-154267142D02*
X223961714Y-154338571D01*
X223676000Y-154338571D01*
X223533142Y-154267142D01*
X223461714Y-154124285D01*
X223461714Y-153552857D01*
X223533142Y-153410000D01*
X223676000Y-153338571D01*
X223961714Y-153338571D01*
X224104571Y-153410000D01*
X224176000Y-153552857D01*
X224176000Y-153695714D01*
X223461714Y-153838571D01*
X224890285Y-152838571D02*
X224890285Y-152910000D01*
X224818857Y-153052857D01*
X224747428Y-153124285D01*
X225461714Y-154267142D02*
X225604571Y-154338571D01*
X225890285Y-154338571D01*
X226033142Y-154267142D01*
X226104571Y-154124285D01*
X226104571Y-154052857D01*
X226033142Y-153910000D01*
X225890285Y-153838571D01*
X225676000Y-153838571D01*
X225533142Y-153767142D01*
X225461714Y-153624285D01*
X225461714Y-153552857D01*
X225533142Y-153410000D01*
X225676000Y-153338571D01*
X225890285Y-153338571D01*
X226033142Y-153410000D01*
X228390285Y-153552857D02*
X228604571Y-153624285D01*
X228676000Y-153695714D01*
X228747428Y-153838571D01*
X228747428Y-154052857D01*
X228676000Y-154195714D01*
X228604571Y-154267142D01*
X228461714Y-154338571D01*
X227890285Y-154338571D01*
X227890285Y-152838571D01*
X228390285Y-152838571D01*
X228533142Y-152910000D01*
X228604571Y-152981428D01*
X228676000Y-153124285D01*
X228676000Y-153267142D01*
X228604571Y-153410000D01*
X228533142Y-153481428D01*
X228390285Y-153552857D01*
X227890285Y-153552857D01*
X229604571Y-154338571D02*
X229461714Y-154267142D01*
X229390285Y-154195714D01*
X229318857Y-154052857D01*
X229318857Y-153624285D01*
X229390285Y-153481428D01*
X229461714Y-153410000D01*
X229604571Y-153338571D01*
X229818857Y-153338571D01*
X229961714Y-153410000D01*
X230033142Y-153481428D01*
X230104571Y-153624285D01*
X230104571Y-154052857D01*
X230033142Y-154195714D01*
X229961714Y-154267142D01*
X229818857Y-154338571D01*
X229604571Y-154338571D01*
X230604571Y-153338571D02*
X230961714Y-154338571D01*
X231318857Y-153338571D02*
X230961714Y-154338571D01*
X230818857Y-154695714D01*
X230747428Y-154767142D01*
X230604571Y-154838571D01*
X231676000Y-153338571D02*
X232247428Y-153338571D01*
X231890285Y-154338571D02*
X231890285Y-153052857D01*
X231961714Y-152910000D01*
X232104571Y-152838571D01*
X232247428Y-152838571D01*
X232747428Y-154338571D02*
X232747428Y-153338571D01*
X232747428Y-153624285D02*
X232818857Y-153481428D01*
X232890285Y-153410000D01*
X233033142Y-153338571D01*
X233176000Y-153338571D01*
X233676000Y-154338571D02*
X233676000Y-153338571D01*
X233676000Y-152838571D02*
X233604571Y-152910000D01*
X233676000Y-152981428D01*
X233747428Y-152910000D01*
X233676000Y-152838571D01*
X233676000Y-152981428D01*
X234961714Y-154267142D02*
X234818857Y-154338571D01*
X234533142Y-154338571D01*
X234390285Y-154267142D01*
X234318857Y-154124285D01*
X234318857Y-153552857D01*
X234390285Y-153410000D01*
X234533142Y-153338571D01*
X234818857Y-153338571D01*
X234961714Y-153410000D01*
X235033142Y-153552857D01*
X235033142Y-153695714D01*
X234318857Y-153838571D01*
X235676000Y-153338571D02*
X235676000Y-154338571D01*
X235676000Y-153481428D02*
X235747428Y-153410000D01*
X235890285Y-153338571D01*
X236104571Y-153338571D01*
X236247428Y-153410000D01*
X236318857Y-153552857D01*
X236318857Y-154338571D01*
X237676000Y-154338571D02*
X237676000Y-152838571D01*
X237676000Y-154267142D02*
X237533142Y-154338571D01*
X237247428Y-154338571D01*
X237104571Y-154267142D01*
X237033142Y-154195714D01*
X236961714Y-154052857D01*
X236961714Y-153624285D01*
X237033142Y-153481428D01*
X237104571Y-153410000D01*
X237247428Y-153338571D01*
X237533142Y-153338571D01*
X237676000Y-153410000D01*
X238461714Y-152838571D02*
X238461714Y-152910000D01*
X238390285Y-153052857D01*
X238318857Y-153124285D01*
X239033142Y-154267142D02*
X239176000Y-154338571D01*
X239461714Y-154338571D01*
X239604571Y-154267142D01*
X239676000Y-154124285D01*
X239676000Y-154052857D01*
X239604571Y-153910000D01*
X239461714Y-153838571D01*
X239247428Y-153838571D01*
X239104571Y-153767142D01*
X239033142Y-153624285D01*
X239033142Y-153552857D01*
X239104571Y-153410000D01*
X239247428Y-153338571D01*
X239461714Y-153338571D01*
X239604571Y-153410000D01*
X241461714Y-154338571D02*
X241461714Y-152838571D01*
X242033142Y-152838571D01*
X242176000Y-152910000D01*
X242247428Y-152981428D01*
X242318857Y-153124285D01*
X242318857Y-153338571D01*
X242247428Y-153481428D01*
X242176000Y-153552857D01*
X242033142Y-153624285D01*
X241461714Y-153624285D01*
X243818857Y-154195714D02*
X243747428Y-154267142D01*
X243533142Y-154338571D01*
X243390285Y-154338571D01*
X243176000Y-154267142D01*
X243033142Y-154124285D01*
X242961714Y-153981428D01*
X242890285Y-153695714D01*
X242890285Y-153481428D01*
X242961714Y-153195714D01*
X243033142Y-153052857D01*
X243176000Y-152910000D01*
X243390285Y-152838571D01*
X243533142Y-152838571D01*
X243747428Y-152910000D01*
X243818857Y-152981428D01*
X244961714Y-153552857D02*
X245176000Y-153624285D01*
X245247428Y-153695714D01*
X245318857Y-153838571D01*
X245318857Y-154052857D01*
X245247428Y-154195714D01*
X245176000Y-154267142D01*
X245033142Y-154338571D01*
X244461714Y-154338571D01*
X244461714Y-152838571D01*
X244961714Y-152838571D01*
X245104571Y-152910000D01*
X245176000Y-152981428D01*
X245247428Y-153124285D01*
X245247428Y-153267142D01*
X245176000Y-153410000D01*
X245104571Y-153481428D01*
X244961714Y-153552857D01*
X244461714Y-153552857D01*
X246961714Y-153338571D02*
X247318857Y-154338571D01*
X247676000Y-153338571D01*
X248176000Y-152981428D02*
X248247428Y-152910000D01*
X248390285Y-152838571D01*
X248747428Y-152838571D01*
X248890285Y-152910000D01*
X248961714Y-152981428D01*
X249033142Y-153124285D01*
X249033142Y-153267142D01*
X248961714Y-153481428D01*
X248104571Y-154338571D01*
X249033142Y-154338571D01*
X216211714Y-156817142D02*
X216426000Y-156888571D01*
X216783142Y-156888571D01*
X216926000Y-156817142D01*
X216997428Y-156745714D01*
X217068857Y-156602857D01*
X217068857Y-156460000D01*
X216997428Y-156317142D01*
X216926000Y-156245714D01*
X216783142Y-156174285D01*
X216497428Y-156102857D01*
X216354571Y-156031428D01*
X216283142Y-155960000D01*
X216211714Y-155817142D01*
X216211714Y-155674285D01*
X216283142Y-155531428D01*
X216354571Y-155460000D01*
X216497428Y-155388571D01*
X216854571Y-155388571D01*
X217068857Y-155460000D01*
X217711714Y-156888571D02*
X217711714Y-155888571D01*
X217711714Y-155388571D02*
X217640285Y-155460000D01*
X217711714Y-155531428D01*
X217783142Y-155460000D01*
X217711714Y-155388571D01*
X217711714Y-155531428D01*
X218426000Y-155888571D02*
X218426000Y-156888571D01*
X218426000Y-156031428D02*
X218497428Y-155960000D01*
X218640285Y-155888571D01*
X218854571Y-155888571D01*
X218997428Y-155960000D01*
X219068857Y-156102857D01*
X219068857Y-156888571D01*
X220426000Y-155888571D02*
X220426000Y-157102857D01*
X220354571Y-157245714D01*
X220283142Y-157317142D01*
X220140285Y-157388571D01*
X219926000Y-157388571D01*
X219783142Y-157317142D01*
X220426000Y-156817142D02*
X220283142Y-156888571D01*
X219997428Y-156888571D01*
X219854571Y-156817142D01*
X219783142Y-156745714D01*
X219711714Y-156602857D01*
X219711714Y-156174285D01*
X219783142Y-156031428D01*
X219854571Y-155960000D01*
X219997428Y-155888571D01*
X220283142Y-155888571D01*
X220426000Y-155960000D01*
X221354571Y-156888571D02*
X221211714Y-156817142D01*
X221140285Y-156674285D01*
X221140285Y-155388571D01*
X222497428Y-156817142D02*
X222354571Y-156888571D01*
X222068857Y-156888571D01*
X221926000Y-156817142D01*
X221854571Y-156674285D01*
X221854571Y-156102857D01*
X221926000Y-155960000D01*
X222068857Y-155888571D01*
X222354571Y-155888571D01*
X222497428Y-155960000D01*
X222568857Y-156102857D01*
X222568857Y-156245714D01*
X221854571Y-156388571D01*
X223211714Y-156317142D02*
X224354571Y-156317142D01*
X225640285Y-156817142D02*
X225497428Y-156888571D01*
X225211714Y-156888571D01*
X225068857Y-156817142D01*
X224997428Y-156674285D01*
X224997428Y-156102857D01*
X225068857Y-155960000D01*
X225211714Y-155888571D01*
X225497428Y-155888571D01*
X225640285Y-155960000D01*
X225711714Y-156102857D01*
X225711714Y-156245714D01*
X224997428Y-156388571D01*
X226354571Y-155888571D02*
X226354571Y-156888571D01*
X226354571Y-156031428D02*
X226426000Y-155960000D01*
X226568857Y-155888571D01*
X226783142Y-155888571D01*
X226926000Y-155960000D01*
X226997428Y-156102857D01*
X226997428Y-156888571D01*
X228354571Y-156888571D02*
X228354571Y-155388571D01*
X228354571Y-156817142D02*
X228211714Y-156888571D01*
X227926000Y-156888571D01*
X227783142Y-156817142D01*
X227711714Y-156745714D01*
X227640285Y-156602857D01*
X227640285Y-156174285D01*
X227711714Y-156031428D01*
X227783142Y-155960000D01*
X227926000Y-155888571D01*
X228211714Y-155888571D01*
X228354571Y-155960000D01*
X229640285Y-156817142D02*
X229497428Y-156888571D01*
X229211714Y-156888571D01*
X229068857Y-156817142D01*
X228997428Y-156674285D01*
X228997428Y-156102857D01*
X229068857Y-155960000D01*
X229211714Y-155888571D01*
X229497428Y-155888571D01*
X229640285Y-155960000D01*
X229711714Y-156102857D01*
X229711714Y-156245714D01*
X228997428Y-156388571D01*
X230997428Y-156888571D02*
X230997428Y-155388571D01*
X230997428Y-156817142D02*
X230854571Y-156888571D01*
X230568857Y-156888571D01*
X230426000Y-156817142D01*
X230354571Y-156745714D01*
X230283142Y-156602857D01*
X230283142Y-156174285D01*
X230354571Y-156031428D01*
X230426000Y-155960000D01*
X230568857Y-155888571D01*
X230854571Y-155888571D01*
X230997428Y-155960000D01*
X231711714Y-156317142D02*
X232854571Y-156317142D01*
X233354571Y-155888571D02*
X233926000Y-155888571D01*
X233568857Y-155388571D02*
X233568857Y-156674285D01*
X233640285Y-156817142D01*
X233783142Y-156888571D01*
X233926000Y-156888571D01*
X234640285Y-156888571D02*
X234497428Y-156817142D01*
X234426000Y-156745714D01*
X234354571Y-156602857D01*
X234354571Y-156174285D01*
X234426000Y-156031428D01*
X234497428Y-155960000D01*
X234640285Y-155888571D01*
X234854571Y-155888571D01*
X234997428Y-155960000D01*
X235068857Y-156031428D01*
X235140285Y-156174285D01*
X235140285Y-156602857D01*
X235068857Y-156745714D01*
X234997428Y-156817142D01*
X234854571Y-156888571D01*
X234640285Y-156888571D01*
X235783142Y-156317142D02*
X236926000Y-156317142D01*
X237640285Y-156888571D02*
X237640285Y-155388571D01*
X237997428Y-155388571D01*
X238211714Y-155460000D01*
X238354571Y-155602857D01*
X238426000Y-155745714D01*
X238497428Y-156031428D01*
X238497428Y-156245714D01*
X238426000Y-156531428D01*
X238354571Y-156674285D01*
X238211714Y-156817142D01*
X237997428Y-156888571D01*
X237640285Y-156888571D01*
X239140285Y-156888571D02*
X239140285Y-155888571D01*
X239140285Y-155388571D02*
X239068857Y-155460000D01*
X239140285Y-155531428D01*
X239211714Y-155460000D01*
X239140285Y-155388571D01*
X239140285Y-155531428D01*
X239640285Y-155888571D02*
X240211714Y-155888571D01*
X239854571Y-156888571D02*
X239854571Y-155602857D01*
X239926000Y-155460000D01*
X240068857Y-155388571D01*
X240211714Y-155388571D01*
X240497428Y-155888571D02*
X241068857Y-155888571D01*
X240711714Y-156888571D02*
X240711714Y-155602857D01*
X240783142Y-155460000D01*
X240926000Y-155388571D01*
X241068857Y-155388571D01*
X242140285Y-156817142D02*
X241997428Y-156888571D01*
X241711714Y-156888571D01*
X241568857Y-156817142D01*
X241497428Y-156674285D01*
X241497428Y-156102857D01*
X241568857Y-155960000D01*
X241711714Y-155888571D01*
X241997428Y-155888571D01*
X242140285Y-155960000D01*
X242211714Y-156102857D01*
X242211714Y-156245714D01*
X241497428Y-156388571D01*
X242854571Y-156888571D02*
X242854571Y-155888571D01*
X242854571Y-156174285D02*
X242926000Y-156031428D01*
X242997428Y-155960000D01*
X243140285Y-155888571D01*
X243283142Y-155888571D01*
X244354571Y-156817142D02*
X244211714Y-156888571D01*
X243926000Y-156888571D01*
X243783142Y-156817142D01*
X243711714Y-156674285D01*
X243711714Y-156102857D01*
X243783142Y-155960000D01*
X243926000Y-155888571D01*
X244211714Y-155888571D01*
X244354571Y-155960000D01*
X244426000Y-156102857D01*
X244426000Y-156245714D01*
X243711714Y-156388571D01*
X245068857Y-155888571D02*
X245068857Y-156888571D01*
X245068857Y-156031428D02*
X245140285Y-155960000D01*
X245283142Y-155888571D01*
X245497428Y-155888571D01*
X245640285Y-155960000D01*
X245711714Y-156102857D01*
X245711714Y-156888571D01*
X246211714Y-155888571D02*
X246783142Y-155888571D01*
X246426000Y-155388571D02*
X246426000Y-156674285D01*
X246497428Y-156817142D01*
X246640285Y-156888571D01*
X246783142Y-156888571D01*
X247283142Y-156888571D02*
X247283142Y-155888571D01*
X247283142Y-155388571D02*
X247211714Y-155460000D01*
X247283142Y-155531428D01*
X247354571Y-155460000D01*
X247283142Y-155388571D01*
X247283142Y-155531428D01*
X248640285Y-156888571D02*
X248640285Y-156102857D01*
X248568857Y-155960000D01*
X248426000Y-155888571D01*
X248140285Y-155888571D01*
X247997428Y-155960000D01*
X248640285Y-156817142D02*
X248497428Y-156888571D01*
X248140285Y-156888571D01*
X247997428Y-156817142D01*
X247926000Y-156674285D01*
X247926000Y-156531428D01*
X247997428Y-156388571D01*
X248140285Y-156317142D01*
X248497428Y-156317142D01*
X248640285Y-156245714D01*
X249568857Y-156888571D02*
X249426000Y-156817142D01*
X249354571Y-156674285D01*
X249354571Y-155388571D01*
X227497428Y-159367142D02*
X227711714Y-159438571D01*
X228068857Y-159438571D01*
X228211714Y-159367142D01*
X228283142Y-159295714D01*
X228354571Y-159152857D01*
X228354571Y-159010000D01*
X228283142Y-158867142D01*
X228211714Y-158795714D01*
X228068857Y-158724285D01*
X227783142Y-158652857D01*
X227640285Y-158581428D01*
X227568857Y-158510000D01*
X227497428Y-158367142D01*
X227497428Y-158224285D01*
X227568857Y-158081428D01*
X227640285Y-158010000D01*
X227783142Y-157938571D01*
X228140285Y-157938571D01*
X228354571Y-158010000D01*
X228997428Y-159438571D02*
X228997428Y-157938571D01*
X229497428Y-159010000D01*
X229997428Y-157938571D01*
X229997428Y-159438571D01*
X230640285Y-159010000D02*
X231354571Y-159010000D01*
X230497428Y-159438571D02*
X230997428Y-157938571D01*
X231497428Y-159438571D01*
X234211714Y-157867142D02*
X232926000Y-159795714D01*
X235711714Y-157938571D02*
X236711714Y-159438571D01*
X236711714Y-157938571D02*
X235711714Y-159438571D01*
X237997428Y-159438571D02*
X237283142Y-159438571D01*
X237283142Y-157938571D01*
X239354571Y-159438571D02*
X238854571Y-158724285D01*
X238497428Y-159438571D02*
X238497428Y-157938571D01*
X239068857Y-157938571D01*
X239211714Y-158010000D01*
X239283142Y-158081428D01*
X239354571Y-158224285D01*
X239354571Y-158438571D01*
X239283142Y-158581428D01*
X239211714Y-158652857D01*
X239068857Y-158724285D01*
X238497428Y-158724285D01*
D11*
%TO.C,J5*%
X251840000Y-144202000D02*
G75*
G03*
X251840000Y-144202000I-1200000J0D01*
G01*
X270140000Y-134302000D02*
G75*
G03*
X270140000Y-134302000I-9600000J0D01*
G01*
X271440000Y-134302000D02*
G75*
G03*
X271440000Y-134302000I-10900000J0D01*
G01*
X249640000Y-134242000D02*
X248240000Y-134242000D01*
X249500000Y-133362000D02*
X248240000Y-133362000D01*
X245740000Y-131242000D02*
X249810000Y-131242000D01*
X250510000Y-129742000D02*
X245740000Y-129742000D01*
X260540000Y-123402000D02*
X265780000Y-123402000D01*
X254420000Y-123402000D02*
X255280000Y-123402000D01*
X248040000Y-138862000D02*
X248040000Y-144202000D01*
X248040000Y-134042000D02*
X248040000Y-133562000D01*
X245740000Y-138862000D02*
X245740000Y-137362000D01*
X245740000Y-131242000D02*
X245740000Y-129742000D01*
X271640000Y-124402000D02*
G75*
G03*
X271640000Y-124402000I-1200000J0D01*
G01*
X249810000Y-137362000D02*
X249810000Y-137362000D01*
X255300000Y-145202000D02*
X266660000Y-145202000D01*
X245740000Y-138862000D02*
X248040000Y-138862000D01*
X245740000Y-137362000D02*
X249810000Y-137362000D01*
X254120000Y-124402000D02*
X253780000Y-123792000D01*
X255280000Y-123402000D02*
X255430000Y-123672000D01*
X253780000Y-123792000D02*
X254420000Y-123402000D01*
X268440000Y-134302000D02*
G75*
G03*
X268440000Y-134302000I-7900000J0D01*
G01*
X250669136Y-129675636D02*
G75*
G02*
X250510000Y-129742000I-149136J133636D01*
G01*
X253846168Y-125699797D02*
G75*
G03*
X254120000Y-124402000I-616168J807797D01*
G01*
X249695630Y-133203582D02*
G75*
G02*
X249500000Y-133362000I-195630J41582D01*
G01*
X248040000Y-133562000D02*
G75*
G02*
X248240000Y-133362000I200000J0D01*
G01*
X248240000Y-134242000D02*
G75*
G02*
X248040000Y-134042000I0J200000D01*
G01*
X250019712Y-137162991D02*
G75*
G02*
X249810000Y-137362000I-209712J10991D01*
G01*
X250019201Y-131433697D02*
G75*
G03*
X249810000Y-131242000I-209201J-18303D01*
G01*
X256588628Y-124142786D02*
G75*
G02*
X255430000Y-123672000I-288628J950786D01*
G01*
X272270738Y-129982950D02*
G75*
G02*
X266660000Y-145202000I-11730738J-4319050D01*
G01*
X268857569Y-122345311D02*
G75*
G02*
X265780000Y-123402000I-3077569J3953311D01*
G01*
X268849031Y-122350020D02*
G75*
G02*
X272670000Y-125732000I1590969J-2051980D01*
G01*
X272273841Y-129993919D02*
G75*
G02*
X272670000Y-125732000I4706159J1711919D01*
G01*
X252237142Y-146253619D02*
G75*
G02*
X248040000Y-144202000I-1597142J2051619D01*
G01*
X252234717Y-146254470D02*
G75*
G02*
X255300000Y-145202000I3065283J-3937530D01*
G01*
%TO.C,C3*%
X220270000Y-133351748D02*
X220270000Y-133874252D01*
X221690000Y-133351748D02*
X221690000Y-133874252D01*
D12*
%TO.C,TP4*%
X232286000Y-140716000D02*
G75*
G03*
X232286000Y-140716000I-1400000J0D01*
G01*
%TO.C,TP3*%
X232540000Y-125476000D02*
G75*
G03*
X232540000Y-125476000I-1400000J0D01*
G01*
%TO.C,TP2*%
X240668000Y-139446000D02*
G75*
G03*
X240668000Y-139446000I-1400000J0D01*
G01*
%TO.C,TP1*%
X240668000Y-127762000D02*
G75*
G03*
X240668000Y-127762000I-1400000J0D01*
G01*
D11*
%TO.C,U2*%
X246800000Y-113538000D02*
G75*
G03*
X246800000Y-113538000I-5500000J0D01*
G01*
%TO.C,U4*%
X233880000Y-137312000D02*
X236330000Y-137312000D01*
X235680000Y-134092000D02*
X233880000Y-134092000D01*
%TO.C,U3*%
X233796000Y-132486000D02*
X236246000Y-132486000D01*
X235596000Y-129266000D02*
X233796000Y-129266000D01*
%TO.C,RO2*%
X238050000Y-135365748D02*
X238050000Y-135888252D01*
X239470000Y-135365748D02*
X239470000Y-135888252D01*
%TO.C,RO1*%
X239470000Y-131824252D02*
X239470000Y-131301748D01*
X238050000Y-131824252D02*
X238050000Y-131301748D01*
%TO.C,R10*%
X240336000Y-135383748D02*
X240336000Y-135906252D01*
X241756000Y-135383748D02*
X241756000Y-135906252D01*
%TO.C,R9*%
X241756000Y-131824252D02*
X241756000Y-131301748D01*
X240336000Y-131824252D02*
X240336000Y-131301748D01*
%TO.C,C5*%
X242016000Y-139193748D02*
X242016000Y-139716252D01*
X243436000Y-139193748D02*
X243436000Y-139716252D01*
%TO.C,C4*%
X243534000Y-128014252D02*
X243534000Y-127491748D01*
X242114000Y-128014252D02*
X242114000Y-127491748D01*
%TO.C,C2*%
X234443748Y-127964000D02*
X234966252Y-127964000D01*
X234443748Y-126544000D02*
X234966252Y-126544000D01*
%TO.C,R7*%
X245820000Y-131319748D02*
X245820000Y-131842252D01*
X244400000Y-131319748D02*
X244400000Y-131842252D01*
%TO.C,R6*%
X244400000Y-135888252D02*
X244400000Y-135365748D01*
X245820000Y-135888252D02*
X245820000Y-135365748D01*
D12*
%TO.C,VOS2*%
X225682000Y-125984000D02*
G75*
G03*
X225682000Y-125984000I-1400000J0D01*
G01*
%TO.C,VOS1*%
X225682000Y-139192000D02*
G75*
G03*
X225682000Y-139192000I-1400000J0D01*
G01*
D11*
%TO.C,U1*%
X233592000Y-113284000D02*
G75*
G03*
X233592000Y-113284000I-5500000J0D01*
G01*
%TO.C,R5*%
X225553748Y-130354000D02*
X226076252Y-130354000D01*
X225553748Y-131774000D02*
X226076252Y-131774000D01*
%TO.C,R4*%
X225535748Y-133402000D02*
X226058252Y-133402000D01*
X225535748Y-134822000D02*
X226058252Y-134822000D01*
%TO.C,R3*%
X226067252Y-129488000D02*
X225544748Y-129488000D01*
X226067252Y-128068000D02*
X225544748Y-128068000D01*
%TO.C,R2*%
X226067252Y-137108000D02*
X225544748Y-137108000D01*
X226067252Y-135688000D02*
X225544748Y-135688000D01*
%TO.C,R1*%
X230834000Y-134603748D02*
X230834000Y-135126252D01*
X229414000Y-134603748D02*
X229414000Y-135126252D01*
%TO.C,JPOS1*%
X256130000Y-153650000D02*
X256630000Y-153900000D01*
X256130000Y-154150000D02*
X256130000Y-153650000D01*
X256630000Y-153900000D02*
X256130000Y-154150000D01*
%TO.C,JNEG1*%
X256130000Y-114328000D02*
X256630000Y-114578000D01*
X256130000Y-114828000D02*
X256130000Y-114328000D01*
X256630000Y-114578000D02*
X256130000Y-114828000D01*
%TO.C,J2*%
X219612000Y-124710000D02*
X219112000Y-124460000D01*
X219612000Y-124210000D02*
X219612000Y-124710000D01*
X219112000Y-124460000D02*
X219612000Y-124210000D01*
%TO.C,J1*%
X219612000Y-142490000D02*
X219112000Y-142240000D01*
X219612000Y-141990000D02*
X219612000Y-142490000D01*
X219112000Y-142240000D02*
X219612000Y-141990000D01*
%TO.C,C1*%
X234443748Y-138990000D02*
X234966252Y-138990000D01*
X234443748Y-140410000D02*
X234966252Y-140410000D01*
%TO.C,J5*%
D12*
X273492380Y-134635333D02*
X274206666Y-134635333D01*
X274349523Y-134682952D01*
X274444761Y-134778190D01*
X274492380Y-134921047D01*
X274492380Y-135016285D01*
X273492380Y-133682952D02*
X273492380Y-134159142D01*
X273968571Y-134206761D01*
X273920952Y-134159142D01*
X273873333Y-134063904D01*
X273873333Y-133825809D01*
X273920952Y-133730571D01*
X273968571Y-133682952D01*
X274063809Y-133635333D01*
X274301904Y-133635333D01*
X274397142Y-133682952D01*
X274444761Y-133730571D01*
X274492380Y-133825809D01*
X274492380Y-134063904D01*
X274444761Y-134159142D01*
X274397142Y-134206761D01*
%TO.C,C3*%
X219559142Y-133770666D02*
X219606761Y-133818285D01*
X219654380Y-133961142D01*
X219654380Y-134056380D01*
X219606761Y-134199238D01*
X219511523Y-134294476D01*
X219416285Y-134342095D01*
X219225809Y-134389714D01*
X219082952Y-134389714D01*
X218892476Y-134342095D01*
X218797238Y-134294476D01*
X218702000Y-134199238D01*
X218654380Y-134056380D01*
X218654380Y-133961142D01*
X218702000Y-133818285D01*
X218749619Y-133770666D01*
X218654380Y-133437333D02*
X218654380Y-132818285D01*
X219035333Y-133151619D01*
X219035333Y-133008761D01*
X219082952Y-132913523D01*
X219130571Y-132865904D01*
X219225809Y-132818285D01*
X219463904Y-132818285D01*
X219559142Y-132865904D01*
X219606761Y-132913523D01*
X219654380Y-133008761D01*
X219654380Y-133294476D01*
X219606761Y-133389714D01*
X219559142Y-133437333D01*
%TO.C,TP4*%
X229457428Y-143668380D02*
X229457428Y-142668380D01*
X229933619Y-143668380D02*
X229933619Y-142668380D01*
X230505047Y-143668380D01*
X230505047Y-142668380D01*
X230838380Y-142668380D02*
X231171714Y-143668380D01*
X231505047Y-142668380D01*
X231790761Y-142763619D02*
X231838380Y-142716000D01*
X231933619Y-142668380D01*
X232171714Y-142668380D01*
X232266952Y-142716000D01*
X232314571Y-142763619D01*
X232362190Y-142858857D01*
X232362190Y-142954095D01*
X232314571Y-143096952D01*
X231743142Y-143668380D01*
X232362190Y-143668380D01*
%TO.C,TP3*%
X229711428Y-123388380D02*
X229711428Y-122388380D01*
X230187619Y-123388380D02*
X230187619Y-122388380D01*
X230759047Y-123388380D01*
X230759047Y-122388380D01*
X231092380Y-122388380D02*
X231425714Y-123388380D01*
X231759047Y-122388380D01*
X232616190Y-123388380D02*
X232044761Y-123388380D01*
X232330476Y-123388380D02*
X232330476Y-122388380D01*
X232235238Y-122531238D01*
X232140000Y-122626476D01*
X232044761Y-122674095D01*
%TO.C,TP2*%
X237410857Y-141398380D02*
X237601333Y-141398380D01*
X237696571Y-141446000D01*
X237791809Y-141541238D01*
X237839428Y-141731714D01*
X237839428Y-142065047D01*
X237791809Y-142255523D01*
X237696571Y-142350761D01*
X237601333Y-142398380D01*
X237410857Y-142398380D01*
X237315619Y-142350761D01*
X237220380Y-142255523D01*
X237172761Y-142065047D01*
X237172761Y-141731714D01*
X237220380Y-141541238D01*
X237315619Y-141446000D01*
X237410857Y-141398380D01*
X238268000Y-141398380D02*
X238268000Y-142207904D01*
X238315619Y-142303142D01*
X238363238Y-142350761D01*
X238458476Y-142398380D01*
X238648952Y-142398380D01*
X238744190Y-142350761D01*
X238791809Y-142303142D01*
X238839428Y-142207904D01*
X238839428Y-141398380D01*
X239172761Y-141398380D02*
X239744190Y-141398380D01*
X239458476Y-142398380D02*
X239458476Y-141398380D01*
X240077523Y-142398380D02*
X240077523Y-141731714D01*
X240077523Y-141398380D02*
X240029904Y-141446000D01*
X240077523Y-141493619D01*
X240125142Y-141446000D01*
X240077523Y-141398380D01*
X240077523Y-141493619D01*
X240553714Y-142017428D02*
X241315619Y-142017428D01*
X240934666Y-142398380D02*
X240934666Y-141636476D01*
%TO.C,TP1*%
X237664857Y-124674380D02*
X237855333Y-124674380D01*
X237950571Y-124722000D01*
X238045809Y-124817238D01*
X238093428Y-125007714D01*
X238093428Y-125341047D01*
X238045809Y-125531523D01*
X237950571Y-125626761D01*
X237855333Y-125674380D01*
X237664857Y-125674380D01*
X237569619Y-125626761D01*
X237474380Y-125531523D01*
X237426761Y-125341047D01*
X237426761Y-125007714D01*
X237474380Y-124817238D01*
X237569619Y-124722000D01*
X237664857Y-124674380D01*
X238522000Y-124674380D02*
X238522000Y-125483904D01*
X238569619Y-125579142D01*
X238617238Y-125626761D01*
X238712476Y-125674380D01*
X238902952Y-125674380D01*
X238998190Y-125626761D01*
X239045809Y-125579142D01*
X239093428Y-125483904D01*
X239093428Y-124674380D01*
X239426761Y-124674380D02*
X239998190Y-124674380D01*
X239712476Y-125674380D02*
X239712476Y-124674380D01*
X240331523Y-125674380D02*
X240331523Y-125007714D01*
X240331523Y-124674380D02*
X240283904Y-124722000D01*
X240331523Y-124769619D01*
X240379142Y-124722000D01*
X240331523Y-124674380D01*
X240331523Y-124769619D01*
X240807714Y-125293428D02*
X241569619Y-125293428D01*
%TO.C,U2*%
X240538095Y-106490380D02*
X240538095Y-107299904D01*
X240585714Y-107395142D01*
X240633333Y-107442761D01*
X240728571Y-107490380D01*
X240919047Y-107490380D01*
X241014285Y-107442761D01*
X241061904Y-107395142D01*
X241109523Y-107299904D01*
X241109523Y-106490380D01*
X241538095Y-106585619D02*
X241585714Y-106538000D01*
X241680952Y-106490380D01*
X241919047Y-106490380D01*
X242014285Y-106538000D01*
X242061904Y-106585619D01*
X242109523Y-106680857D01*
X242109523Y-106776095D01*
X242061904Y-106918952D01*
X241490476Y-107490380D01*
X242109523Y-107490380D01*
%TO.C,U4*%
X233934095Y-127976380D02*
X233934095Y-128785904D01*
X233981714Y-128881142D01*
X234029333Y-128928761D01*
X234124571Y-128976380D01*
X234315047Y-128976380D01*
X234410285Y-128928761D01*
X234457904Y-128881142D01*
X234505523Y-128785904D01*
X234505523Y-127976380D01*
X235410285Y-128309714D02*
X235410285Y-128976380D01*
X235172190Y-127928761D02*
X234934095Y-128643047D01*
X235553142Y-128643047D01*
%TO.C,U3*%
X233934095Y-137628380D02*
X233934095Y-138437904D01*
X233981714Y-138533142D01*
X234029333Y-138580761D01*
X234124571Y-138628380D01*
X234315047Y-138628380D01*
X234410285Y-138580761D01*
X234457904Y-138533142D01*
X234505523Y-138437904D01*
X234505523Y-137628380D01*
X234886476Y-137628380D02*
X235505523Y-137628380D01*
X235172190Y-138009333D01*
X235315047Y-138009333D01*
X235410285Y-138056952D01*
X235457904Y-138104571D01*
X235505523Y-138199809D01*
X235505523Y-138437904D01*
X235457904Y-138533142D01*
X235410285Y-138580761D01*
X235315047Y-138628380D01*
X235029333Y-138628380D01*
X234934095Y-138580761D01*
X234886476Y-138533142D01*
%TO.C,RO2*%
X237688380Y-136326476D02*
X237212190Y-136659809D01*
X237688380Y-136897904D02*
X236688380Y-136897904D01*
X236688380Y-136516952D01*
X236736000Y-136421714D01*
X236783619Y-136374095D01*
X236878857Y-136326476D01*
X237021714Y-136326476D01*
X237116952Y-136374095D01*
X237164571Y-136421714D01*
X237212190Y-136516952D01*
X237212190Y-136897904D01*
X236688380Y-135707428D02*
X236688380Y-135516952D01*
X236736000Y-135421714D01*
X236831238Y-135326476D01*
X237021714Y-135278857D01*
X237355047Y-135278857D01*
X237545523Y-135326476D01*
X237640761Y-135421714D01*
X237688380Y-135516952D01*
X237688380Y-135707428D01*
X237640761Y-135802666D01*
X237545523Y-135897904D01*
X237355047Y-135945523D01*
X237021714Y-135945523D01*
X236831238Y-135897904D01*
X236736000Y-135802666D01*
X236688380Y-135707428D01*
X236783619Y-134897904D02*
X236736000Y-134850285D01*
X236688380Y-134755047D01*
X236688380Y-134516952D01*
X236736000Y-134421714D01*
X236783619Y-134374095D01*
X236878857Y-134326476D01*
X236974095Y-134326476D01*
X237116952Y-134374095D01*
X237688380Y-134945523D01*
X237688380Y-134326476D01*
%TO.C,RO1*%
X237562380Y-132253476D02*
X237086190Y-132586809D01*
X237562380Y-132824904D02*
X236562380Y-132824904D01*
X236562380Y-132443952D01*
X236610000Y-132348714D01*
X236657619Y-132301095D01*
X236752857Y-132253476D01*
X236895714Y-132253476D01*
X236990952Y-132301095D01*
X237038571Y-132348714D01*
X237086190Y-132443952D01*
X237086190Y-132824904D01*
X236562380Y-131634428D02*
X236562380Y-131443952D01*
X236610000Y-131348714D01*
X236705238Y-131253476D01*
X236895714Y-131205857D01*
X237229047Y-131205857D01*
X237419523Y-131253476D01*
X237514761Y-131348714D01*
X237562380Y-131443952D01*
X237562380Y-131634428D01*
X237514761Y-131729666D01*
X237419523Y-131824904D01*
X237229047Y-131872523D01*
X236895714Y-131872523D01*
X236705238Y-131824904D01*
X236610000Y-131729666D01*
X236562380Y-131634428D01*
X237562380Y-130253476D02*
X237562380Y-130824904D01*
X237562380Y-130539190D02*
X236562380Y-130539190D01*
X236705238Y-130634428D01*
X236800476Y-130729666D01*
X236848095Y-130824904D01*
%TO.C,R10*%
X243148380Y-136287857D02*
X242672190Y-136621190D01*
X243148380Y-136859285D02*
X242148380Y-136859285D01*
X242148380Y-136478333D01*
X242196000Y-136383095D01*
X242243619Y-136335476D01*
X242338857Y-136287857D01*
X242481714Y-136287857D01*
X242576952Y-136335476D01*
X242624571Y-136383095D01*
X242672190Y-136478333D01*
X242672190Y-136859285D01*
X243148380Y-135335476D02*
X243148380Y-135906904D01*
X243148380Y-135621190D02*
X242148380Y-135621190D01*
X242291238Y-135716428D01*
X242386476Y-135811666D01*
X242434095Y-135906904D01*
X242148380Y-134716428D02*
X242148380Y-134621190D01*
X242196000Y-134525952D01*
X242243619Y-134478333D01*
X242338857Y-134430714D01*
X242529333Y-134383095D01*
X242767428Y-134383095D01*
X242957904Y-134430714D01*
X243053142Y-134478333D01*
X243100761Y-134525952D01*
X243148380Y-134621190D01*
X243148380Y-134716428D01*
X243100761Y-134811666D01*
X243053142Y-134859285D01*
X242957904Y-134906904D01*
X242767428Y-134954523D01*
X242529333Y-134954523D01*
X242338857Y-134906904D01*
X242243619Y-134859285D01*
X242196000Y-134811666D01*
X242148380Y-134716428D01*
%TO.C,R9*%
X243276380Y-131729666D02*
X242800190Y-132063000D01*
X243276380Y-132301095D02*
X242276380Y-132301095D01*
X242276380Y-131920142D01*
X242324000Y-131824904D01*
X242371619Y-131777285D01*
X242466857Y-131729666D01*
X242609714Y-131729666D01*
X242704952Y-131777285D01*
X242752571Y-131824904D01*
X242800190Y-131920142D01*
X242800190Y-132301095D01*
X243276380Y-131253476D02*
X243276380Y-131063000D01*
X243228761Y-130967761D01*
X243181142Y-130920142D01*
X243038285Y-130824904D01*
X242847809Y-130777285D01*
X242466857Y-130777285D01*
X242371619Y-130824904D01*
X242324000Y-130872523D01*
X242276380Y-130967761D01*
X242276380Y-131158238D01*
X242324000Y-131253476D01*
X242371619Y-131301095D01*
X242466857Y-131348714D01*
X242704952Y-131348714D01*
X242800190Y-131301095D01*
X242847809Y-131253476D01*
X242895428Y-131158238D01*
X242895428Y-130967761D01*
X242847809Y-130872523D01*
X242800190Y-130824904D01*
X242704952Y-130777285D01*
%TO.C,C5*%
X244733142Y-139621666D02*
X244780761Y-139669285D01*
X244828380Y-139812142D01*
X244828380Y-139907380D01*
X244780761Y-140050238D01*
X244685523Y-140145476D01*
X244590285Y-140193095D01*
X244399809Y-140240714D01*
X244256952Y-140240714D01*
X244066476Y-140193095D01*
X243971238Y-140145476D01*
X243876000Y-140050238D01*
X243828380Y-139907380D01*
X243828380Y-139812142D01*
X243876000Y-139669285D01*
X243923619Y-139621666D01*
X243828380Y-138716904D02*
X243828380Y-139193095D01*
X244304571Y-139240714D01*
X244256952Y-139193095D01*
X244209333Y-139097857D01*
X244209333Y-138859761D01*
X244256952Y-138764523D01*
X244304571Y-138716904D01*
X244399809Y-138669285D01*
X244637904Y-138669285D01*
X244733142Y-138716904D01*
X244780761Y-138764523D01*
X244828380Y-138859761D01*
X244828380Y-139097857D01*
X244780761Y-139193095D01*
X244733142Y-139240714D01*
%TO.C,C4*%
X241531142Y-127919666D02*
X241578761Y-127967285D01*
X241626380Y-128110142D01*
X241626380Y-128205380D01*
X241578761Y-128348238D01*
X241483523Y-128443476D01*
X241388285Y-128491095D01*
X241197809Y-128538714D01*
X241054952Y-128538714D01*
X240864476Y-128491095D01*
X240769238Y-128443476D01*
X240674000Y-128348238D01*
X240626380Y-128205380D01*
X240626380Y-128110142D01*
X240674000Y-127967285D01*
X240721619Y-127919666D01*
X240959714Y-127062523D02*
X241626380Y-127062523D01*
X240578761Y-127300619D02*
X241293047Y-127538714D01*
X241293047Y-126919666D01*
%TO.C,C2*%
X234529333Y-125833142D02*
X234481714Y-125880761D01*
X234338857Y-125928380D01*
X234243619Y-125928380D01*
X234100761Y-125880761D01*
X234005523Y-125785523D01*
X233957904Y-125690285D01*
X233910285Y-125499809D01*
X233910285Y-125356952D01*
X233957904Y-125166476D01*
X234005523Y-125071238D01*
X234100761Y-124976000D01*
X234243619Y-124928380D01*
X234338857Y-124928380D01*
X234481714Y-124976000D01*
X234529333Y-125023619D01*
X234910285Y-125023619D02*
X234957904Y-124976000D01*
X235053142Y-124928380D01*
X235291238Y-124928380D01*
X235386476Y-124976000D01*
X235434095Y-125023619D01*
X235481714Y-125118857D01*
X235481714Y-125214095D01*
X235434095Y-125356952D01*
X234862666Y-125928380D01*
X235481714Y-125928380D01*
%TO.C,H4*%
X251460095Y-111188380D02*
X251460095Y-110188380D01*
X251460095Y-110664571D02*
X252031523Y-110664571D01*
X252031523Y-111188380D02*
X252031523Y-110188380D01*
X252936285Y-110521714D02*
X252936285Y-111188380D01*
X252698190Y-110140761D02*
X252460095Y-110855047D01*
X253079142Y-110855047D01*
%TO.C,H3*%
X250952095Y-160972380D02*
X250952095Y-159972380D01*
X250952095Y-160448571D02*
X251523523Y-160448571D01*
X251523523Y-160972380D02*
X251523523Y-159972380D01*
X251904476Y-159972380D02*
X252523523Y-159972380D01*
X252190190Y-160353333D01*
X252333047Y-160353333D01*
X252428285Y-160400952D01*
X252475904Y-160448571D01*
X252523523Y-160543809D01*
X252523523Y-160781904D01*
X252475904Y-160877142D01*
X252428285Y-160924761D01*
X252333047Y-160972380D01*
X252047333Y-160972380D01*
X251952095Y-160924761D01*
X251904476Y-160877142D01*
%TO.C,H2*%
X215138095Y-160972380D02*
X215138095Y-159972380D01*
X215138095Y-160448571D02*
X215709523Y-160448571D01*
X215709523Y-160972380D02*
X215709523Y-159972380D01*
X216138095Y-160067619D02*
X216185714Y-160020000D01*
X216280952Y-159972380D01*
X216519047Y-159972380D01*
X216614285Y-160020000D01*
X216661904Y-160067619D01*
X216709523Y-160162857D01*
X216709523Y-160258095D01*
X216661904Y-160400952D01*
X216090476Y-160972380D01*
X216709523Y-160972380D01*
%TO.C,H1*%
X214884095Y-111188380D02*
X214884095Y-110188380D01*
X214884095Y-110664571D02*
X215455523Y-110664571D01*
X215455523Y-111188380D02*
X215455523Y-110188380D01*
X216455523Y-111188380D02*
X215884095Y-111188380D01*
X216169809Y-111188380D02*
X216169809Y-110188380D01*
X216074571Y-110331238D01*
X215979333Y-110426476D01*
X215884095Y-110474095D01*
%TO.C,R7*%
X247212380Y-131747666D02*
X246736190Y-132081000D01*
X247212380Y-132319095D02*
X246212380Y-132319095D01*
X246212380Y-131938142D01*
X246260000Y-131842904D01*
X246307619Y-131795285D01*
X246402857Y-131747666D01*
X246545714Y-131747666D01*
X246640952Y-131795285D01*
X246688571Y-131842904D01*
X246736190Y-131938142D01*
X246736190Y-132319095D01*
X246212380Y-131414333D02*
X246212380Y-130747666D01*
X247212380Y-131176238D01*
%TO.C,R6*%
X247340380Y-135793666D02*
X246864190Y-136127000D01*
X247340380Y-136365095D02*
X246340380Y-136365095D01*
X246340380Y-135984142D01*
X246388000Y-135888904D01*
X246435619Y-135841285D01*
X246530857Y-135793666D01*
X246673714Y-135793666D01*
X246768952Y-135841285D01*
X246816571Y-135888904D01*
X246864190Y-135984142D01*
X246864190Y-136365095D01*
X246340380Y-134936523D02*
X246340380Y-135127000D01*
X246388000Y-135222238D01*
X246435619Y-135269857D01*
X246578476Y-135365095D01*
X246768952Y-135412714D01*
X247149904Y-135412714D01*
X247245142Y-135365095D01*
X247292761Y-135317476D01*
X247340380Y-135222238D01*
X247340380Y-135031761D01*
X247292761Y-134936523D01*
X247245142Y-134888904D01*
X247149904Y-134841285D01*
X246911809Y-134841285D01*
X246816571Y-134888904D01*
X246768952Y-134936523D01*
X246721333Y-135031761D01*
X246721333Y-135222238D01*
X246768952Y-135317476D01*
X246816571Y-135365095D01*
X246911809Y-135412714D01*
%TO.C,VOS2*%
X222472476Y-141692380D02*
X222805809Y-142692380D01*
X223139142Y-141692380D01*
X223662952Y-141692380D02*
X223853428Y-141692380D01*
X223948666Y-141740000D01*
X224043904Y-141835238D01*
X224091523Y-142025714D01*
X224091523Y-142359047D01*
X224043904Y-142549523D01*
X223948666Y-142644761D01*
X223853428Y-142692380D01*
X223662952Y-142692380D01*
X223567714Y-142644761D01*
X223472476Y-142549523D01*
X223424857Y-142359047D01*
X223424857Y-142025714D01*
X223472476Y-141835238D01*
X223567714Y-141740000D01*
X223662952Y-141692380D01*
X224472476Y-142644761D02*
X224615333Y-142692380D01*
X224853428Y-142692380D01*
X224948666Y-142644761D01*
X224996285Y-142597142D01*
X225043904Y-142501904D01*
X225043904Y-142406666D01*
X224996285Y-142311428D01*
X224948666Y-142263809D01*
X224853428Y-142216190D01*
X224662952Y-142168571D01*
X224567714Y-142120952D01*
X224520095Y-142073333D01*
X224472476Y-141978095D01*
X224472476Y-141882857D01*
X224520095Y-141787619D01*
X224567714Y-141740000D01*
X224662952Y-141692380D01*
X224901047Y-141692380D01*
X225043904Y-141740000D01*
X225424857Y-141787619D02*
X225472476Y-141740000D01*
X225567714Y-141692380D01*
X225805809Y-141692380D01*
X225901047Y-141740000D01*
X225948666Y-141787619D01*
X225996285Y-141882857D01*
X225996285Y-141978095D01*
X225948666Y-142120952D01*
X225377238Y-142692380D01*
X225996285Y-142692380D01*
%TO.C,VOS1*%
X222472476Y-122896380D02*
X222805809Y-123896380D01*
X223139142Y-122896380D01*
X223662952Y-122896380D02*
X223853428Y-122896380D01*
X223948666Y-122944000D01*
X224043904Y-123039238D01*
X224091523Y-123229714D01*
X224091523Y-123563047D01*
X224043904Y-123753523D01*
X223948666Y-123848761D01*
X223853428Y-123896380D01*
X223662952Y-123896380D01*
X223567714Y-123848761D01*
X223472476Y-123753523D01*
X223424857Y-123563047D01*
X223424857Y-123229714D01*
X223472476Y-123039238D01*
X223567714Y-122944000D01*
X223662952Y-122896380D01*
X224472476Y-123848761D02*
X224615333Y-123896380D01*
X224853428Y-123896380D01*
X224948666Y-123848761D01*
X224996285Y-123801142D01*
X225043904Y-123705904D01*
X225043904Y-123610666D01*
X224996285Y-123515428D01*
X224948666Y-123467809D01*
X224853428Y-123420190D01*
X224662952Y-123372571D01*
X224567714Y-123324952D01*
X224520095Y-123277333D01*
X224472476Y-123182095D01*
X224472476Y-123086857D01*
X224520095Y-122991619D01*
X224567714Y-122944000D01*
X224662952Y-122896380D01*
X224901047Y-122896380D01*
X225043904Y-122944000D01*
X225996285Y-123896380D02*
X225424857Y-123896380D01*
X225710571Y-123896380D02*
X225710571Y-122896380D01*
X225615333Y-123039238D01*
X225520095Y-123134476D01*
X225424857Y-123182095D01*
%TO.C,U1*%
X227330095Y-106236380D02*
X227330095Y-107045904D01*
X227377714Y-107141142D01*
X227425333Y-107188761D01*
X227520571Y-107236380D01*
X227711047Y-107236380D01*
X227806285Y-107188761D01*
X227853904Y-107141142D01*
X227901523Y-107045904D01*
X227901523Y-106236380D01*
X228901523Y-107236380D02*
X228330095Y-107236380D01*
X228615809Y-107236380D02*
X228615809Y-106236380D01*
X228520571Y-106379238D01*
X228425333Y-106474476D01*
X228330095Y-106522095D01*
%TO.C,R5*%
X222591333Y-131516380D02*
X222258000Y-131040190D01*
X222019904Y-131516380D02*
X222019904Y-130516380D01*
X222400857Y-130516380D01*
X222496095Y-130564000D01*
X222543714Y-130611619D01*
X222591333Y-130706857D01*
X222591333Y-130849714D01*
X222543714Y-130944952D01*
X222496095Y-130992571D01*
X222400857Y-131040190D01*
X222019904Y-131040190D01*
X223496095Y-130516380D02*
X223019904Y-130516380D01*
X222972285Y-130992571D01*
X223019904Y-130944952D01*
X223115142Y-130897333D01*
X223353238Y-130897333D01*
X223448476Y-130944952D01*
X223496095Y-130992571D01*
X223543714Y-131087809D01*
X223543714Y-131325904D01*
X223496095Y-131421142D01*
X223448476Y-131468761D01*
X223353238Y-131516380D01*
X223115142Y-131516380D01*
X223019904Y-131468761D01*
X222972285Y-131421142D01*
%TO.C,R4*%
X222845333Y-134818380D02*
X222512000Y-134342190D01*
X222273904Y-134818380D02*
X222273904Y-133818380D01*
X222654857Y-133818380D01*
X222750095Y-133866000D01*
X222797714Y-133913619D01*
X222845333Y-134008857D01*
X222845333Y-134151714D01*
X222797714Y-134246952D01*
X222750095Y-134294571D01*
X222654857Y-134342190D01*
X222273904Y-134342190D01*
X223702476Y-134151714D02*
X223702476Y-134818380D01*
X223464380Y-133770761D02*
X223226285Y-134485047D01*
X223845333Y-134485047D01*
%TO.C,R3*%
X222591333Y-129239380D02*
X222258000Y-128763190D01*
X222019904Y-129239380D02*
X222019904Y-128239380D01*
X222400857Y-128239380D01*
X222496095Y-128287000D01*
X222543714Y-128334619D01*
X222591333Y-128429857D01*
X222591333Y-128572714D01*
X222543714Y-128667952D01*
X222496095Y-128715571D01*
X222400857Y-128763190D01*
X222019904Y-128763190D01*
X222924666Y-128239380D02*
X223543714Y-128239380D01*
X223210380Y-128620333D01*
X223353238Y-128620333D01*
X223448476Y-128667952D01*
X223496095Y-128715571D01*
X223543714Y-128810809D01*
X223543714Y-129048904D01*
X223496095Y-129144142D01*
X223448476Y-129191761D01*
X223353238Y-129239380D01*
X223067523Y-129239380D01*
X222972285Y-129191761D01*
X222924666Y-129144142D01*
%TO.C,R2*%
X222591333Y-136850380D02*
X222258000Y-136374190D01*
X222019904Y-136850380D02*
X222019904Y-135850380D01*
X222400857Y-135850380D01*
X222496095Y-135898000D01*
X222543714Y-135945619D01*
X222591333Y-136040857D01*
X222591333Y-136183714D01*
X222543714Y-136278952D01*
X222496095Y-136326571D01*
X222400857Y-136374190D01*
X222019904Y-136374190D01*
X222972285Y-135945619D02*
X223019904Y-135898000D01*
X223115142Y-135850380D01*
X223353238Y-135850380D01*
X223448476Y-135898000D01*
X223496095Y-135945619D01*
X223543714Y-136040857D01*
X223543714Y-136136095D01*
X223496095Y-136278952D01*
X222924666Y-136850380D01*
X223543714Y-136850380D01*
%TO.C,R1*%
X232226380Y-135031666D02*
X231750190Y-135365000D01*
X232226380Y-135603095D02*
X231226380Y-135603095D01*
X231226380Y-135222142D01*
X231274000Y-135126904D01*
X231321619Y-135079285D01*
X231416857Y-135031666D01*
X231559714Y-135031666D01*
X231654952Y-135079285D01*
X231702571Y-135126904D01*
X231750190Y-135222142D01*
X231750190Y-135603095D01*
X232226380Y-134079285D02*
X232226380Y-134650714D01*
X232226380Y-134365000D02*
X231226380Y-134365000D01*
X231369238Y-134460238D01*
X231464476Y-134555476D01*
X231512095Y-134650714D01*
%TO.C,JPOS1*%
X258296666Y-146352380D02*
X258296666Y-147066666D01*
X258249047Y-147209523D01*
X258153809Y-147304761D01*
X258010952Y-147352380D01*
X257915714Y-147352380D01*
X258772857Y-147352380D02*
X258772857Y-146352380D01*
X259153809Y-146352380D01*
X259249047Y-146400000D01*
X259296666Y-146447619D01*
X259344285Y-146542857D01*
X259344285Y-146685714D01*
X259296666Y-146780952D01*
X259249047Y-146828571D01*
X259153809Y-146876190D01*
X258772857Y-146876190D01*
X259963333Y-146352380D02*
X260153809Y-146352380D01*
X260249047Y-146400000D01*
X260344285Y-146495238D01*
X260391904Y-146685714D01*
X260391904Y-147019047D01*
X260344285Y-147209523D01*
X260249047Y-147304761D01*
X260153809Y-147352380D01*
X259963333Y-147352380D01*
X259868095Y-147304761D01*
X259772857Y-147209523D01*
X259725238Y-147019047D01*
X259725238Y-146685714D01*
X259772857Y-146495238D01*
X259868095Y-146400000D01*
X259963333Y-146352380D01*
X260772857Y-147304761D02*
X260915714Y-147352380D01*
X261153809Y-147352380D01*
X261249047Y-147304761D01*
X261296666Y-147257142D01*
X261344285Y-147161904D01*
X261344285Y-147066666D01*
X261296666Y-146971428D01*
X261249047Y-146923809D01*
X261153809Y-146876190D01*
X260963333Y-146828571D01*
X260868095Y-146780952D01*
X260820476Y-146733333D01*
X260772857Y-146638095D01*
X260772857Y-146542857D01*
X260820476Y-146447619D01*
X260868095Y-146400000D01*
X260963333Y-146352380D01*
X261201428Y-146352380D01*
X261344285Y-146400000D01*
X262296666Y-147352380D02*
X261725238Y-147352380D01*
X262010952Y-147352380D02*
X262010952Y-146352380D01*
X261915714Y-146495238D01*
X261820476Y-146590476D01*
X261725238Y-146638095D01*
%TO.C,JNEG1*%
X258320476Y-107030380D02*
X258320476Y-107744666D01*
X258272857Y-107887523D01*
X258177619Y-107982761D01*
X258034761Y-108030380D01*
X257939523Y-108030380D01*
X258796666Y-108030380D02*
X258796666Y-107030380D01*
X259368095Y-108030380D01*
X259368095Y-107030380D01*
X259844285Y-107506571D02*
X260177619Y-107506571D01*
X260320476Y-108030380D02*
X259844285Y-108030380D01*
X259844285Y-107030380D01*
X260320476Y-107030380D01*
X261272857Y-107078000D02*
X261177619Y-107030380D01*
X261034761Y-107030380D01*
X260891904Y-107078000D01*
X260796666Y-107173238D01*
X260749047Y-107268476D01*
X260701428Y-107458952D01*
X260701428Y-107601809D01*
X260749047Y-107792285D01*
X260796666Y-107887523D01*
X260891904Y-107982761D01*
X261034761Y-108030380D01*
X261130000Y-108030380D01*
X261272857Y-107982761D01*
X261320476Y-107935142D01*
X261320476Y-107601809D01*
X261130000Y-107601809D01*
X262272857Y-108030380D02*
X261701428Y-108030380D01*
X261987142Y-108030380D02*
X261987142Y-107030380D01*
X261891904Y-107173238D01*
X261796666Y-107268476D01*
X261701428Y-107316095D01*
%TO.C,J2*%
X215278666Y-130912380D02*
X215278666Y-131626666D01*
X215231047Y-131769523D01*
X215135809Y-131864761D01*
X214992952Y-131912380D01*
X214897714Y-131912380D01*
X215707238Y-131007619D02*
X215754857Y-130960000D01*
X215850095Y-130912380D01*
X216088190Y-130912380D01*
X216183428Y-130960000D01*
X216231047Y-131007619D01*
X216278666Y-131102857D01*
X216278666Y-131198095D01*
X216231047Y-131340952D01*
X215659619Y-131912380D01*
X216278666Y-131912380D01*
%TO.C,J1*%
X215278666Y-148692380D02*
X215278666Y-149406666D01*
X215231047Y-149549523D01*
X215135809Y-149644761D01*
X214992952Y-149692380D01*
X214897714Y-149692380D01*
X216278666Y-149692380D02*
X215707238Y-149692380D01*
X215992952Y-149692380D02*
X215992952Y-148692380D01*
X215897714Y-148835238D01*
X215802476Y-148930476D01*
X215707238Y-148978095D01*
%TO.C,C1*%
X234529333Y-141835142D02*
X234481714Y-141882761D01*
X234338857Y-141930380D01*
X234243619Y-141930380D01*
X234100761Y-141882761D01*
X234005523Y-141787523D01*
X233957904Y-141692285D01*
X233910285Y-141501809D01*
X233910285Y-141358952D01*
X233957904Y-141168476D01*
X234005523Y-141073238D01*
X234100761Y-140978000D01*
X234243619Y-140930380D01*
X234338857Y-140930380D01*
X234481714Y-140978000D01*
X234529333Y-141025619D01*
X235481714Y-141930380D02*
X234910285Y-141930380D01*
X235196000Y-141930380D02*
X235196000Y-140930380D01*
X235100761Y-141073238D01*
X235005523Y-141168476D01*
X234910285Y-141216095D01*
%TD*%
M02*
