%TF.GenerationSoftware,KiCad,Pcbnew,(5.1.6-0-10_14)*%
%TF.CreationDate,2020-10-05T14:42:17-07:00*%
%TF.ProjectId,single_ended_differential_converter,73696e67-6c65-45f6-956e-6465645f6469,rev?*%
%TF.SameCoordinates,Original*%
%TF.FileFunction,Paste,Top*%
%TF.FilePolarity,Positive*%
%FSLAX46Y46*%
G04 Gerber Fmt 4.6, Leading zero omitted, Abs format (unit mm)*
G04 Created by KiCad (PCBNEW (5.1.6-0-10_14)) date 2020-10-05 14:42:17*
%MOMM*%
%LPD*%
G01*
G04 APERTURE LIST*
%ADD10R,1.060000X0.650000*%
%ADD11R,5.080000X1.600000*%
G04 APERTURE END LIST*
%TO.C,C3*%
G36*
G01*
X220529999Y-134063000D02*
X221430001Y-134063000D01*
G75*
G02*
X221680000Y-134312999I0J-249999D01*
G01*
X221680000Y-134963001D01*
G75*
G02*
X221430001Y-135213000I-249999J0D01*
G01*
X220529999Y-135213000D01*
G75*
G02*
X220280000Y-134963001I0J249999D01*
G01*
X220280000Y-134312999D01*
G75*
G02*
X220529999Y-134063000I249999J0D01*
G01*
G37*
G36*
G01*
X220529999Y-132013000D02*
X221430001Y-132013000D01*
G75*
G02*
X221680000Y-132262999I0J-249999D01*
G01*
X221680000Y-132913001D01*
G75*
G02*
X221430001Y-133163000I-249999J0D01*
G01*
X220529999Y-133163000D01*
G75*
G02*
X220280000Y-132913001I0J249999D01*
G01*
X220280000Y-132262999D01*
G75*
G02*
X220529999Y-132013000I249999J0D01*
G01*
G37*
%TD*%
D10*
%TO.C,U4*%
X233680000Y-136652000D03*
X233680000Y-134752000D03*
X235880000Y-134752000D03*
X235880000Y-135702000D03*
X235880000Y-136652000D03*
%TD*%
%TO.C,U3*%
X233596000Y-131826000D03*
X233596000Y-129926000D03*
X235796000Y-129926000D03*
X235796000Y-130876000D03*
X235796000Y-131826000D03*
%TD*%
%TO.C,RO2*%
G36*
G01*
X238309999Y-136077000D02*
X239210001Y-136077000D01*
G75*
G02*
X239460000Y-136326999I0J-249999D01*
G01*
X239460000Y-136977001D01*
G75*
G02*
X239210001Y-137227000I-249999J0D01*
G01*
X238309999Y-137227000D01*
G75*
G02*
X238060000Y-136977001I0J249999D01*
G01*
X238060000Y-136326999D01*
G75*
G02*
X238309999Y-136077000I249999J0D01*
G01*
G37*
G36*
G01*
X238309999Y-134027000D02*
X239210001Y-134027000D01*
G75*
G02*
X239460000Y-134276999I0J-249999D01*
G01*
X239460000Y-134927001D01*
G75*
G02*
X239210001Y-135177000I-249999J0D01*
G01*
X238309999Y-135177000D01*
G75*
G02*
X238060000Y-134927001I0J249999D01*
G01*
X238060000Y-134276999D01*
G75*
G02*
X238309999Y-134027000I249999J0D01*
G01*
G37*
%TD*%
%TO.C,RO1*%
G36*
G01*
X239210001Y-131113000D02*
X238309999Y-131113000D01*
G75*
G02*
X238060000Y-130863001I0J249999D01*
G01*
X238060000Y-130212999D01*
G75*
G02*
X238309999Y-129963000I249999J0D01*
G01*
X239210001Y-129963000D01*
G75*
G02*
X239460000Y-130212999I0J-249999D01*
G01*
X239460000Y-130863001D01*
G75*
G02*
X239210001Y-131113000I-249999J0D01*
G01*
G37*
G36*
G01*
X239210001Y-133163000D02*
X238309999Y-133163000D01*
G75*
G02*
X238060000Y-132913001I0J249999D01*
G01*
X238060000Y-132262999D01*
G75*
G02*
X238309999Y-132013000I249999J0D01*
G01*
X239210001Y-132013000D01*
G75*
G02*
X239460000Y-132262999I0J-249999D01*
G01*
X239460000Y-132913001D01*
G75*
G02*
X239210001Y-133163000I-249999J0D01*
G01*
G37*
%TD*%
%TO.C,R10*%
G36*
G01*
X240595999Y-136095000D02*
X241496001Y-136095000D01*
G75*
G02*
X241746000Y-136344999I0J-249999D01*
G01*
X241746000Y-136995001D01*
G75*
G02*
X241496001Y-137245000I-249999J0D01*
G01*
X240595999Y-137245000D01*
G75*
G02*
X240346000Y-136995001I0J249999D01*
G01*
X240346000Y-136344999D01*
G75*
G02*
X240595999Y-136095000I249999J0D01*
G01*
G37*
G36*
G01*
X240595999Y-134045000D02*
X241496001Y-134045000D01*
G75*
G02*
X241746000Y-134294999I0J-249999D01*
G01*
X241746000Y-134945001D01*
G75*
G02*
X241496001Y-135195000I-249999J0D01*
G01*
X240595999Y-135195000D01*
G75*
G02*
X240346000Y-134945001I0J249999D01*
G01*
X240346000Y-134294999D01*
G75*
G02*
X240595999Y-134045000I249999J0D01*
G01*
G37*
%TD*%
%TO.C,R9*%
G36*
G01*
X241496001Y-131113000D02*
X240595999Y-131113000D01*
G75*
G02*
X240346000Y-130863001I0J249999D01*
G01*
X240346000Y-130212999D01*
G75*
G02*
X240595999Y-129963000I249999J0D01*
G01*
X241496001Y-129963000D01*
G75*
G02*
X241746000Y-130212999I0J-249999D01*
G01*
X241746000Y-130863001D01*
G75*
G02*
X241496001Y-131113000I-249999J0D01*
G01*
G37*
G36*
G01*
X241496001Y-133163000D02*
X240595999Y-133163000D01*
G75*
G02*
X240346000Y-132913001I0J249999D01*
G01*
X240346000Y-132262999D01*
G75*
G02*
X240595999Y-132013000I249999J0D01*
G01*
X241496001Y-132013000D01*
G75*
G02*
X241746000Y-132262999I0J-249999D01*
G01*
X241746000Y-132913001D01*
G75*
G02*
X241496001Y-133163000I-249999J0D01*
G01*
G37*
%TD*%
%TO.C,C5*%
G36*
G01*
X242275999Y-139905000D02*
X243176001Y-139905000D01*
G75*
G02*
X243426000Y-140154999I0J-249999D01*
G01*
X243426000Y-140805001D01*
G75*
G02*
X243176001Y-141055000I-249999J0D01*
G01*
X242275999Y-141055000D01*
G75*
G02*
X242026000Y-140805001I0J249999D01*
G01*
X242026000Y-140154999D01*
G75*
G02*
X242275999Y-139905000I249999J0D01*
G01*
G37*
G36*
G01*
X242275999Y-137855000D02*
X243176001Y-137855000D01*
G75*
G02*
X243426000Y-138104999I0J-249999D01*
G01*
X243426000Y-138755001D01*
G75*
G02*
X243176001Y-139005000I-249999J0D01*
G01*
X242275999Y-139005000D01*
G75*
G02*
X242026000Y-138755001I0J249999D01*
G01*
X242026000Y-138104999D01*
G75*
G02*
X242275999Y-137855000I249999J0D01*
G01*
G37*
%TD*%
%TO.C,C4*%
G36*
G01*
X243274001Y-127303000D02*
X242373999Y-127303000D01*
G75*
G02*
X242124000Y-127053001I0J249999D01*
G01*
X242124000Y-126402999D01*
G75*
G02*
X242373999Y-126153000I249999J0D01*
G01*
X243274001Y-126153000D01*
G75*
G02*
X243524000Y-126402999I0J-249999D01*
G01*
X243524000Y-127053001D01*
G75*
G02*
X243274001Y-127303000I-249999J0D01*
G01*
G37*
G36*
G01*
X243274001Y-129353000D02*
X242373999Y-129353000D01*
G75*
G02*
X242124000Y-129103001I0J249999D01*
G01*
X242124000Y-128452999D01*
G75*
G02*
X242373999Y-128203000I249999J0D01*
G01*
X243274001Y-128203000D01*
G75*
G02*
X243524000Y-128452999I0J-249999D01*
G01*
X243524000Y-129103001D01*
G75*
G02*
X243274001Y-129353000I-249999J0D01*
G01*
G37*
%TD*%
%TO.C,C2*%
G36*
G01*
X235155000Y-127704001D02*
X235155000Y-126803999D01*
G75*
G02*
X235404999Y-126554000I249999J0D01*
G01*
X236055001Y-126554000D01*
G75*
G02*
X236305000Y-126803999I0J-249999D01*
G01*
X236305000Y-127704001D01*
G75*
G02*
X236055001Y-127954000I-249999J0D01*
G01*
X235404999Y-127954000D01*
G75*
G02*
X235155000Y-127704001I0J249999D01*
G01*
G37*
G36*
G01*
X233105000Y-127704001D02*
X233105000Y-126803999D01*
G75*
G02*
X233354999Y-126554000I249999J0D01*
G01*
X234005001Y-126554000D01*
G75*
G02*
X234255000Y-126803999I0J-249999D01*
G01*
X234255000Y-127704001D01*
G75*
G02*
X234005001Y-127954000I-249999J0D01*
G01*
X233354999Y-127954000D01*
G75*
G02*
X233105000Y-127704001I0J249999D01*
G01*
G37*
%TD*%
%TO.C,R7*%
G36*
G01*
X244659999Y-132031000D02*
X245560001Y-132031000D01*
G75*
G02*
X245810000Y-132280999I0J-249999D01*
G01*
X245810000Y-132931001D01*
G75*
G02*
X245560001Y-133181000I-249999J0D01*
G01*
X244659999Y-133181000D01*
G75*
G02*
X244410000Y-132931001I0J249999D01*
G01*
X244410000Y-132280999D01*
G75*
G02*
X244659999Y-132031000I249999J0D01*
G01*
G37*
G36*
G01*
X244659999Y-129981000D02*
X245560001Y-129981000D01*
G75*
G02*
X245810000Y-130230999I0J-249999D01*
G01*
X245810000Y-130881001D01*
G75*
G02*
X245560001Y-131131000I-249999J0D01*
G01*
X244659999Y-131131000D01*
G75*
G02*
X244410000Y-130881001I0J249999D01*
G01*
X244410000Y-130230999D01*
G75*
G02*
X244659999Y-129981000I249999J0D01*
G01*
G37*
%TD*%
%TO.C,R6*%
G36*
G01*
X245560001Y-135177000D02*
X244659999Y-135177000D01*
G75*
G02*
X244410000Y-134927001I0J249999D01*
G01*
X244410000Y-134276999D01*
G75*
G02*
X244659999Y-134027000I249999J0D01*
G01*
X245560001Y-134027000D01*
G75*
G02*
X245810000Y-134276999I0J-249999D01*
G01*
X245810000Y-134927001D01*
G75*
G02*
X245560001Y-135177000I-249999J0D01*
G01*
G37*
G36*
G01*
X245560001Y-137227000D02*
X244659999Y-137227000D01*
G75*
G02*
X244410000Y-136977001I0J249999D01*
G01*
X244410000Y-136326999D01*
G75*
G02*
X244659999Y-136077000I249999J0D01*
G01*
X245560001Y-136077000D01*
G75*
G02*
X245810000Y-136326999I0J-249999D01*
G01*
X245810000Y-136977001D01*
G75*
G02*
X245560001Y-137227000I-249999J0D01*
G01*
G37*
%TD*%
%TO.C,R5*%
G36*
G01*
X226265000Y-131514001D02*
X226265000Y-130613999D01*
G75*
G02*
X226514999Y-130364000I249999J0D01*
G01*
X227165001Y-130364000D01*
G75*
G02*
X227415000Y-130613999I0J-249999D01*
G01*
X227415000Y-131514001D01*
G75*
G02*
X227165001Y-131764000I-249999J0D01*
G01*
X226514999Y-131764000D01*
G75*
G02*
X226265000Y-131514001I0J249999D01*
G01*
G37*
G36*
G01*
X224215000Y-131514001D02*
X224215000Y-130613999D01*
G75*
G02*
X224464999Y-130364000I249999J0D01*
G01*
X225115001Y-130364000D01*
G75*
G02*
X225365000Y-130613999I0J-249999D01*
G01*
X225365000Y-131514001D01*
G75*
G02*
X225115001Y-131764000I-249999J0D01*
G01*
X224464999Y-131764000D01*
G75*
G02*
X224215000Y-131514001I0J249999D01*
G01*
G37*
%TD*%
%TO.C,R4*%
G36*
G01*
X226247000Y-134562001D02*
X226247000Y-133661999D01*
G75*
G02*
X226496999Y-133412000I249999J0D01*
G01*
X227147001Y-133412000D01*
G75*
G02*
X227397000Y-133661999I0J-249999D01*
G01*
X227397000Y-134562001D01*
G75*
G02*
X227147001Y-134812000I-249999J0D01*
G01*
X226496999Y-134812000D01*
G75*
G02*
X226247000Y-134562001I0J249999D01*
G01*
G37*
G36*
G01*
X224197000Y-134562001D02*
X224197000Y-133661999D01*
G75*
G02*
X224446999Y-133412000I249999J0D01*
G01*
X225097001Y-133412000D01*
G75*
G02*
X225347000Y-133661999I0J-249999D01*
G01*
X225347000Y-134562001D01*
G75*
G02*
X225097001Y-134812000I-249999J0D01*
G01*
X224446999Y-134812000D01*
G75*
G02*
X224197000Y-134562001I0J249999D01*
G01*
G37*
%TD*%
%TO.C,R3*%
G36*
G01*
X225356000Y-128327999D02*
X225356000Y-129228001D01*
G75*
G02*
X225106001Y-129478000I-249999J0D01*
G01*
X224455999Y-129478000D01*
G75*
G02*
X224206000Y-129228001I0J249999D01*
G01*
X224206000Y-128327999D01*
G75*
G02*
X224455999Y-128078000I249999J0D01*
G01*
X225106001Y-128078000D01*
G75*
G02*
X225356000Y-128327999I0J-249999D01*
G01*
G37*
G36*
G01*
X227406000Y-128327999D02*
X227406000Y-129228001D01*
G75*
G02*
X227156001Y-129478000I-249999J0D01*
G01*
X226505999Y-129478000D01*
G75*
G02*
X226256000Y-129228001I0J249999D01*
G01*
X226256000Y-128327999D01*
G75*
G02*
X226505999Y-128078000I249999J0D01*
G01*
X227156001Y-128078000D01*
G75*
G02*
X227406000Y-128327999I0J-249999D01*
G01*
G37*
%TD*%
%TO.C,R2*%
G36*
G01*
X225356000Y-135947999D02*
X225356000Y-136848001D01*
G75*
G02*
X225106001Y-137098000I-249999J0D01*
G01*
X224455999Y-137098000D01*
G75*
G02*
X224206000Y-136848001I0J249999D01*
G01*
X224206000Y-135947999D01*
G75*
G02*
X224455999Y-135698000I249999J0D01*
G01*
X225106001Y-135698000D01*
G75*
G02*
X225356000Y-135947999I0J-249999D01*
G01*
G37*
G36*
G01*
X227406000Y-135947999D02*
X227406000Y-136848001D01*
G75*
G02*
X227156001Y-137098000I-249999J0D01*
G01*
X226505999Y-137098000D01*
G75*
G02*
X226256000Y-136848001I0J249999D01*
G01*
X226256000Y-135947999D01*
G75*
G02*
X226505999Y-135698000I249999J0D01*
G01*
X227156001Y-135698000D01*
G75*
G02*
X227406000Y-135947999I0J-249999D01*
G01*
G37*
%TD*%
%TO.C,R1*%
G36*
G01*
X229673999Y-135315000D02*
X230574001Y-135315000D01*
G75*
G02*
X230824000Y-135564999I0J-249999D01*
G01*
X230824000Y-136215001D01*
G75*
G02*
X230574001Y-136465000I-249999J0D01*
G01*
X229673999Y-136465000D01*
G75*
G02*
X229424000Y-136215001I0J249999D01*
G01*
X229424000Y-135564999D01*
G75*
G02*
X229673999Y-135315000I249999J0D01*
G01*
G37*
G36*
G01*
X229673999Y-133265000D02*
X230574001Y-133265000D01*
G75*
G02*
X230824000Y-133514999I0J-249999D01*
G01*
X230824000Y-134165001D01*
G75*
G02*
X230574001Y-134415000I-249999J0D01*
G01*
X229673999Y-134415000D01*
G75*
G02*
X229424000Y-134165001I0J249999D01*
G01*
X229424000Y-133514999D01*
G75*
G02*
X229673999Y-133265000I249999J0D01*
G01*
G37*
%TD*%
D11*
%TO.C,JPOS1*%
X260350000Y-151130000D03*
X260350000Y-156670000D03*
X260350000Y-153900000D03*
%TD*%
%TO.C,JNEG1*%
X260350000Y-111808000D03*
X260350000Y-117348000D03*
X260350000Y-114578000D03*
%TD*%
%TO.C,J2*%
X215392000Y-127230000D03*
X215392000Y-121690000D03*
X215392000Y-124460000D03*
%TD*%
%TO.C,J1*%
X215392000Y-145010000D03*
X215392000Y-139470000D03*
X215392000Y-142240000D03*
%TD*%
%TO.C,C1*%
G36*
G01*
X235155000Y-140150001D02*
X235155000Y-139249999D01*
G75*
G02*
X235404999Y-139000000I249999J0D01*
G01*
X236055001Y-139000000D01*
G75*
G02*
X236305000Y-139249999I0J-249999D01*
G01*
X236305000Y-140150001D01*
G75*
G02*
X236055001Y-140400000I-249999J0D01*
G01*
X235404999Y-140400000D01*
G75*
G02*
X235155000Y-140150001I0J249999D01*
G01*
G37*
G36*
G01*
X233105000Y-140150001D02*
X233105000Y-139249999D01*
G75*
G02*
X233354999Y-139000000I249999J0D01*
G01*
X234005001Y-139000000D01*
G75*
G02*
X234255000Y-139249999I0J-249999D01*
G01*
X234255000Y-140150001D01*
G75*
G02*
X234005001Y-140400000I-249999J0D01*
G01*
X233354999Y-140400000D01*
G75*
G02*
X233105000Y-140150001I0J249999D01*
G01*
G37*
%TD*%
M02*
