%TF.GenerationSoftware,KiCad,Pcbnew,(5.1.6-0-10_14)*%
%TF.CreationDate,2020-10-05T14:42:17-07:00*%
%TF.ProjectId,single_ended_differential_converter,73696e67-6c65-45f6-956e-6465645f6469,rev?*%
%TF.SameCoordinates,Original*%
%TF.FileFunction,Soldermask,Top*%
%TF.FilePolarity,Negative*%
%FSLAX46Y46*%
G04 Gerber Fmt 4.6, Leading zero omitted, Abs format (unit mm)*
G04 Created by KiCad (PCBNEW (5.1.6-0-10_14)) date 2020-10-05 14:42:17*
%MOMM*%
%LPD*%
G01*
G04 APERTURE LIST*
%ADD10C,3.000000*%
%ADD11C,3.500000*%
%ADD12C,2.100000*%
%ADD13C,10.260000*%
%ADD14R,1.160000X0.750000*%
%ADD15C,4.100000*%
%ADD16R,5.180000X1.700000*%
G04 APERTURE END LIST*
D10*
%TO.C,J5*%
X256540000Y-134112000D03*
D11*
X260540000Y-138112000D03*
X260540000Y-130112000D03*
%TD*%
%TO.C,C3*%
G36*
G01*
X220501738Y-134013000D02*
X221458262Y-134013000D01*
G75*
G02*
X221730000Y-134284738I0J-271738D01*
G01*
X221730000Y-134991262D01*
G75*
G02*
X221458262Y-135263000I-271738J0D01*
G01*
X220501738Y-135263000D01*
G75*
G02*
X220230000Y-134991262I0J271738D01*
G01*
X220230000Y-134284738D01*
G75*
G02*
X220501738Y-134013000I271738J0D01*
G01*
G37*
G36*
G01*
X220501738Y-131963000D02*
X221458262Y-131963000D01*
G75*
G02*
X221730000Y-132234738I0J-271738D01*
G01*
X221730000Y-132941262D01*
G75*
G02*
X221458262Y-133213000I-271738J0D01*
G01*
X220501738Y-133213000D01*
G75*
G02*
X220230000Y-132941262I0J271738D01*
G01*
X220230000Y-132234738D01*
G75*
G02*
X220501738Y-131963000I271738J0D01*
G01*
G37*
%TD*%
D12*
%TO.C,TP4*%
X230886000Y-140716000D03*
%TD*%
%TO.C,TP3*%
X231140000Y-125476000D03*
%TD*%
%TO.C,TP2*%
X239268000Y-139446000D03*
%TD*%
%TO.C,TP1*%
X239268000Y-127762000D03*
%TD*%
D13*
%TO.C,U2*%
X241300000Y-113538000D03*
%TD*%
D14*
%TO.C,U4*%
X233680000Y-136652000D03*
X233680000Y-134752000D03*
X235880000Y-134752000D03*
X235880000Y-135702000D03*
X235880000Y-136652000D03*
%TD*%
%TO.C,U3*%
X233596000Y-131826000D03*
X233596000Y-129926000D03*
X235796000Y-129926000D03*
X235796000Y-130876000D03*
X235796000Y-131826000D03*
%TD*%
%TO.C,RO2*%
G36*
G01*
X238281738Y-136027000D02*
X239238262Y-136027000D01*
G75*
G02*
X239510000Y-136298738I0J-271738D01*
G01*
X239510000Y-137005262D01*
G75*
G02*
X239238262Y-137277000I-271738J0D01*
G01*
X238281738Y-137277000D01*
G75*
G02*
X238010000Y-137005262I0J271738D01*
G01*
X238010000Y-136298738D01*
G75*
G02*
X238281738Y-136027000I271738J0D01*
G01*
G37*
G36*
G01*
X238281738Y-133977000D02*
X239238262Y-133977000D01*
G75*
G02*
X239510000Y-134248738I0J-271738D01*
G01*
X239510000Y-134955262D01*
G75*
G02*
X239238262Y-135227000I-271738J0D01*
G01*
X238281738Y-135227000D01*
G75*
G02*
X238010000Y-134955262I0J271738D01*
G01*
X238010000Y-134248738D01*
G75*
G02*
X238281738Y-133977000I271738J0D01*
G01*
G37*
%TD*%
%TO.C,RO1*%
G36*
G01*
X239238262Y-131163000D02*
X238281738Y-131163000D01*
G75*
G02*
X238010000Y-130891262I0J271738D01*
G01*
X238010000Y-130184738D01*
G75*
G02*
X238281738Y-129913000I271738J0D01*
G01*
X239238262Y-129913000D01*
G75*
G02*
X239510000Y-130184738I0J-271738D01*
G01*
X239510000Y-130891262D01*
G75*
G02*
X239238262Y-131163000I-271738J0D01*
G01*
G37*
G36*
G01*
X239238262Y-133213000D02*
X238281738Y-133213000D01*
G75*
G02*
X238010000Y-132941262I0J271738D01*
G01*
X238010000Y-132234738D01*
G75*
G02*
X238281738Y-131963000I271738J0D01*
G01*
X239238262Y-131963000D01*
G75*
G02*
X239510000Y-132234738I0J-271738D01*
G01*
X239510000Y-132941262D01*
G75*
G02*
X239238262Y-133213000I-271738J0D01*
G01*
G37*
%TD*%
%TO.C,R10*%
G36*
G01*
X240567738Y-136045000D02*
X241524262Y-136045000D01*
G75*
G02*
X241796000Y-136316738I0J-271738D01*
G01*
X241796000Y-137023262D01*
G75*
G02*
X241524262Y-137295000I-271738J0D01*
G01*
X240567738Y-137295000D01*
G75*
G02*
X240296000Y-137023262I0J271738D01*
G01*
X240296000Y-136316738D01*
G75*
G02*
X240567738Y-136045000I271738J0D01*
G01*
G37*
G36*
G01*
X240567738Y-133995000D02*
X241524262Y-133995000D01*
G75*
G02*
X241796000Y-134266738I0J-271738D01*
G01*
X241796000Y-134973262D01*
G75*
G02*
X241524262Y-135245000I-271738J0D01*
G01*
X240567738Y-135245000D01*
G75*
G02*
X240296000Y-134973262I0J271738D01*
G01*
X240296000Y-134266738D01*
G75*
G02*
X240567738Y-133995000I271738J0D01*
G01*
G37*
%TD*%
%TO.C,R9*%
G36*
G01*
X241524262Y-131163000D02*
X240567738Y-131163000D01*
G75*
G02*
X240296000Y-130891262I0J271738D01*
G01*
X240296000Y-130184738D01*
G75*
G02*
X240567738Y-129913000I271738J0D01*
G01*
X241524262Y-129913000D01*
G75*
G02*
X241796000Y-130184738I0J-271738D01*
G01*
X241796000Y-130891262D01*
G75*
G02*
X241524262Y-131163000I-271738J0D01*
G01*
G37*
G36*
G01*
X241524262Y-133213000D02*
X240567738Y-133213000D01*
G75*
G02*
X240296000Y-132941262I0J271738D01*
G01*
X240296000Y-132234738D01*
G75*
G02*
X240567738Y-131963000I271738J0D01*
G01*
X241524262Y-131963000D01*
G75*
G02*
X241796000Y-132234738I0J-271738D01*
G01*
X241796000Y-132941262D01*
G75*
G02*
X241524262Y-133213000I-271738J0D01*
G01*
G37*
%TD*%
%TO.C,C5*%
G36*
G01*
X242247738Y-139855000D02*
X243204262Y-139855000D01*
G75*
G02*
X243476000Y-140126738I0J-271738D01*
G01*
X243476000Y-140833262D01*
G75*
G02*
X243204262Y-141105000I-271738J0D01*
G01*
X242247738Y-141105000D01*
G75*
G02*
X241976000Y-140833262I0J271738D01*
G01*
X241976000Y-140126738D01*
G75*
G02*
X242247738Y-139855000I271738J0D01*
G01*
G37*
G36*
G01*
X242247738Y-137805000D02*
X243204262Y-137805000D01*
G75*
G02*
X243476000Y-138076738I0J-271738D01*
G01*
X243476000Y-138783262D01*
G75*
G02*
X243204262Y-139055000I-271738J0D01*
G01*
X242247738Y-139055000D01*
G75*
G02*
X241976000Y-138783262I0J271738D01*
G01*
X241976000Y-138076738D01*
G75*
G02*
X242247738Y-137805000I271738J0D01*
G01*
G37*
%TD*%
%TO.C,C4*%
G36*
G01*
X243302262Y-127353000D02*
X242345738Y-127353000D01*
G75*
G02*
X242074000Y-127081262I0J271738D01*
G01*
X242074000Y-126374738D01*
G75*
G02*
X242345738Y-126103000I271738J0D01*
G01*
X243302262Y-126103000D01*
G75*
G02*
X243574000Y-126374738I0J-271738D01*
G01*
X243574000Y-127081262D01*
G75*
G02*
X243302262Y-127353000I-271738J0D01*
G01*
G37*
G36*
G01*
X243302262Y-129403000D02*
X242345738Y-129403000D01*
G75*
G02*
X242074000Y-129131262I0J271738D01*
G01*
X242074000Y-128424738D01*
G75*
G02*
X242345738Y-128153000I271738J0D01*
G01*
X243302262Y-128153000D01*
G75*
G02*
X243574000Y-128424738I0J-271738D01*
G01*
X243574000Y-129131262D01*
G75*
G02*
X243302262Y-129403000I-271738J0D01*
G01*
G37*
%TD*%
%TO.C,C2*%
G36*
G01*
X235105000Y-127732262D02*
X235105000Y-126775738D01*
G75*
G02*
X235376738Y-126504000I271738J0D01*
G01*
X236083262Y-126504000D01*
G75*
G02*
X236355000Y-126775738I0J-271738D01*
G01*
X236355000Y-127732262D01*
G75*
G02*
X236083262Y-128004000I-271738J0D01*
G01*
X235376738Y-128004000D01*
G75*
G02*
X235105000Y-127732262I0J271738D01*
G01*
G37*
G36*
G01*
X233055000Y-127732262D02*
X233055000Y-126775738D01*
G75*
G02*
X233326738Y-126504000I271738J0D01*
G01*
X234033262Y-126504000D01*
G75*
G02*
X234305000Y-126775738I0J-271738D01*
G01*
X234305000Y-127732262D01*
G75*
G02*
X234033262Y-128004000I-271738J0D01*
G01*
X233326738Y-128004000D01*
G75*
G02*
X233055000Y-127732262I0J271738D01*
G01*
G37*
%TD*%
D15*
%TO.C,H4*%
X252222000Y-110236000D03*
%TD*%
%TO.C,H3*%
X251714000Y-160020000D03*
%TD*%
%TO.C,H2*%
X215900000Y-160020000D03*
%TD*%
%TO.C,H1*%
X215646000Y-110236000D03*
%TD*%
%TO.C,R7*%
G36*
G01*
X244631738Y-131981000D02*
X245588262Y-131981000D01*
G75*
G02*
X245860000Y-132252738I0J-271738D01*
G01*
X245860000Y-132959262D01*
G75*
G02*
X245588262Y-133231000I-271738J0D01*
G01*
X244631738Y-133231000D01*
G75*
G02*
X244360000Y-132959262I0J271738D01*
G01*
X244360000Y-132252738D01*
G75*
G02*
X244631738Y-131981000I271738J0D01*
G01*
G37*
G36*
G01*
X244631738Y-129931000D02*
X245588262Y-129931000D01*
G75*
G02*
X245860000Y-130202738I0J-271738D01*
G01*
X245860000Y-130909262D01*
G75*
G02*
X245588262Y-131181000I-271738J0D01*
G01*
X244631738Y-131181000D01*
G75*
G02*
X244360000Y-130909262I0J271738D01*
G01*
X244360000Y-130202738D01*
G75*
G02*
X244631738Y-129931000I271738J0D01*
G01*
G37*
%TD*%
%TO.C,R6*%
G36*
G01*
X245588262Y-135227000D02*
X244631738Y-135227000D01*
G75*
G02*
X244360000Y-134955262I0J271738D01*
G01*
X244360000Y-134248738D01*
G75*
G02*
X244631738Y-133977000I271738J0D01*
G01*
X245588262Y-133977000D01*
G75*
G02*
X245860000Y-134248738I0J-271738D01*
G01*
X245860000Y-134955262D01*
G75*
G02*
X245588262Y-135227000I-271738J0D01*
G01*
G37*
G36*
G01*
X245588262Y-137277000D02*
X244631738Y-137277000D01*
G75*
G02*
X244360000Y-137005262I0J271738D01*
G01*
X244360000Y-136298738D01*
G75*
G02*
X244631738Y-136027000I271738J0D01*
G01*
X245588262Y-136027000D01*
G75*
G02*
X245860000Y-136298738I0J-271738D01*
G01*
X245860000Y-137005262D01*
G75*
G02*
X245588262Y-137277000I-271738J0D01*
G01*
G37*
%TD*%
D12*
%TO.C,VOS2*%
X224282000Y-125984000D03*
%TD*%
%TO.C,VOS1*%
X224282000Y-139192000D03*
%TD*%
D13*
%TO.C,U1*%
X228092000Y-113284000D03*
%TD*%
%TO.C,R5*%
G36*
G01*
X226215000Y-131542262D02*
X226215000Y-130585738D01*
G75*
G02*
X226486738Y-130314000I271738J0D01*
G01*
X227193262Y-130314000D01*
G75*
G02*
X227465000Y-130585738I0J-271738D01*
G01*
X227465000Y-131542262D01*
G75*
G02*
X227193262Y-131814000I-271738J0D01*
G01*
X226486738Y-131814000D01*
G75*
G02*
X226215000Y-131542262I0J271738D01*
G01*
G37*
G36*
G01*
X224165000Y-131542262D02*
X224165000Y-130585738D01*
G75*
G02*
X224436738Y-130314000I271738J0D01*
G01*
X225143262Y-130314000D01*
G75*
G02*
X225415000Y-130585738I0J-271738D01*
G01*
X225415000Y-131542262D01*
G75*
G02*
X225143262Y-131814000I-271738J0D01*
G01*
X224436738Y-131814000D01*
G75*
G02*
X224165000Y-131542262I0J271738D01*
G01*
G37*
%TD*%
%TO.C,R4*%
G36*
G01*
X226197000Y-134590262D02*
X226197000Y-133633738D01*
G75*
G02*
X226468738Y-133362000I271738J0D01*
G01*
X227175262Y-133362000D01*
G75*
G02*
X227447000Y-133633738I0J-271738D01*
G01*
X227447000Y-134590262D01*
G75*
G02*
X227175262Y-134862000I-271738J0D01*
G01*
X226468738Y-134862000D01*
G75*
G02*
X226197000Y-134590262I0J271738D01*
G01*
G37*
G36*
G01*
X224147000Y-134590262D02*
X224147000Y-133633738D01*
G75*
G02*
X224418738Y-133362000I271738J0D01*
G01*
X225125262Y-133362000D01*
G75*
G02*
X225397000Y-133633738I0J-271738D01*
G01*
X225397000Y-134590262D01*
G75*
G02*
X225125262Y-134862000I-271738J0D01*
G01*
X224418738Y-134862000D01*
G75*
G02*
X224147000Y-134590262I0J271738D01*
G01*
G37*
%TD*%
%TO.C,R3*%
G36*
G01*
X225406000Y-128299738D02*
X225406000Y-129256262D01*
G75*
G02*
X225134262Y-129528000I-271738J0D01*
G01*
X224427738Y-129528000D01*
G75*
G02*
X224156000Y-129256262I0J271738D01*
G01*
X224156000Y-128299738D01*
G75*
G02*
X224427738Y-128028000I271738J0D01*
G01*
X225134262Y-128028000D01*
G75*
G02*
X225406000Y-128299738I0J-271738D01*
G01*
G37*
G36*
G01*
X227456000Y-128299738D02*
X227456000Y-129256262D01*
G75*
G02*
X227184262Y-129528000I-271738J0D01*
G01*
X226477738Y-129528000D01*
G75*
G02*
X226206000Y-129256262I0J271738D01*
G01*
X226206000Y-128299738D01*
G75*
G02*
X226477738Y-128028000I271738J0D01*
G01*
X227184262Y-128028000D01*
G75*
G02*
X227456000Y-128299738I0J-271738D01*
G01*
G37*
%TD*%
%TO.C,R2*%
G36*
G01*
X225406000Y-135919738D02*
X225406000Y-136876262D01*
G75*
G02*
X225134262Y-137148000I-271738J0D01*
G01*
X224427738Y-137148000D01*
G75*
G02*
X224156000Y-136876262I0J271738D01*
G01*
X224156000Y-135919738D01*
G75*
G02*
X224427738Y-135648000I271738J0D01*
G01*
X225134262Y-135648000D01*
G75*
G02*
X225406000Y-135919738I0J-271738D01*
G01*
G37*
G36*
G01*
X227456000Y-135919738D02*
X227456000Y-136876262D01*
G75*
G02*
X227184262Y-137148000I-271738J0D01*
G01*
X226477738Y-137148000D01*
G75*
G02*
X226206000Y-136876262I0J271738D01*
G01*
X226206000Y-135919738D01*
G75*
G02*
X226477738Y-135648000I271738J0D01*
G01*
X227184262Y-135648000D01*
G75*
G02*
X227456000Y-135919738I0J-271738D01*
G01*
G37*
%TD*%
%TO.C,R1*%
G36*
G01*
X229645738Y-135265000D02*
X230602262Y-135265000D01*
G75*
G02*
X230874000Y-135536738I0J-271738D01*
G01*
X230874000Y-136243262D01*
G75*
G02*
X230602262Y-136515000I-271738J0D01*
G01*
X229645738Y-136515000D01*
G75*
G02*
X229374000Y-136243262I0J271738D01*
G01*
X229374000Y-135536738D01*
G75*
G02*
X229645738Y-135265000I271738J0D01*
G01*
G37*
G36*
G01*
X229645738Y-133215000D02*
X230602262Y-133215000D01*
G75*
G02*
X230874000Y-133486738I0J-271738D01*
G01*
X230874000Y-134193262D01*
G75*
G02*
X230602262Y-134465000I-271738J0D01*
G01*
X229645738Y-134465000D01*
G75*
G02*
X229374000Y-134193262I0J271738D01*
G01*
X229374000Y-133486738D01*
G75*
G02*
X229645738Y-133215000I271738J0D01*
G01*
G37*
%TD*%
D16*
%TO.C,JPOS1*%
X260350000Y-151130000D03*
X260350000Y-156670000D03*
X260350000Y-153900000D03*
%TD*%
%TO.C,JNEG1*%
X260350000Y-111808000D03*
X260350000Y-117348000D03*
X260350000Y-114578000D03*
%TD*%
%TO.C,J2*%
X215392000Y-127230000D03*
X215392000Y-121690000D03*
X215392000Y-124460000D03*
%TD*%
%TO.C,J1*%
X215392000Y-145010000D03*
X215392000Y-139470000D03*
X215392000Y-142240000D03*
%TD*%
%TO.C,C1*%
G36*
G01*
X235105000Y-140178262D02*
X235105000Y-139221738D01*
G75*
G02*
X235376738Y-138950000I271738J0D01*
G01*
X236083262Y-138950000D01*
G75*
G02*
X236355000Y-139221738I0J-271738D01*
G01*
X236355000Y-140178262D01*
G75*
G02*
X236083262Y-140450000I-271738J0D01*
G01*
X235376738Y-140450000D01*
G75*
G02*
X235105000Y-140178262I0J271738D01*
G01*
G37*
G36*
G01*
X233055000Y-140178262D02*
X233055000Y-139221738D01*
G75*
G02*
X233326738Y-138950000I271738J0D01*
G01*
X234033262Y-138950000D01*
G75*
G02*
X234305000Y-139221738I0J-271738D01*
G01*
X234305000Y-140178262D01*
G75*
G02*
X234033262Y-140450000I-271738J0D01*
G01*
X233326738Y-140450000D01*
G75*
G02*
X233055000Y-140178262I0J271738D01*
G01*
G37*
%TD*%
M02*
