%TF.GenerationSoftware,KiCad,Pcbnew,(5.1.6-0-10_14)*%
%TF.CreationDate,2020-10-05T14:42:17-07:00*%
%TF.ProjectId,single_ended_differential_converter,73696e67-6c65-45f6-956e-6465645f6469,rev?*%
%TF.SameCoordinates,Original*%
%TF.FileFunction,Legend,Bot*%
%TF.FilePolarity,Positive*%
%FSLAX46Y46*%
G04 Gerber Fmt 4.6, Leading zero omitted, Abs format (unit mm)*
G04 Created by KiCad (PCBNEW (5.1.6-0-10_14)) date 2020-10-05 14:42:17*
%MOMM*%
%LPD*%
G01*
G04 APERTURE LIST*
%ADD10C,0.120000*%
%ADD11C,0.150000*%
G04 APERTURE END LIST*
D10*
%TO.C,RF2*%
X235202252Y-138378000D02*
X234679748Y-138378000D01*
X235202252Y-136958000D02*
X234679748Y-136958000D01*
%TO.C,R8*%
X234679748Y-132640000D02*
X235202252Y-132640000D01*
X234679748Y-134060000D02*
X235202252Y-134060000D01*
%TO.C,CF2*%
X235220252Y-136092000D02*
X234697748Y-136092000D01*
X235220252Y-134672000D02*
X234697748Y-134672000D01*
%TO.C,RF1*%
X235202252Y-130354000D02*
X234679748Y-130354000D01*
X235202252Y-131774000D02*
X234679748Y-131774000D01*
%TO.C,CF1*%
X235202252Y-128322000D02*
X234679748Y-128322000D01*
X235202252Y-129742000D02*
X234679748Y-129742000D01*
%TO.C,RF2*%
D11*
X232243238Y-138120380D02*
X232576571Y-137644190D01*
X232814666Y-138120380D02*
X232814666Y-137120380D01*
X232433714Y-137120380D01*
X232338476Y-137168000D01*
X232290857Y-137215619D01*
X232243238Y-137310857D01*
X232243238Y-137453714D01*
X232290857Y-137548952D01*
X232338476Y-137596571D01*
X232433714Y-137644190D01*
X232814666Y-137644190D01*
X231481333Y-137596571D02*
X231814666Y-137596571D01*
X231814666Y-138120380D02*
X231814666Y-137120380D01*
X231338476Y-137120380D01*
X231005142Y-137215619D02*
X230957523Y-137168000D01*
X230862285Y-137120380D01*
X230624190Y-137120380D01*
X230528952Y-137168000D01*
X230481333Y-137215619D01*
X230433714Y-137310857D01*
X230433714Y-137406095D01*
X230481333Y-137548952D01*
X231052761Y-138120380D01*
X230433714Y-138120380D01*
%TO.C,R8*%
X232322666Y-133802380D02*
X232656000Y-133326190D01*
X232894095Y-133802380D02*
X232894095Y-132802380D01*
X232513142Y-132802380D01*
X232417904Y-132850000D01*
X232370285Y-132897619D01*
X232322666Y-132992857D01*
X232322666Y-133135714D01*
X232370285Y-133230952D01*
X232417904Y-133278571D01*
X232513142Y-133326190D01*
X232894095Y-133326190D01*
X231751238Y-133230952D02*
X231846476Y-133183333D01*
X231894095Y-133135714D01*
X231941714Y-133040476D01*
X231941714Y-132992857D01*
X231894095Y-132897619D01*
X231846476Y-132850000D01*
X231751238Y-132802380D01*
X231560761Y-132802380D01*
X231465523Y-132850000D01*
X231417904Y-132897619D01*
X231370285Y-132992857D01*
X231370285Y-133040476D01*
X231417904Y-133135714D01*
X231465523Y-133183333D01*
X231560761Y-133230952D01*
X231751238Y-133230952D01*
X231846476Y-133278571D01*
X231894095Y-133326190D01*
X231941714Y-133421428D01*
X231941714Y-133611904D01*
X231894095Y-133707142D01*
X231846476Y-133754761D01*
X231751238Y-133802380D01*
X231560761Y-133802380D01*
X231465523Y-133754761D01*
X231417904Y-133707142D01*
X231370285Y-133611904D01*
X231370285Y-133421428D01*
X231417904Y-133326190D01*
X231465523Y-133278571D01*
X231560761Y-133230952D01*
%TO.C,CF2*%
X232261238Y-135739142D02*
X232308857Y-135786761D01*
X232451714Y-135834380D01*
X232546952Y-135834380D01*
X232689809Y-135786761D01*
X232785047Y-135691523D01*
X232832666Y-135596285D01*
X232880285Y-135405809D01*
X232880285Y-135262952D01*
X232832666Y-135072476D01*
X232785047Y-134977238D01*
X232689809Y-134882000D01*
X232546952Y-134834380D01*
X232451714Y-134834380D01*
X232308857Y-134882000D01*
X232261238Y-134929619D01*
X231499333Y-135310571D02*
X231832666Y-135310571D01*
X231832666Y-135834380D02*
X231832666Y-134834380D01*
X231356476Y-134834380D01*
X231023142Y-134929619D02*
X230975523Y-134882000D01*
X230880285Y-134834380D01*
X230642190Y-134834380D01*
X230546952Y-134882000D01*
X230499333Y-134929619D01*
X230451714Y-135024857D01*
X230451714Y-135120095D01*
X230499333Y-135262952D01*
X231070761Y-135834380D01*
X230451714Y-135834380D01*
%TO.C,RF1*%
X232243238Y-131516380D02*
X232576571Y-131040190D01*
X232814666Y-131516380D02*
X232814666Y-130516380D01*
X232433714Y-130516380D01*
X232338476Y-130564000D01*
X232290857Y-130611619D01*
X232243238Y-130706857D01*
X232243238Y-130849714D01*
X232290857Y-130944952D01*
X232338476Y-130992571D01*
X232433714Y-131040190D01*
X232814666Y-131040190D01*
X231481333Y-130992571D02*
X231814666Y-130992571D01*
X231814666Y-131516380D02*
X231814666Y-130516380D01*
X231338476Y-130516380D01*
X230433714Y-131516380D02*
X231005142Y-131516380D01*
X230719428Y-131516380D02*
X230719428Y-130516380D01*
X230814666Y-130659238D01*
X230909904Y-130754476D01*
X231005142Y-130802095D01*
%TO.C,CF1*%
X232225238Y-129389142D02*
X232272857Y-129436761D01*
X232415714Y-129484380D01*
X232510952Y-129484380D01*
X232653809Y-129436761D01*
X232749047Y-129341523D01*
X232796666Y-129246285D01*
X232844285Y-129055809D01*
X232844285Y-128912952D01*
X232796666Y-128722476D01*
X232749047Y-128627238D01*
X232653809Y-128532000D01*
X232510952Y-128484380D01*
X232415714Y-128484380D01*
X232272857Y-128532000D01*
X232225238Y-128579619D01*
X231463333Y-128960571D02*
X231796666Y-128960571D01*
X231796666Y-129484380D02*
X231796666Y-128484380D01*
X231320476Y-128484380D01*
X230415714Y-129484380D02*
X230987142Y-129484380D01*
X230701428Y-129484380D02*
X230701428Y-128484380D01*
X230796666Y-128627238D01*
X230891904Y-128722476D01*
X230987142Y-128770095D01*
%TD*%
M02*
