%TF.GenerationSoftware,KiCad,Pcbnew,(5.1.6-0-10_14)*%
%TF.CreationDate,2020-08-19T15:58:13-07:00*%
%TF.ProjectId,single_ended_differential_converter,73696e67-6c65-45f6-956e-6465645f6469,rev?*%
%TF.SameCoordinates,Original*%
%TF.FileFunction,Legend,Bot*%
%TF.FilePolarity,Positive*%
%FSLAX46Y46*%
G04 Gerber Fmt 4.6, Leading zero omitted, Abs format (unit mm)*
G04 Created by KiCad (PCBNEW (5.1.6-0-10_14)) date 2020-08-19 15:58:13*
%MOMM*%
%LPD*%
G01*
G04 APERTURE LIST*
%ADD10C,0.120000*%
%ADD11C,0.150000*%
G04 APERTURE END LIST*
D10*
%TO.C,RF1*%
X247267252Y-133044000D02*
X246744748Y-133044000D01*
X247267252Y-131624000D02*
X246744748Y-131624000D01*
%TO.C,CF1*%
X247267252Y-135076000D02*
X246744748Y-135076000D01*
X247267252Y-133656000D02*
X246744748Y-133656000D01*
%TO.C,RF1*%
D11*
X247601238Y-131136380D02*
X247934571Y-130660190D01*
X248172666Y-131136380D02*
X248172666Y-130136380D01*
X247791714Y-130136380D01*
X247696476Y-130184000D01*
X247648857Y-130231619D01*
X247601238Y-130326857D01*
X247601238Y-130469714D01*
X247648857Y-130564952D01*
X247696476Y-130612571D01*
X247791714Y-130660190D01*
X248172666Y-130660190D01*
X246839333Y-130612571D02*
X247172666Y-130612571D01*
X247172666Y-131136380D02*
X247172666Y-130136380D01*
X246696476Y-130136380D01*
X245791714Y-131136380D02*
X246363142Y-131136380D01*
X246077428Y-131136380D02*
X246077428Y-130136380D01*
X246172666Y-130279238D01*
X246267904Y-130374476D01*
X246363142Y-130422095D01*
%TO.C,CF1*%
X247465238Y-136374142D02*
X247512857Y-136421761D01*
X247655714Y-136469380D01*
X247750952Y-136469380D01*
X247893809Y-136421761D01*
X247989047Y-136326523D01*
X248036666Y-136231285D01*
X248084285Y-136040809D01*
X248084285Y-135897952D01*
X248036666Y-135707476D01*
X247989047Y-135612238D01*
X247893809Y-135517000D01*
X247750952Y-135469380D01*
X247655714Y-135469380D01*
X247512857Y-135517000D01*
X247465238Y-135564619D01*
X246703333Y-135945571D02*
X247036666Y-135945571D01*
X247036666Y-136469380D02*
X247036666Y-135469380D01*
X246560476Y-135469380D01*
X245655714Y-136469380D02*
X246227142Y-136469380D01*
X245941428Y-136469380D02*
X245941428Y-135469380D01*
X246036666Y-135612238D01*
X246131904Y-135707476D01*
X246227142Y-135755095D01*
%TD*%
M02*
