%TF.GenerationSoftware,KiCad,Pcbnew,(5.1.6-0-10_14)*%
%TF.CreationDate,2020-08-19T15:58:13-07:00*%
%TF.ProjectId,single_ended_differential_converter,73696e67-6c65-45f6-956e-6465645f6469,rev?*%
%TF.SameCoordinates,Original*%
%TF.FileFunction,Soldermask,Bot*%
%TF.FilePolarity,Negative*%
%FSLAX46Y46*%
G04 Gerber Fmt 4.6, Leading zero omitted, Abs format (unit mm)*
G04 Created by KiCad (PCBNEW (5.1.6-0-10_14)) date 2020-08-19 15:58:13*
%MOMM*%
%LPD*%
G01*
G04 APERTURE LIST*
%ADD10C,4.100000*%
%ADD11C,2.100000*%
%ADD12C,10.260000*%
%ADD13R,5.180000X1.700000*%
%ADD14C,3.000000*%
%ADD15C,3.500000*%
G04 APERTURE END LIST*
D10*
%TO.C,H4*%
X271780000Y-100330000D03*
%TD*%
%TO.C,H3*%
X265176000Y-160528000D03*
%TD*%
%TO.C,H2*%
X215900000Y-160020000D03*
%TD*%
%TO.C,H1*%
X215900000Y-100330000D03*
%TD*%
D11*
%TO.C,VOS2*%
X243000000Y-120650000D03*
%TD*%
%TO.C,VOS1*%
X243000000Y-144500000D03*
%TD*%
D12*
%TO.C,U3*%
X254000000Y-104013000D03*
%TD*%
%TO.C,U2*%
X241300000Y-104140000D03*
%TD*%
%TO.C,U1*%
X228600000Y-104140000D03*
%TD*%
%TO.C,RF1*%
G36*
G01*
X246606000Y-131855738D02*
X246606000Y-132812262D01*
G75*
G02*
X246334262Y-133084000I-271738J0D01*
G01*
X245627738Y-133084000D01*
G75*
G02*
X245356000Y-132812262I0J271738D01*
G01*
X245356000Y-131855738D01*
G75*
G02*
X245627738Y-131584000I271738J0D01*
G01*
X246334262Y-131584000D01*
G75*
G02*
X246606000Y-131855738I0J-271738D01*
G01*
G37*
G36*
G01*
X248656000Y-131855738D02*
X248656000Y-132812262D01*
G75*
G02*
X248384262Y-133084000I-271738J0D01*
G01*
X247677738Y-133084000D01*
G75*
G02*
X247406000Y-132812262I0J271738D01*
G01*
X247406000Y-131855738D01*
G75*
G02*
X247677738Y-131584000I271738J0D01*
G01*
X248384262Y-131584000D01*
G75*
G02*
X248656000Y-131855738I0J-271738D01*
G01*
G37*
%TD*%
D13*
%TO.C,JPOS1*%
X272796000Y-152170000D03*
X272796000Y-157710000D03*
%TD*%
%TO.C,JNEG1*%
X272796000Y-107696000D03*
X272796000Y-113236000D03*
%TD*%
D14*
%TO.C,J5*%
X273240000Y-131000000D03*
D15*
X269240000Y-127000000D03*
X269240000Y-135000000D03*
%TD*%
D13*
%TO.C,J2*%
X215138000Y-135370000D03*
X215138000Y-129830000D03*
%TD*%
%TO.C,J1*%
X215392000Y-150320000D03*
X215392000Y-144780000D03*
%TD*%
%TO.C,CF1*%
G36*
G01*
X246606000Y-133887738D02*
X246606000Y-134844262D01*
G75*
G02*
X246334262Y-135116000I-271738J0D01*
G01*
X245627738Y-135116000D01*
G75*
G02*
X245356000Y-134844262I0J271738D01*
G01*
X245356000Y-133887738D01*
G75*
G02*
X245627738Y-133616000I271738J0D01*
G01*
X246334262Y-133616000D01*
G75*
G02*
X246606000Y-133887738I0J-271738D01*
G01*
G37*
G36*
G01*
X248656000Y-133887738D02*
X248656000Y-134844262D01*
G75*
G02*
X248384262Y-135116000I-271738J0D01*
G01*
X247677738Y-135116000D01*
G75*
G02*
X247406000Y-134844262I0J271738D01*
G01*
X247406000Y-133887738D01*
G75*
G02*
X247677738Y-133616000I271738J0D01*
G01*
X248384262Y-133616000D01*
G75*
G02*
X248656000Y-133887738I0J-271738D01*
G01*
G37*
%TD*%
M02*
