%TF.GenerationSoftware,KiCad,Pcbnew,(5.1.6-0-10_14)*%
%TF.CreationDate,2020-10-05T14:42:17-07:00*%
%TF.ProjectId,single_ended_differential_converter,73696e67-6c65-45f6-956e-6465645f6469,rev?*%
%TF.SameCoordinates,Original*%
%TF.FileFunction,Copper,L2,Bot*%
%TF.FilePolarity,Positive*%
%FSLAX46Y46*%
G04 Gerber Fmt 4.6, Leading zero omitted, Abs format (unit mm)*
G04 Created by KiCad (PCBNEW (5.1.6-0-10_14)) date 2020-10-05 14:42:17*
%MOMM*%
%LPD*%
G01*
G04 APERTURE LIST*
%TA.AperFunction,ComponentPad*%
%ADD10C,2.900000*%
%TD*%
%TA.AperFunction,ComponentPad*%
%ADD11C,3.400000*%
%TD*%
%TA.AperFunction,ComponentPad*%
%ADD12C,2.000000*%
%TD*%
%TA.AperFunction,ComponentPad*%
%ADD13C,10.160000*%
%TD*%
%TA.AperFunction,ComponentPad*%
%ADD14C,4.000000*%
%TD*%
%TA.AperFunction,Conductor*%
%ADD15R,0.950000X0.460000*%
%TD*%
%TA.AperFunction,SMDPad,CuDef*%
%ADD16R,5.080000X1.600000*%
%TD*%
%TA.AperFunction,ViaPad*%
%ADD17C,0.800000*%
%TD*%
%TA.AperFunction,Conductor*%
%ADD18C,0.250000*%
%TD*%
%TA.AperFunction,Conductor*%
%ADD19C,1.000000*%
%TD*%
%TA.AperFunction,Conductor*%
%ADD20C,0.254000*%
%TD*%
G04 APERTURE END LIST*
D10*
%TO.P,J5,3*%
%TO.N,/OUT-*%
X256540000Y-134112000D03*
D11*
%TO.P,J5,1*%
%TO.N,GND*%
X260540000Y-138112000D03*
%TO.P,J5,2*%
%TO.N,/OUT+*%
X260540000Y-130112000D03*
%TD*%
D12*
%TO.P,TP4,1*%
%TO.N,/INV2*%
X230886000Y-140716000D03*
%TD*%
%TO.P,TP3,1*%
%TO.N,/INV1*%
X231140000Y-125476000D03*
%TD*%
%TO.P,TP2,1*%
%TO.N,/OUTi+*%
X239268000Y-139446000D03*
%TD*%
%TO.P,TP1,1*%
%TO.N,/OUTi-*%
X239268000Y-127762000D03*
%TD*%
D13*
%TO.P,U2,1*%
%TO.N,GND*%
X241300000Y-113538000D03*
%TD*%
%TO.P,RF2,2*%
%TO.N,/INV2*%
%TA.AperFunction,SMDPad,CuDef*%
G36*
G01*
X234491000Y-137217999D02*
X234491000Y-138118001D01*
G75*
G02*
X234241001Y-138368000I-249999J0D01*
G01*
X233590999Y-138368000D01*
G75*
G02*
X233341000Y-138118001I0J249999D01*
G01*
X233341000Y-137217999D01*
G75*
G02*
X233590999Y-136968000I249999J0D01*
G01*
X234241001Y-136968000D01*
G75*
G02*
X234491000Y-137217999I0J-249999D01*
G01*
G37*
%TD.AperFunction*%
%TO.P,RF2,1*%
%TO.N,/OUTi+*%
%TA.AperFunction,SMDPad,CuDef*%
G36*
G01*
X236541000Y-137217999D02*
X236541000Y-138118001D01*
G75*
G02*
X236291001Y-138368000I-249999J0D01*
G01*
X235640999Y-138368000D01*
G75*
G02*
X235391000Y-138118001I0J249999D01*
G01*
X235391000Y-137217999D01*
G75*
G02*
X235640999Y-136968000I249999J0D01*
G01*
X236291001Y-136968000D01*
G75*
G02*
X236541000Y-137217999I0J-249999D01*
G01*
G37*
%TD.AperFunction*%
%TD*%
%TO.P,R8,2*%
%TO.N,/OUT-*%
%TA.AperFunction,SMDPad,CuDef*%
G36*
G01*
X235391000Y-133800001D02*
X235391000Y-132899999D01*
G75*
G02*
X235640999Y-132650000I249999J0D01*
G01*
X236291001Y-132650000D01*
G75*
G02*
X236541000Y-132899999I0J-249999D01*
G01*
X236541000Y-133800001D01*
G75*
G02*
X236291001Y-134050000I-249999J0D01*
G01*
X235640999Y-134050000D01*
G75*
G02*
X235391000Y-133800001I0J249999D01*
G01*
G37*
%TD.AperFunction*%
%TO.P,R8,1*%
%TO.N,/INV2*%
%TA.AperFunction,SMDPad,CuDef*%
G36*
G01*
X233341000Y-133800001D02*
X233341000Y-132899999D01*
G75*
G02*
X233590999Y-132650000I249999J0D01*
G01*
X234241001Y-132650000D01*
G75*
G02*
X234491000Y-132899999I0J-249999D01*
G01*
X234491000Y-133800001D01*
G75*
G02*
X234241001Y-134050000I-249999J0D01*
G01*
X233590999Y-134050000D01*
G75*
G02*
X233341000Y-133800001I0J249999D01*
G01*
G37*
%TD.AperFunction*%
%TD*%
%TO.P,CF2,2*%
%TO.N,/INV2*%
%TA.AperFunction,SMDPad,CuDef*%
G36*
G01*
X234509000Y-134931999D02*
X234509000Y-135832001D01*
G75*
G02*
X234259001Y-136082000I-249999J0D01*
G01*
X233608999Y-136082000D01*
G75*
G02*
X233359000Y-135832001I0J249999D01*
G01*
X233359000Y-134931999D01*
G75*
G02*
X233608999Y-134682000I249999J0D01*
G01*
X234259001Y-134682000D01*
G75*
G02*
X234509000Y-134931999I0J-249999D01*
G01*
G37*
%TD.AperFunction*%
%TO.P,CF2,1*%
%TO.N,/OUTi+*%
%TA.AperFunction,SMDPad,CuDef*%
G36*
G01*
X236559000Y-134931999D02*
X236559000Y-135832001D01*
G75*
G02*
X236309001Y-136082000I-249999J0D01*
G01*
X235658999Y-136082000D01*
G75*
G02*
X235409000Y-135832001I0J249999D01*
G01*
X235409000Y-134931999D01*
G75*
G02*
X235658999Y-134682000I249999J0D01*
G01*
X236309001Y-134682000D01*
G75*
G02*
X236559000Y-134931999I0J-249999D01*
G01*
G37*
%TD.AperFunction*%
%TD*%
D14*
%TO.P,H4,1*%
%TO.N,N/C*%
X252222000Y-110236000D03*
%TD*%
%TO.P,H3,1*%
%TO.N,N/C*%
X251714000Y-160020000D03*
%TD*%
%TO.P,H2,1*%
%TO.N,N/C*%
X215900000Y-160020000D03*
%TD*%
%TO.P,H1,1*%
%TO.N,N/C*%
X215646000Y-110236000D03*
%TD*%
D12*
%TO.P,VOS2,1*%
%TO.N,/VOS1*%
X224282000Y-125984000D03*
%TD*%
%TO.P,VOS1,1*%
%TO.N,/VOS2*%
X224282000Y-139192000D03*
%TD*%
D13*
%TO.P,U1,1*%
%TO.N,VDD*%
X228092000Y-113284000D03*
%TD*%
%TO.P,RF1,2*%
%TO.N,/INV1*%
%TA.AperFunction,SMDPad,CuDef*%
G36*
G01*
X234491000Y-130613999D02*
X234491000Y-131514001D01*
G75*
G02*
X234241001Y-131764000I-249999J0D01*
G01*
X233590999Y-131764000D01*
G75*
G02*
X233341000Y-131514001I0J249999D01*
G01*
X233341000Y-130613999D01*
G75*
G02*
X233590999Y-130364000I249999J0D01*
G01*
X234241001Y-130364000D01*
G75*
G02*
X234491000Y-130613999I0J-249999D01*
G01*
G37*
%TD.AperFunction*%
%TO.P,RF1,1*%
%TO.N,/OUTi-*%
%TA.AperFunction,SMDPad,CuDef*%
G36*
G01*
X236541000Y-130613999D02*
X236541000Y-131514001D01*
G75*
G02*
X236291001Y-131764000I-249999J0D01*
G01*
X235640999Y-131764000D01*
G75*
G02*
X235391000Y-131514001I0J249999D01*
G01*
X235391000Y-130613999D01*
G75*
G02*
X235640999Y-130364000I249999J0D01*
G01*
X236291001Y-130364000D01*
G75*
G02*
X236541000Y-130613999I0J-249999D01*
G01*
G37*
%TD.AperFunction*%
%TD*%
D15*
%TO.N,GND*%
%TO.C,JPOS1*%
X257360000Y-151044000D03*
X257360000Y-156756000D03*
D16*
%TD*%
%TO.P,JPOS1,2*%
%TO.N,GND*%
X260350000Y-151130000D03*
%TO.P,JPOS1,2*%
%TO.N,GND*%
X260350000Y-156670000D03*
%TD*%
D15*
%TO.N,GND*%
%TO.C,JNEG1*%
X257360000Y-111722000D03*
X257360000Y-117434000D03*
D16*
%TD*%
%TO.P,JNEG1,2*%
%TO.N,GND*%
X260350000Y-111808000D03*
%TO.P,JNEG1,2*%
%TO.N,GND*%
X260350000Y-117348000D03*
%TD*%
D15*
%TO.N,GND*%
%TO.C,J2*%
X218382000Y-127316000D03*
X218382000Y-121604000D03*
D16*
%TD*%
%TO.P,J2,2*%
%TO.N,GND*%
X215392000Y-127230000D03*
%TO.P,J2,2*%
%TO.N,GND*%
X215392000Y-121690000D03*
%TD*%
D15*
%TO.N,GND*%
%TO.C,J1*%
X218382000Y-145096000D03*
X218382000Y-139384000D03*
D16*
%TD*%
%TO.P,J1,2*%
%TO.N,GND*%
X215392000Y-145010000D03*
%TO.P,J1,2*%
%TO.N,GND*%
X215392000Y-139470000D03*
%TD*%
%TO.P,CF1,2*%
%TO.N,/INV1*%
%TA.AperFunction,SMDPad,CuDef*%
G36*
G01*
X234491000Y-128581999D02*
X234491000Y-129482001D01*
G75*
G02*
X234241001Y-129732000I-249999J0D01*
G01*
X233590999Y-129732000D01*
G75*
G02*
X233341000Y-129482001I0J249999D01*
G01*
X233341000Y-128581999D01*
G75*
G02*
X233590999Y-128332000I249999J0D01*
G01*
X234241001Y-128332000D01*
G75*
G02*
X234491000Y-128581999I0J-249999D01*
G01*
G37*
%TD.AperFunction*%
%TO.P,CF1,1*%
%TO.N,/OUTi-*%
%TA.AperFunction,SMDPad,CuDef*%
G36*
G01*
X236541000Y-128581999D02*
X236541000Y-129482001D01*
G75*
G02*
X236291001Y-129732000I-249999J0D01*
G01*
X235640999Y-129732000D01*
G75*
G02*
X235391000Y-129482001I0J249999D01*
G01*
X235391000Y-128581999D01*
G75*
G02*
X235640999Y-128332000I249999J0D01*
G01*
X236291001Y-128332000D01*
G75*
G02*
X236541000Y-128581999I0J-249999D01*
G01*
G37*
%TD.AperFunction*%
%TD*%
D17*
%TO.N,GND*%
X236982000Y-139700000D03*
X237236000Y-135636000D03*
X237432919Y-130106357D03*
X242824000Y-125476000D03*
X236982000Y-127254000D03*
X242570000Y-141732000D03*
X220980000Y-135890000D03*
X223520000Y-136398000D03*
X218948000Y-121666000D03*
X218948000Y-127254000D03*
X218948000Y-139446000D03*
X218948000Y-145034000D03*
X256925653Y-150998347D03*
X256794000Y-156718000D03*
X256794000Y-111760000D03*
X256794000Y-117348000D03*
X223774000Y-128778000D03*
%TO.N,/VOS2*%
X231902000Y-133604000D03*
X228092000Y-133604000D03*
%TO.N,VDD*%
X232438653Y-132108653D03*
X231902000Y-127762000D03*
%TO.N,/OUT-*%
X236982000Y-133096000D03*
%TO.N,/OUT+*%
X252984000Y-133604000D03*
%TO.N,/INV1*%
X232410000Y-130048000D03*
%TO.N,/OUTi-*%
X236982000Y-131826000D03*
%TO.N,/INV2*%
X232410000Y-135128000D03*
%TO.N,/OUTi+*%
X237236000Y-137668000D03*
%TD*%
D18*
%TO.N,GND*%
X218924000Y-139470000D02*
X218948000Y-139446000D01*
X215392000Y-139470000D02*
X218924000Y-139470000D01*
%TO.N,/VOS2*%
X231902000Y-133604000D02*
X228092000Y-133604000D01*
D19*
%TO.N,VDD*%
X231140000Y-131318000D02*
X231140000Y-127942002D01*
X232438653Y-132108653D02*
X231684999Y-131354999D01*
D18*
X231684999Y-127979001D02*
X231902000Y-127762000D01*
X231648000Y-131318000D02*
X231684999Y-131354999D01*
X231140000Y-131318000D02*
X231648000Y-131318000D01*
X231721998Y-127942002D02*
X231902000Y-127762000D01*
X231140000Y-127942002D02*
X231721998Y-127942002D01*
%TO.N,/OUT-*%
X235966000Y-133350000D02*
X236474000Y-133350000D01*
X236728000Y-133096000D02*
X236982000Y-133096000D01*
X236474000Y-133350000D02*
X236728000Y-133096000D01*
%TO.N,/OUT+*%
X259016000Y-130112000D02*
X262318000Y-130112000D01*
X256476000Y-130112000D02*
X260540000Y-130112000D01*
X252984000Y-133604000D02*
X256476000Y-130112000D01*
%TO.N,/INV1*%
X232900000Y-130048000D02*
X233916000Y-129032000D01*
X232900000Y-130048000D02*
X233916000Y-131064000D01*
X232410000Y-130048000D02*
X232900000Y-130048000D01*
X233916000Y-128252000D02*
X231140000Y-125476000D01*
X233916000Y-129032000D02*
X233916000Y-128252000D01*
%TO.N,/OUTi-*%
X235966000Y-131064000D02*
X235966000Y-129032000D01*
X235966000Y-131064000D02*
X236982000Y-131064000D01*
X236982000Y-131064000D02*
X236982000Y-131826000D01*
%TO.N,/INV2*%
X233934000Y-137650000D02*
X233916000Y-137668000D01*
X233934000Y-135382000D02*
X233934000Y-137650000D01*
X233934000Y-133368000D02*
X233916000Y-133350000D01*
X233934000Y-135382000D02*
X233934000Y-133368000D01*
X233934000Y-135382000D02*
X232918000Y-135382000D01*
X232664000Y-135128000D02*
X232410000Y-135128000D01*
X232918000Y-135382000D02*
X232664000Y-135128000D01*
X233916000Y-137686000D02*
X230886000Y-140716000D01*
X233916000Y-137668000D02*
X233916000Y-137686000D01*
%TO.N,/OUTi+*%
X235966000Y-137668000D02*
X237236000Y-137668000D01*
X235984000Y-137650000D02*
X235966000Y-137668000D01*
X235984000Y-135382000D02*
X235984000Y-137650000D01*
%TD*%
D20*
%TO.N,GND*%
G36*
X262738000Y-110370135D02*
G01*
X260635750Y-110373000D01*
X260477000Y-110531750D01*
X260477000Y-111681000D01*
X260497000Y-111681000D01*
X260497000Y-111935000D01*
X260477000Y-111935000D01*
X260477000Y-113084250D01*
X260635750Y-113243000D01*
X262738000Y-113245865D01*
X262738000Y-115910135D01*
X260635750Y-115913000D01*
X260477000Y-116071750D01*
X260477000Y-117221000D01*
X260497000Y-117221000D01*
X260497000Y-117475000D01*
X260477000Y-117475000D01*
X260477000Y-118624250D01*
X260635750Y-118783000D01*
X262738000Y-118785865D01*
X262738000Y-129316794D01*
X262609250Y-129005963D01*
X262353713Y-128623524D01*
X262028476Y-128298287D01*
X261646037Y-128042750D01*
X261221094Y-127866733D01*
X260769977Y-127777000D01*
X260310023Y-127777000D01*
X259858906Y-127866733D01*
X259433963Y-128042750D01*
X259051524Y-128298287D01*
X258726287Y-128623524D01*
X258470750Y-129005963D01*
X258327417Y-129352000D01*
X256513325Y-129352000D01*
X256476000Y-129348324D01*
X256438675Y-129352000D01*
X256438667Y-129352000D01*
X256327014Y-129362997D01*
X256183753Y-129406454D01*
X256051724Y-129477026D01*
X255935999Y-129571999D01*
X255912201Y-129600997D01*
X252944199Y-132569000D01*
X252882061Y-132569000D01*
X252682102Y-132608774D01*
X252493744Y-132686795D01*
X252324226Y-132800063D01*
X252180063Y-132944226D01*
X252066795Y-133113744D01*
X251988774Y-133302102D01*
X251949000Y-133502061D01*
X251949000Y-133705939D01*
X251988774Y-133905898D01*
X252066795Y-134094256D01*
X252180063Y-134263774D01*
X252324226Y-134407937D01*
X252493744Y-134521205D01*
X252682102Y-134599226D01*
X252882061Y-134639000D01*
X253085939Y-134639000D01*
X253285898Y-134599226D01*
X253474256Y-134521205D01*
X253643774Y-134407937D01*
X253787937Y-134263774D01*
X253901205Y-134094256D01*
X253978916Y-133906645D01*
X254455000Y-133906645D01*
X254455000Y-134317355D01*
X254535126Y-134720172D01*
X254692297Y-135099618D01*
X254920475Y-135441110D01*
X255210890Y-135731525D01*
X255552382Y-135959703D01*
X255931828Y-136116874D01*
X256334645Y-136197000D01*
X256745355Y-136197000D01*
X257148172Y-136116874D01*
X257527618Y-135959703D01*
X257869110Y-135731525D01*
X258159525Y-135441110D01*
X258387703Y-135099618D01*
X258544874Y-134720172D01*
X258625000Y-134317355D01*
X258625000Y-133906645D01*
X258544874Y-133503828D01*
X258387703Y-133124382D01*
X258159525Y-132782890D01*
X257869110Y-132492475D01*
X257527618Y-132264297D01*
X257148172Y-132107126D01*
X256745355Y-132027000D01*
X256334645Y-132027000D01*
X255931828Y-132107126D01*
X255552382Y-132264297D01*
X255210890Y-132492475D01*
X254920475Y-132782890D01*
X254692297Y-133124382D01*
X254535126Y-133503828D01*
X254455000Y-133906645D01*
X253978916Y-133906645D01*
X253979226Y-133905898D01*
X254019000Y-133705939D01*
X254019000Y-133643801D01*
X256790802Y-130872000D01*
X258327417Y-130872000D01*
X258470750Y-131218037D01*
X258726287Y-131600476D01*
X259051524Y-131925713D01*
X259433963Y-132181250D01*
X259858906Y-132357267D01*
X260310023Y-132447000D01*
X260769977Y-132447000D01*
X261221094Y-132357267D01*
X261646037Y-132181250D01*
X262028476Y-131925713D01*
X262353713Y-131600476D01*
X262609250Y-131218037D01*
X262738000Y-130907206D01*
X262738001Y-137319300D01*
X262694092Y-137181947D01*
X262510060Y-136837648D01*
X262174023Y-136657582D01*
X260719605Y-138112000D01*
X262174023Y-139566418D01*
X262510060Y-139386352D01*
X262720820Y-138977526D01*
X262738001Y-138917698D01*
X262738001Y-149692135D01*
X260635750Y-149695000D01*
X260477000Y-149853750D01*
X260477000Y-151003000D01*
X260497000Y-151003000D01*
X260497000Y-151257000D01*
X260477000Y-151257000D01*
X260477000Y-152406250D01*
X260635750Y-152565000D01*
X262738001Y-152567865D01*
X262738001Y-155232135D01*
X260635750Y-155235000D01*
X260477000Y-155393750D01*
X260477000Y-156543000D01*
X260497000Y-156543000D01*
X260497000Y-156797000D01*
X260477000Y-156797000D01*
X260477000Y-157946250D01*
X260635750Y-158105000D01*
X262738001Y-158107865D01*
X262738001Y-163170000D01*
X212750000Y-163170000D01*
X212750000Y-159760475D01*
X213265000Y-159760475D01*
X213265000Y-160279525D01*
X213366261Y-160788601D01*
X213564893Y-161268141D01*
X213853262Y-161699715D01*
X214220285Y-162066738D01*
X214651859Y-162355107D01*
X215131399Y-162553739D01*
X215640475Y-162655000D01*
X216159525Y-162655000D01*
X216668601Y-162553739D01*
X217148141Y-162355107D01*
X217579715Y-162066738D01*
X217946738Y-161699715D01*
X218235107Y-161268141D01*
X218433739Y-160788601D01*
X218535000Y-160279525D01*
X218535000Y-159760475D01*
X249079000Y-159760475D01*
X249079000Y-160279525D01*
X249180261Y-160788601D01*
X249378893Y-161268141D01*
X249667262Y-161699715D01*
X250034285Y-162066738D01*
X250465859Y-162355107D01*
X250945399Y-162553739D01*
X251454475Y-162655000D01*
X251973525Y-162655000D01*
X252482601Y-162553739D01*
X252962141Y-162355107D01*
X253393715Y-162066738D01*
X253760738Y-161699715D01*
X254049107Y-161268141D01*
X254247739Y-160788601D01*
X254349000Y-160279525D01*
X254349000Y-159760475D01*
X254247739Y-159251399D01*
X254049107Y-158771859D01*
X253760738Y-158340285D01*
X253393715Y-157973262D01*
X252962141Y-157684893D01*
X252482601Y-157486261D01*
X251973525Y-157385000D01*
X251454475Y-157385000D01*
X250945399Y-157486261D01*
X250465859Y-157684893D01*
X250034285Y-157973262D01*
X249667262Y-158340285D01*
X249378893Y-158771859D01*
X249180261Y-159251399D01*
X249079000Y-159760475D01*
X218535000Y-159760475D01*
X218433739Y-159251399D01*
X218235107Y-158771859D01*
X217946738Y-158340285D01*
X217579715Y-157973262D01*
X217148141Y-157684893D01*
X216668601Y-157486261D01*
X216159525Y-157385000D01*
X215640475Y-157385000D01*
X215131399Y-157486261D01*
X214651859Y-157684893D01*
X214220285Y-157973262D01*
X213853262Y-158340285D01*
X213564893Y-158771859D01*
X213366261Y-159251399D01*
X213265000Y-159760475D01*
X212750000Y-159760475D01*
X212750000Y-157017750D01*
X256250000Y-157017750D01*
X256261807Y-157122990D01*
X256300507Y-157241937D01*
X256361669Y-157351048D01*
X256442942Y-157446131D01*
X256541203Y-157523531D01*
X256652676Y-157580274D01*
X256773077Y-157614179D01*
X256897779Y-157623944D01*
X257074250Y-157621000D01*
X257176709Y-157518541D01*
X257184188Y-157594482D01*
X257220498Y-157714180D01*
X257279463Y-157824494D01*
X257358815Y-157921185D01*
X257455506Y-158000537D01*
X257565820Y-158059502D01*
X257685518Y-158095812D01*
X257810000Y-158108072D01*
X260064250Y-158105000D01*
X260223000Y-157946250D01*
X260223000Y-156797000D01*
X257333750Y-156797000D01*
X257233000Y-156897750D01*
X257233000Y-156859000D01*
X256408750Y-156859000D01*
X256250000Y-157017750D01*
X212750000Y-157017750D01*
X212750000Y-156494250D01*
X256250000Y-156494250D01*
X256408750Y-156653000D01*
X257233000Y-156653000D01*
X257233000Y-156609000D01*
X257487000Y-156609000D01*
X257487000Y-156653000D01*
X258311250Y-156653000D01*
X258421250Y-156543000D01*
X260223000Y-156543000D01*
X260223000Y-155393750D01*
X260064250Y-155235000D01*
X257810000Y-155231928D01*
X257685518Y-155244188D01*
X257565820Y-155280498D01*
X257455506Y-155339463D01*
X257358815Y-155418815D01*
X257279463Y-155515506D01*
X257220498Y-155625820D01*
X257184188Y-155745518D01*
X257171928Y-155870000D01*
X257172641Y-155989391D01*
X257074250Y-155891000D01*
X256897779Y-155888056D01*
X256773077Y-155897821D01*
X256652676Y-155931726D01*
X256541203Y-155988469D01*
X256442942Y-156065869D01*
X256361669Y-156160952D01*
X256300507Y-156270063D01*
X256261807Y-156389010D01*
X256250000Y-156494250D01*
X212750000Y-156494250D01*
X212750000Y-151305750D01*
X256250000Y-151305750D01*
X256261807Y-151410990D01*
X256300507Y-151529937D01*
X256361669Y-151639048D01*
X256442942Y-151734131D01*
X256541203Y-151811531D01*
X256652676Y-151868274D01*
X256773077Y-151902179D01*
X256897779Y-151911944D01*
X257074250Y-151909000D01*
X257172641Y-151810609D01*
X257171928Y-151930000D01*
X257184188Y-152054482D01*
X257220498Y-152174180D01*
X257279463Y-152284494D01*
X257358815Y-152381185D01*
X257455506Y-152460537D01*
X257565820Y-152519502D01*
X257685518Y-152555812D01*
X257810000Y-152568072D01*
X260064250Y-152565000D01*
X260223000Y-152406250D01*
X260223000Y-151257000D01*
X258421250Y-151257000D01*
X258311250Y-151147000D01*
X257487000Y-151147000D01*
X257487000Y-151191000D01*
X257233000Y-151191000D01*
X257233000Y-151147000D01*
X256408750Y-151147000D01*
X256250000Y-151305750D01*
X212750000Y-151305750D01*
X212750000Y-150782250D01*
X256250000Y-150782250D01*
X256408750Y-150941000D01*
X257233000Y-150941000D01*
X257233000Y-150902250D01*
X257333750Y-151003000D01*
X260223000Y-151003000D01*
X260223000Y-149853750D01*
X260064250Y-149695000D01*
X257810000Y-149691928D01*
X257685518Y-149704188D01*
X257565820Y-149740498D01*
X257455506Y-149799463D01*
X257358815Y-149878815D01*
X257279463Y-149975506D01*
X257220498Y-150085820D01*
X257184188Y-150205518D01*
X257176709Y-150281459D01*
X257074250Y-150179000D01*
X256897779Y-150176056D01*
X256773077Y-150185821D01*
X256652676Y-150219726D01*
X256541203Y-150276469D01*
X256442942Y-150353869D01*
X256361669Y-150448952D01*
X256300507Y-150558063D01*
X256261807Y-150677010D01*
X256250000Y-150782250D01*
X212750000Y-150782250D01*
X212750000Y-146438026D01*
X212852000Y-146448072D01*
X215106250Y-146445000D01*
X215265000Y-146286250D01*
X215265000Y-145137000D01*
X215519000Y-145137000D01*
X215519000Y-146286250D01*
X215677750Y-146445000D01*
X217932000Y-146448072D01*
X218056482Y-146435812D01*
X218176180Y-146399502D01*
X218286494Y-146340537D01*
X218383185Y-146261185D01*
X218462537Y-146164494D01*
X218521502Y-146054180D01*
X218557812Y-145934482D01*
X218565291Y-145858541D01*
X218667750Y-145961000D01*
X218844221Y-145963944D01*
X218968923Y-145954179D01*
X219089324Y-145920274D01*
X219200797Y-145863531D01*
X219299058Y-145786131D01*
X219380331Y-145691048D01*
X219441493Y-145581937D01*
X219480193Y-145462990D01*
X219492000Y-145357750D01*
X219333250Y-145199000D01*
X218509000Y-145199000D01*
X218509000Y-145237750D01*
X218408250Y-145137000D01*
X215519000Y-145137000D01*
X215265000Y-145137000D01*
X215245000Y-145137000D01*
X215245000Y-144883000D01*
X215265000Y-144883000D01*
X215265000Y-143733750D01*
X215519000Y-143733750D01*
X215519000Y-144883000D01*
X217320750Y-144883000D01*
X217430750Y-144993000D01*
X218255000Y-144993000D01*
X218255000Y-144949000D01*
X218509000Y-144949000D01*
X218509000Y-144993000D01*
X219333250Y-144993000D01*
X219492000Y-144834250D01*
X219480193Y-144729010D01*
X219441493Y-144610063D01*
X219380331Y-144500952D01*
X219299058Y-144405869D01*
X219200797Y-144328469D01*
X219089324Y-144271726D01*
X218968923Y-144237821D01*
X218844221Y-144228056D01*
X218667750Y-144231000D01*
X218569359Y-144329391D01*
X218570072Y-144210000D01*
X218557812Y-144085518D01*
X218521502Y-143965820D01*
X218462537Y-143855506D01*
X218383185Y-143758815D01*
X218286494Y-143679463D01*
X218176180Y-143620498D01*
X218056482Y-143584188D01*
X217932000Y-143571928D01*
X215677750Y-143575000D01*
X215519000Y-143733750D01*
X215265000Y-143733750D01*
X215106250Y-143575000D01*
X212852000Y-143571928D01*
X212750000Y-143581974D01*
X212750000Y-140898026D01*
X212852000Y-140908072D01*
X215106250Y-140905000D01*
X215265000Y-140746250D01*
X215265000Y-139597000D01*
X215519000Y-139597000D01*
X215519000Y-140746250D01*
X215677750Y-140905000D01*
X217932000Y-140908072D01*
X218056482Y-140895812D01*
X218176180Y-140859502D01*
X218286494Y-140800537D01*
X218383185Y-140721185D01*
X218462537Y-140624494D01*
X218521502Y-140514180D01*
X218557812Y-140394482D01*
X218570072Y-140270000D01*
X218569359Y-140150609D01*
X218667750Y-140249000D01*
X218844221Y-140251944D01*
X218968923Y-140242179D01*
X219089324Y-140208274D01*
X219200797Y-140151531D01*
X219299058Y-140074131D01*
X219380331Y-139979048D01*
X219441493Y-139869937D01*
X219480193Y-139750990D01*
X219492000Y-139645750D01*
X219333250Y-139487000D01*
X218509000Y-139487000D01*
X218509000Y-139531000D01*
X218255000Y-139531000D01*
X218255000Y-139487000D01*
X217430750Y-139487000D01*
X217320750Y-139597000D01*
X215519000Y-139597000D01*
X215265000Y-139597000D01*
X215245000Y-139597000D01*
X215245000Y-139343000D01*
X215265000Y-139343000D01*
X215265000Y-138193750D01*
X215519000Y-138193750D01*
X215519000Y-139343000D01*
X218408250Y-139343000D01*
X218509000Y-139242250D01*
X218509000Y-139281000D01*
X219333250Y-139281000D01*
X219492000Y-139122250D01*
X219481759Y-139030967D01*
X222647000Y-139030967D01*
X222647000Y-139353033D01*
X222709832Y-139668912D01*
X222833082Y-139966463D01*
X223012013Y-140234252D01*
X223239748Y-140461987D01*
X223507537Y-140640918D01*
X223805088Y-140764168D01*
X224120967Y-140827000D01*
X224443033Y-140827000D01*
X224758912Y-140764168D01*
X225056463Y-140640918D01*
X225324252Y-140461987D01*
X225551987Y-140234252D01*
X225730918Y-139966463D01*
X225854168Y-139668912D01*
X225917000Y-139353033D01*
X225917000Y-139030967D01*
X225854168Y-138715088D01*
X225730918Y-138417537D01*
X225551987Y-138149748D01*
X225324252Y-137922013D01*
X225056463Y-137743082D01*
X224758912Y-137619832D01*
X224443033Y-137557000D01*
X224120967Y-137557000D01*
X223805088Y-137619832D01*
X223507537Y-137743082D01*
X223239748Y-137922013D01*
X223012013Y-138149748D01*
X222833082Y-138417537D01*
X222709832Y-138715088D01*
X222647000Y-139030967D01*
X219481759Y-139030967D01*
X219480193Y-139017010D01*
X219441493Y-138898063D01*
X219380331Y-138788952D01*
X219299058Y-138693869D01*
X219200797Y-138616469D01*
X219089324Y-138559726D01*
X218968923Y-138525821D01*
X218844221Y-138516056D01*
X218667750Y-138519000D01*
X218565291Y-138621459D01*
X218557812Y-138545518D01*
X218521502Y-138425820D01*
X218462537Y-138315506D01*
X218383185Y-138218815D01*
X218286494Y-138139463D01*
X218176180Y-138080498D01*
X218056482Y-138044188D01*
X217932000Y-138031928D01*
X215677750Y-138035000D01*
X215519000Y-138193750D01*
X215265000Y-138193750D01*
X215106250Y-138035000D01*
X212852000Y-138031928D01*
X212750000Y-138041974D01*
X212750000Y-133502061D01*
X227057000Y-133502061D01*
X227057000Y-133705939D01*
X227096774Y-133905898D01*
X227174795Y-134094256D01*
X227288063Y-134263774D01*
X227432226Y-134407937D01*
X227601744Y-134521205D01*
X227790102Y-134599226D01*
X227990061Y-134639000D01*
X228193939Y-134639000D01*
X228393898Y-134599226D01*
X228582256Y-134521205D01*
X228751774Y-134407937D01*
X228795711Y-134364000D01*
X231198289Y-134364000D01*
X231242226Y-134407937D01*
X231411744Y-134521205D01*
X231536214Y-134572763D01*
X231492795Y-134637744D01*
X231414774Y-134826102D01*
X231375000Y-135026061D01*
X231375000Y-135229939D01*
X231414774Y-135429898D01*
X231492795Y-135618256D01*
X231606063Y-135787774D01*
X231750226Y-135931937D01*
X231919744Y-136045205D01*
X232108102Y-136123226D01*
X232308061Y-136163000D01*
X232511939Y-136163000D01*
X232711898Y-136123226D01*
X232725205Y-136117714D01*
X232769014Y-136131003D01*
X232776356Y-136131726D01*
X232788528Y-136171851D01*
X232870595Y-136325387D01*
X232981038Y-136459962D01*
X233051287Y-136517614D01*
X232963038Y-136590038D01*
X232852595Y-136724613D01*
X232770528Y-136878149D01*
X232719992Y-137044745D01*
X232702928Y-137217999D01*
X232702928Y-137824270D01*
X231377376Y-139149823D01*
X231362912Y-139143832D01*
X231047033Y-139081000D01*
X230724967Y-139081000D01*
X230409088Y-139143832D01*
X230111537Y-139267082D01*
X229843748Y-139446013D01*
X229616013Y-139673748D01*
X229437082Y-139941537D01*
X229313832Y-140239088D01*
X229251000Y-140554967D01*
X229251000Y-140877033D01*
X229313832Y-141192912D01*
X229437082Y-141490463D01*
X229616013Y-141758252D01*
X229843748Y-141985987D01*
X230111537Y-142164918D01*
X230409088Y-142288168D01*
X230724967Y-142351000D01*
X231047033Y-142351000D01*
X231362912Y-142288168D01*
X231660463Y-142164918D01*
X231928252Y-141985987D01*
X232155987Y-141758252D01*
X232334918Y-141490463D01*
X232458168Y-141192912D01*
X232521000Y-140877033D01*
X232521000Y-140554967D01*
X232458168Y-140239088D01*
X232452177Y-140224624D01*
X233391834Y-139284967D01*
X237633000Y-139284967D01*
X237633000Y-139607033D01*
X237695832Y-139922912D01*
X237819082Y-140220463D01*
X237998013Y-140488252D01*
X238225748Y-140715987D01*
X238493537Y-140894918D01*
X238791088Y-141018168D01*
X239106967Y-141081000D01*
X239429033Y-141081000D01*
X239744912Y-141018168D01*
X240042463Y-140894918D01*
X240310252Y-140715987D01*
X240537987Y-140488252D01*
X240716918Y-140220463D01*
X240840168Y-139922912D01*
X240875353Y-139746023D01*
X259085582Y-139746023D01*
X259265648Y-140082060D01*
X259674474Y-140292820D01*
X260116562Y-140419772D01*
X260574922Y-140458037D01*
X261031940Y-140406146D01*
X261470053Y-140266092D01*
X261814352Y-140082060D01*
X261994418Y-139746023D01*
X260540000Y-138291605D01*
X259085582Y-139746023D01*
X240875353Y-139746023D01*
X240903000Y-139607033D01*
X240903000Y-139284967D01*
X240840168Y-138969088D01*
X240716918Y-138671537D01*
X240537987Y-138403748D01*
X240310252Y-138176013D01*
X240266715Y-138146922D01*
X258193963Y-138146922D01*
X258245854Y-138603940D01*
X258385908Y-139042053D01*
X258569940Y-139386352D01*
X258905977Y-139566418D01*
X260360395Y-138112000D01*
X258905977Y-136657582D01*
X258569940Y-136837648D01*
X258359180Y-137246474D01*
X258232228Y-137688562D01*
X258193963Y-138146922D01*
X240266715Y-138146922D01*
X240042463Y-137997082D01*
X239744912Y-137873832D01*
X239429033Y-137811000D01*
X239106967Y-137811000D01*
X238791088Y-137873832D01*
X238493537Y-137997082D01*
X238225748Y-138176013D01*
X237998013Y-138403748D01*
X237819082Y-138671537D01*
X237695832Y-138969088D01*
X237633000Y-139284967D01*
X233391834Y-139284967D01*
X233670730Y-139006072D01*
X234241001Y-139006072D01*
X234414255Y-138989008D01*
X234580851Y-138938472D01*
X234734387Y-138856405D01*
X234868962Y-138745962D01*
X234941000Y-138658184D01*
X235013038Y-138745962D01*
X235147613Y-138856405D01*
X235301149Y-138938472D01*
X235467745Y-138989008D01*
X235640999Y-139006072D01*
X236291001Y-139006072D01*
X236464255Y-138989008D01*
X236630851Y-138938472D01*
X236784387Y-138856405D01*
X236918962Y-138745962D01*
X236979458Y-138672248D01*
X237134061Y-138703000D01*
X237337939Y-138703000D01*
X237537898Y-138663226D01*
X237726256Y-138585205D01*
X237895774Y-138471937D01*
X238039937Y-138327774D01*
X238153205Y-138158256D01*
X238231226Y-137969898D01*
X238271000Y-137769939D01*
X238271000Y-137566061D01*
X238231226Y-137366102D01*
X238153205Y-137177744D01*
X238039937Y-137008226D01*
X237895774Y-136864063D01*
X237726256Y-136750795D01*
X237537898Y-136672774D01*
X237337939Y-136633000D01*
X237134061Y-136633000D01*
X236979458Y-136663752D01*
X236918962Y-136590038D01*
X236848713Y-136532386D01*
X236915010Y-136477977D01*
X259085582Y-136477977D01*
X260540000Y-137932395D01*
X261994418Y-136477977D01*
X261814352Y-136141940D01*
X261405526Y-135931180D01*
X260963438Y-135804228D01*
X260505078Y-135765963D01*
X260048060Y-135817854D01*
X259609947Y-135957908D01*
X259265648Y-136141940D01*
X259085582Y-136477977D01*
X236915010Y-136477977D01*
X236936962Y-136459962D01*
X237047405Y-136325387D01*
X237129472Y-136171851D01*
X237180008Y-136005255D01*
X237197072Y-135832001D01*
X237197072Y-134931999D01*
X237180008Y-134758745D01*
X237129472Y-134592149D01*
X237047405Y-134438613D01*
X236978813Y-134355033D01*
X237029405Y-134293387D01*
X237111472Y-134139851D01*
X237116097Y-134124603D01*
X237283898Y-134091226D01*
X237472256Y-134013205D01*
X237641774Y-133899937D01*
X237785937Y-133755774D01*
X237899205Y-133586256D01*
X237977226Y-133397898D01*
X238017000Y-133197939D01*
X238017000Y-132994061D01*
X237977226Y-132794102D01*
X237899205Y-132605744D01*
X237802490Y-132461000D01*
X237899205Y-132316256D01*
X237977226Y-132127898D01*
X238017000Y-131927939D01*
X238017000Y-131724061D01*
X237977226Y-131524102D01*
X237899205Y-131335744D01*
X237785937Y-131166226D01*
X237742000Y-131122289D01*
X237742000Y-131101332D01*
X237745677Y-131064000D01*
X237731003Y-130915014D01*
X237687546Y-130771753D01*
X237616974Y-130639724D01*
X237522001Y-130523999D01*
X237406276Y-130429026D01*
X237274247Y-130358454D01*
X237130986Y-130314997D01*
X237123644Y-130314274D01*
X237111472Y-130274149D01*
X237029405Y-130120613D01*
X236969813Y-130048000D01*
X237029405Y-129975387D01*
X237111472Y-129821851D01*
X237162008Y-129655255D01*
X237179072Y-129482001D01*
X237179072Y-128581999D01*
X237162008Y-128408745D01*
X237111472Y-128242149D01*
X237029405Y-128088613D01*
X236918962Y-127954038D01*
X236784387Y-127843595D01*
X236630851Y-127761528D01*
X236464255Y-127710992D01*
X236291001Y-127693928D01*
X235640999Y-127693928D01*
X235467745Y-127710992D01*
X235301149Y-127761528D01*
X235147613Y-127843595D01*
X235013038Y-127954038D01*
X234941000Y-128041816D01*
X234868962Y-127954038D01*
X234734387Y-127843595D01*
X234580851Y-127761528D01*
X234468738Y-127727519D01*
X234456001Y-127711999D01*
X234427003Y-127688201D01*
X234339769Y-127600967D01*
X237633000Y-127600967D01*
X237633000Y-127923033D01*
X237695832Y-128238912D01*
X237819082Y-128536463D01*
X237998013Y-128804252D01*
X238225748Y-129031987D01*
X238493537Y-129210918D01*
X238791088Y-129334168D01*
X239106967Y-129397000D01*
X239429033Y-129397000D01*
X239744912Y-129334168D01*
X240042463Y-129210918D01*
X240310252Y-129031987D01*
X240537987Y-128804252D01*
X240716918Y-128536463D01*
X240840168Y-128238912D01*
X240903000Y-127923033D01*
X240903000Y-127600967D01*
X240840168Y-127285088D01*
X240716918Y-126987537D01*
X240537987Y-126719748D01*
X240310252Y-126492013D01*
X240042463Y-126313082D01*
X239744912Y-126189832D01*
X239429033Y-126127000D01*
X239106967Y-126127000D01*
X238791088Y-126189832D01*
X238493537Y-126313082D01*
X238225748Y-126492013D01*
X237998013Y-126719748D01*
X237819082Y-126987537D01*
X237695832Y-127285088D01*
X237633000Y-127600967D01*
X234339769Y-127600967D01*
X232706177Y-125967376D01*
X232712168Y-125952912D01*
X232775000Y-125637033D01*
X232775000Y-125314967D01*
X232712168Y-124999088D01*
X232588918Y-124701537D01*
X232409987Y-124433748D01*
X232182252Y-124206013D01*
X231914463Y-124027082D01*
X231616912Y-123903832D01*
X231301033Y-123841000D01*
X230978967Y-123841000D01*
X230663088Y-123903832D01*
X230365537Y-124027082D01*
X230097748Y-124206013D01*
X229870013Y-124433748D01*
X229691082Y-124701537D01*
X229567832Y-124999088D01*
X229505000Y-125314967D01*
X229505000Y-125637033D01*
X229567832Y-125952912D01*
X229691082Y-126250463D01*
X229870013Y-126518252D01*
X230097748Y-126745987D01*
X230365537Y-126924918D01*
X230517405Y-126987824D01*
X230506378Y-126993718D01*
X230333552Y-127135553D01*
X230191717Y-127308379D01*
X230086325Y-127505555D01*
X230021424Y-127719503D01*
X230005001Y-127886250D01*
X230005000Y-131373751D01*
X230021423Y-131540498D01*
X230086324Y-131754446D01*
X230191716Y-131951623D01*
X230333551Y-132124449D01*
X230506377Y-132266284D01*
X230703553Y-132371676D01*
X230917501Y-132436577D01*
X231140000Y-132458491D01*
X231179472Y-132454603D01*
X231411696Y-132686827D01*
X231242226Y-132800063D01*
X231198289Y-132844000D01*
X228795711Y-132844000D01*
X228751774Y-132800063D01*
X228582256Y-132686795D01*
X228393898Y-132608774D01*
X228193939Y-132569000D01*
X227990061Y-132569000D01*
X227790102Y-132608774D01*
X227601744Y-132686795D01*
X227432226Y-132800063D01*
X227288063Y-132944226D01*
X227174795Y-133113744D01*
X227096774Y-133302102D01*
X227057000Y-133502061D01*
X212750000Y-133502061D01*
X212750000Y-128658026D01*
X212852000Y-128668072D01*
X215106250Y-128665000D01*
X215265000Y-128506250D01*
X215265000Y-127357000D01*
X215519000Y-127357000D01*
X215519000Y-128506250D01*
X215677750Y-128665000D01*
X217932000Y-128668072D01*
X218056482Y-128655812D01*
X218176180Y-128619502D01*
X218286494Y-128560537D01*
X218383185Y-128481185D01*
X218462537Y-128384494D01*
X218521502Y-128274180D01*
X218557812Y-128154482D01*
X218565291Y-128078541D01*
X218667750Y-128181000D01*
X218844221Y-128183944D01*
X218968923Y-128174179D01*
X219089324Y-128140274D01*
X219200797Y-128083531D01*
X219299058Y-128006131D01*
X219380331Y-127911048D01*
X219441493Y-127801937D01*
X219480193Y-127682990D01*
X219492000Y-127577750D01*
X219333250Y-127419000D01*
X218509000Y-127419000D01*
X218509000Y-127457750D01*
X218408250Y-127357000D01*
X215519000Y-127357000D01*
X215265000Y-127357000D01*
X215245000Y-127357000D01*
X215245000Y-127103000D01*
X215265000Y-127103000D01*
X215265000Y-125953750D01*
X215519000Y-125953750D01*
X215519000Y-127103000D01*
X217320750Y-127103000D01*
X217430750Y-127213000D01*
X218255000Y-127213000D01*
X218255000Y-127169000D01*
X218509000Y-127169000D01*
X218509000Y-127213000D01*
X219333250Y-127213000D01*
X219492000Y-127054250D01*
X219480193Y-126949010D01*
X219441493Y-126830063D01*
X219380331Y-126720952D01*
X219299058Y-126625869D01*
X219200797Y-126548469D01*
X219089324Y-126491726D01*
X218968923Y-126457821D01*
X218844221Y-126448056D01*
X218667750Y-126451000D01*
X218569359Y-126549391D01*
X218570072Y-126430000D01*
X218557812Y-126305518D01*
X218521502Y-126185820D01*
X218462537Y-126075506D01*
X218383185Y-125978815D01*
X218286494Y-125899463D01*
X218176180Y-125840498D01*
X218118389Y-125822967D01*
X222647000Y-125822967D01*
X222647000Y-126145033D01*
X222709832Y-126460912D01*
X222833082Y-126758463D01*
X223012013Y-127026252D01*
X223239748Y-127253987D01*
X223507537Y-127432918D01*
X223805088Y-127556168D01*
X224120967Y-127619000D01*
X224443033Y-127619000D01*
X224758912Y-127556168D01*
X225056463Y-127432918D01*
X225324252Y-127253987D01*
X225551987Y-127026252D01*
X225730918Y-126758463D01*
X225854168Y-126460912D01*
X225917000Y-126145033D01*
X225917000Y-125822967D01*
X225854168Y-125507088D01*
X225730918Y-125209537D01*
X225551987Y-124941748D01*
X225324252Y-124714013D01*
X225056463Y-124535082D01*
X224758912Y-124411832D01*
X224443033Y-124349000D01*
X224120967Y-124349000D01*
X223805088Y-124411832D01*
X223507537Y-124535082D01*
X223239748Y-124714013D01*
X223012013Y-124941748D01*
X222833082Y-125209537D01*
X222709832Y-125507088D01*
X222647000Y-125822967D01*
X218118389Y-125822967D01*
X218056482Y-125804188D01*
X217932000Y-125791928D01*
X215677750Y-125795000D01*
X215519000Y-125953750D01*
X215265000Y-125953750D01*
X215106250Y-125795000D01*
X212852000Y-125791928D01*
X212750000Y-125801974D01*
X212750000Y-123118026D01*
X212852000Y-123128072D01*
X215106250Y-123125000D01*
X215265000Y-122966250D01*
X215265000Y-121817000D01*
X215519000Y-121817000D01*
X215519000Y-122966250D01*
X215677750Y-123125000D01*
X217932000Y-123128072D01*
X218056482Y-123115812D01*
X218176180Y-123079502D01*
X218286494Y-123020537D01*
X218383185Y-122941185D01*
X218462537Y-122844494D01*
X218521502Y-122734180D01*
X218557812Y-122614482D01*
X218570072Y-122490000D01*
X218569359Y-122370609D01*
X218667750Y-122469000D01*
X218844221Y-122471944D01*
X218968923Y-122462179D01*
X219089324Y-122428274D01*
X219200797Y-122371531D01*
X219299058Y-122294131D01*
X219380331Y-122199048D01*
X219441493Y-122089937D01*
X219480193Y-121970990D01*
X219492000Y-121865750D01*
X219333250Y-121707000D01*
X218509000Y-121707000D01*
X218509000Y-121751000D01*
X218255000Y-121751000D01*
X218255000Y-121707000D01*
X217430750Y-121707000D01*
X217320750Y-121817000D01*
X215519000Y-121817000D01*
X215265000Y-121817000D01*
X215245000Y-121817000D01*
X215245000Y-121563000D01*
X215265000Y-121563000D01*
X215265000Y-120413750D01*
X215519000Y-120413750D01*
X215519000Y-121563000D01*
X218408250Y-121563000D01*
X218509000Y-121462250D01*
X218509000Y-121501000D01*
X219333250Y-121501000D01*
X219492000Y-121342250D01*
X219480193Y-121237010D01*
X219441493Y-121118063D01*
X219380331Y-121008952D01*
X219299058Y-120913869D01*
X219200797Y-120836469D01*
X219089324Y-120779726D01*
X218968923Y-120745821D01*
X218844221Y-120736056D01*
X218667750Y-120739000D01*
X218565291Y-120841459D01*
X218557812Y-120765518D01*
X218521502Y-120645820D01*
X218462537Y-120535506D01*
X218383185Y-120438815D01*
X218286494Y-120359463D01*
X218176180Y-120300498D01*
X218056482Y-120264188D01*
X217932000Y-120251928D01*
X215677750Y-120255000D01*
X215519000Y-120413750D01*
X215265000Y-120413750D01*
X215106250Y-120255000D01*
X212852000Y-120251928D01*
X212750000Y-120261974D01*
X212750000Y-109976475D01*
X213011000Y-109976475D01*
X213011000Y-110495525D01*
X213112261Y-111004601D01*
X213310893Y-111484141D01*
X213599262Y-111915715D01*
X213966285Y-112282738D01*
X214397859Y-112571107D01*
X214877399Y-112769739D01*
X215386475Y-112871000D01*
X215905525Y-112871000D01*
X216414601Y-112769739D01*
X216531972Y-112721122D01*
X222377000Y-112721122D01*
X222377000Y-113846878D01*
X222596625Y-114951004D01*
X223027433Y-115991067D01*
X223652870Y-116927100D01*
X224448900Y-117723130D01*
X225384933Y-118348567D01*
X226424996Y-118779375D01*
X227529122Y-118999000D01*
X228654878Y-118999000D01*
X229759004Y-118779375D01*
X230799067Y-118348567D01*
X231735100Y-117723130D01*
X231883034Y-117575196D01*
X237442409Y-117575196D01*
X238028124Y-118257416D01*
X239011704Y-118805045D01*
X240083223Y-119150265D01*
X241201501Y-119279808D01*
X242323565Y-119188697D01*
X243406294Y-118880433D01*
X244408079Y-118366863D01*
X244571876Y-118257416D01*
X245054090Y-117695750D01*
X256250000Y-117695750D01*
X256261807Y-117800990D01*
X256300507Y-117919937D01*
X256361669Y-118029048D01*
X256442942Y-118124131D01*
X256541203Y-118201531D01*
X256652676Y-118258274D01*
X256773077Y-118292179D01*
X256897779Y-118301944D01*
X257074250Y-118299000D01*
X257176709Y-118196541D01*
X257184188Y-118272482D01*
X257220498Y-118392180D01*
X257279463Y-118502494D01*
X257358815Y-118599185D01*
X257455506Y-118678537D01*
X257565820Y-118737502D01*
X257685518Y-118773812D01*
X257810000Y-118786072D01*
X260064250Y-118783000D01*
X260223000Y-118624250D01*
X260223000Y-117475000D01*
X257333750Y-117475000D01*
X257233000Y-117575750D01*
X257233000Y-117537000D01*
X256408750Y-117537000D01*
X256250000Y-117695750D01*
X245054090Y-117695750D01*
X245157591Y-117575196D01*
X241300000Y-113717605D01*
X237442409Y-117575196D01*
X231883034Y-117575196D01*
X232531130Y-116927100D01*
X233156567Y-115991067D01*
X233587375Y-114951004D01*
X233807000Y-113846878D01*
X233807000Y-113439501D01*
X235558192Y-113439501D01*
X235649303Y-114561565D01*
X235957567Y-115644294D01*
X236471137Y-116646079D01*
X236580584Y-116809876D01*
X237262804Y-117395591D01*
X241120395Y-113538000D01*
X241479605Y-113538000D01*
X245337196Y-117395591D01*
X245597335Y-117172250D01*
X256250000Y-117172250D01*
X256408750Y-117331000D01*
X257233000Y-117331000D01*
X257233000Y-117287000D01*
X257487000Y-117287000D01*
X257487000Y-117331000D01*
X258311250Y-117331000D01*
X258421250Y-117221000D01*
X260223000Y-117221000D01*
X260223000Y-116071750D01*
X260064250Y-115913000D01*
X257810000Y-115909928D01*
X257685518Y-115922188D01*
X257565820Y-115958498D01*
X257455506Y-116017463D01*
X257358815Y-116096815D01*
X257279463Y-116193506D01*
X257220498Y-116303820D01*
X257184188Y-116423518D01*
X257171928Y-116548000D01*
X257172641Y-116667391D01*
X257074250Y-116569000D01*
X256897779Y-116566056D01*
X256773077Y-116575821D01*
X256652676Y-116609726D01*
X256541203Y-116666469D01*
X256442942Y-116743869D01*
X256361669Y-116838952D01*
X256300507Y-116948063D01*
X256261807Y-117067010D01*
X256250000Y-117172250D01*
X245597335Y-117172250D01*
X246019416Y-116809876D01*
X246567045Y-115826296D01*
X246912265Y-114754777D01*
X247041808Y-113636499D01*
X246950697Y-112514435D01*
X246642433Y-111431706D01*
X246128863Y-110429921D01*
X246019416Y-110266124D01*
X245682044Y-109976475D01*
X249587000Y-109976475D01*
X249587000Y-110495525D01*
X249688261Y-111004601D01*
X249886893Y-111484141D01*
X250175262Y-111915715D01*
X250542285Y-112282738D01*
X250973859Y-112571107D01*
X251453399Y-112769739D01*
X251962475Y-112871000D01*
X252481525Y-112871000D01*
X252990601Y-112769739D01*
X253470141Y-112571107D01*
X253901715Y-112282738D01*
X254200703Y-111983750D01*
X256250000Y-111983750D01*
X256261807Y-112088990D01*
X256300507Y-112207937D01*
X256361669Y-112317048D01*
X256442942Y-112412131D01*
X256541203Y-112489531D01*
X256652676Y-112546274D01*
X256773077Y-112580179D01*
X256897779Y-112589944D01*
X257074250Y-112587000D01*
X257172641Y-112488609D01*
X257171928Y-112608000D01*
X257184188Y-112732482D01*
X257220498Y-112852180D01*
X257279463Y-112962494D01*
X257358815Y-113059185D01*
X257455506Y-113138537D01*
X257565820Y-113197502D01*
X257685518Y-113233812D01*
X257810000Y-113246072D01*
X260064250Y-113243000D01*
X260223000Y-113084250D01*
X260223000Y-111935000D01*
X258421250Y-111935000D01*
X258311250Y-111825000D01*
X257487000Y-111825000D01*
X257487000Y-111869000D01*
X257233000Y-111869000D01*
X257233000Y-111825000D01*
X256408750Y-111825000D01*
X256250000Y-111983750D01*
X254200703Y-111983750D01*
X254268738Y-111915715D01*
X254557107Y-111484141D01*
X254567002Y-111460250D01*
X256250000Y-111460250D01*
X256408750Y-111619000D01*
X257233000Y-111619000D01*
X257233000Y-111580250D01*
X257333750Y-111681000D01*
X260223000Y-111681000D01*
X260223000Y-110531750D01*
X260064250Y-110373000D01*
X257810000Y-110369928D01*
X257685518Y-110382188D01*
X257565820Y-110418498D01*
X257455506Y-110477463D01*
X257358815Y-110556815D01*
X257279463Y-110653506D01*
X257220498Y-110763820D01*
X257184188Y-110883518D01*
X257176709Y-110959459D01*
X257074250Y-110857000D01*
X256897779Y-110854056D01*
X256773077Y-110863821D01*
X256652676Y-110897726D01*
X256541203Y-110954469D01*
X256442942Y-111031869D01*
X256361669Y-111126952D01*
X256300507Y-111236063D01*
X256261807Y-111355010D01*
X256250000Y-111460250D01*
X254567002Y-111460250D01*
X254755739Y-111004601D01*
X254857000Y-110495525D01*
X254857000Y-109976475D01*
X254755739Y-109467399D01*
X254557107Y-108987859D01*
X254268738Y-108556285D01*
X253901715Y-108189262D01*
X253470141Y-107900893D01*
X252990601Y-107702261D01*
X252481525Y-107601000D01*
X251962475Y-107601000D01*
X251453399Y-107702261D01*
X250973859Y-107900893D01*
X250542285Y-108189262D01*
X250175262Y-108556285D01*
X249886893Y-108987859D01*
X249688261Y-109467399D01*
X249587000Y-109976475D01*
X245682044Y-109976475D01*
X245337196Y-109680409D01*
X241479605Y-113538000D01*
X241120395Y-113538000D01*
X237262804Y-109680409D01*
X236580584Y-110266124D01*
X236032955Y-111249704D01*
X235687735Y-112321223D01*
X235558192Y-113439501D01*
X233807000Y-113439501D01*
X233807000Y-112721122D01*
X233587375Y-111616996D01*
X233156567Y-110576933D01*
X232531130Y-109640900D01*
X232391034Y-109500804D01*
X237442409Y-109500804D01*
X241300000Y-113358395D01*
X245157591Y-109500804D01*
X244571876Y-108818584D01*
X243588296Y-108270955D01*
X242516777Y-107925735D01*
X241398499Y-107796192D01*
X240276435Y-107887303D01*
X239193706Y-108195567D01*
X238191921Y-108709137D01*
X238028124Y-108818584D01*
X237442409Y-109500804D01*
X232391034Y-109500804D01*
X231735100Y-108844870D01*
X230799067Y-108219433D01*
X229759004Y-107788625D01*
X228654878Y-107569000D01*
X227529122Y-107569000D01*
X226424996Y-107788625D01*
X225384933Y-108219433D01*
X224448900Y-108844870D01*
X223652870Y-109640900D01*
X223027433Y-110576933D01*
X222596625Y-111616996D01*
X222377000Y-112721122D01*
X216531972Y-112721122D01*
X216894141Y-112571107D01*
X217325715Y-112282738D01*
X217692738Y-111915715D01*
X217981107Y-111484141D01*
X218179739Y-111004601D01*
X218281000Y-110495525D01*
X218281000Y-109976475D01*
X218179739Y-109467399D01*
X217981107Y-108987859D01*
X217692738Y-108556285D01*
X217325715Y-108189262D01*
X216894141Y-107900893D01*
X216414601Y-107702261D01*
X215905525Y-107601000D01*
X215386475Y-107601000D01*
X214877399Y-107702261D01*
X214397859Y-107900893D01*
X213966285Y-108189262D01*
X213599262Y-108556285D01*
X213310893Y-108987859D01*
X213112261Y-109467399D01*
X213011000Y-109976475D01*
X212750000Y-109976475D01*
X212750000Y-107340000D01*
X262738000Y-107340000D01*
X262738000Y-110370135D01*
G37*
X262738000Y-110370135D02*
X260635750Y-110373000D01*
X260477000Y-110531750D01*
X260477000Y-111681000D01*
X260497000Y-111681000D01*
X260497000Y-111935000D01*
X260477000Y-111935000D01*
X260477000Y-113084250D01*
X260635750Y-113243000D01*
X262738000Y-113245865D01*
X262738000Y-115910135D01*
X260635750Y-115913000D01*
X260477000Y-116071750D01*
X260477000Y-117221000D01*
X260497000Y-117221000D01*
X260497000Y-117475000D01*
X260477000Y-117475000D01*
X260477000Y-118624250D01*
X260635750Y-118783000D01*
X262738000Y-118785865D01*
X262738000Y-129316794D01*
X262609250Y-129005963D01*
X262353713Y-128623524D01*
X262028476Y-128298287D01*
X261646037Y-128042750D01*
X261221094Y-127866733D01*
X260769977Y-127777000D01*
X260310023Y-127777000D01*
X259858906Y-127866733D01*
X259433963Y-128042750D01*
X259051524Y-128298287D01*
X258726287Y-128623524D01*
X258470750Y-129005963D01*
X258327417Y-129352000D01*
X256513325Y-129352000D01*
X256476000Y-129348324D01*
X256438675Y-129352000D01*
X256438667Y-129352000D01*
X256327014Y-129362997D01*
X256183753Y-129406454D01*
X256051724Y-129477026D01*
X255935999Y-129571999D01*
X255912201Y-129600997D01*
X252944199Y-132569000D01*
X252882061Y-132569000D01*
X252682102Y-132608774D01*
X252493744Y-132686795D01*
X252324226Y-132800063D01*
X252180063Y-132944226D01*
X252066795Y-133113744D01*
X251988774Y-133302102D01*
X251949000Y-133502061D01*
X251949000Y-133705939D01*
X251988774Y-133905898D01*
X252066795Y-134094256D01*
X252180063Y-134263774D01*
X252324226Y-134407937D01*
X252493744Y-134521205D01*
X252682102Y-134599226D01*
X252882061Y-134639000D01*
X253085939Y-134639000D01*
X253285898Y-134599226D01*
X253474256Y-134521205D01*
X253643774Y-134407937D01*
X253787937Y-134263774D01*
X253901205Y-134094256D01*
X253978916Y-133906645D01*
X254455000Y-133906645D01*
X254455000Y-134317355D01*
X254535126Y-134720172D01*
X254692297Y-135099618D01*
X254920475Y-135441110D01*
X255210890Y-135731525D01*
X255552382Y-135959703D01*
X255931828Y-136116874D01*
X256334645Y-136197000D01*
X256745355Y-136197000D01*
X257148172Y-136116874D01*
X257527618Y-135959703D01*
X257869110Y-135731525D01*
X258159525Y-135441110D01*
X258387703Y-135099618D01*
X258544874Y-134720172D01*
X258625000Y-134317355D01*
X258625000Y-133906645D01*
X258544874Y-133503828D01*
X258387703Y-133124382D01*
X258159525Y-132782890D01*
X257869110Y-132492475D01*
X257527618Y-132264297D01*
X257148172Y-132107126D01*
X256745355Y-132027000D01*
X256334645Y-132027000D01*
X255931828Y-132107126D01*
X255552382Y-132264297D01*
X255210890Y-132492475D01*
X254920475Y-132782890D01*
X254692297Y-133124382D01*
X254535126Y-133503828D01*
X254455000Y-133906645D01*
X253978916Y-133906645D01*
X253979226Y-133905898D01*
X254019000Y-133705939D01*
X254019000Y-133643801D01*
X256790802Y-130872000D01*
X258327417Y-130872000D01*
X258470750Y-131218037D01*
X258726287Y-131600476D01*
X259051524Y-131925713D01*
X259433963Y-132181250D01*
X259858906Y-132357267D01*
X260310023Y-132447000D01*
X260769977Y-132447000D01*
X261221094Y-132357267D01*
X261646037Y-132181250D01*
X262028476Y-131925713D01*
X262353713Y-131600476D01*
X262609250Y-131218037D01*
X262738000Y-130907206D01*
X262738001Y-137319300D01*
X262694092Y-137181947D01*
X262510060Y-136837648D01*
X262174023Y-136657582D01*
X260719605Y-138112000D01*
X262174023Y-139566418D01*
X262510060Y-139386352D01*
X262720820Y-138977526D01*
X262738001Y-138917698D01*
X262738001Y-149692135D01*
X260635750Y-149695000D01*
X260477000Y-149853750D01*
X260477000Y-151003000D01*
X260497000Y-151003000D01*
X260497000Y-151257000D01*
X260477000Y-151257000D01*
X260477000Y-152406250D01*
X260635750Y-152565000D01*
X262738001Y-152567865D01*
X262738001Y-155232135D01*
X260635750Y-155235000D01*
X260477000Y-155393750D01*
X260477000Y-156543000D01*
X260497000Y-156543000D01*
X260497000Y-156797000D01*
X260477000Y-156797000D01*
X260477000Y-157946250D01*
X260635750Y-158105000D01*
X262738001Y-158107865D01*
X262738001Y-163170000D01*
X212750000Y-163170000D01*
X212750000Y-159760475D01*
X213265000Y-159760475D01*
X213265000Y-160279525D01*
X213366261Y-160788601D01*
X213564893Y-161268141D01*
X213853262Y-161699715D01*
X214220285Y-162066738D01*
X214651859Y-162355107D01*
X215131399Y-162553739D01*
X215640475Y-162655000D01*
X216159525Y-162655000D01*
X216668601Y-162553739D01*
X217148141Y-162355107D01*
X217579715Y-162066738D01*
X217946738Y-161699715D01*
X218235107Y-161268141D01*
X218433739Y-160788601D01*
X218535000Y-160279525D01*
X218535000Y-159760475D01*
X249079000Y-159760475D01*
X249079000Y-160279525D01*
X249180261Y-160788601D01*
X249378893Y-161268141D01*
X249667262Y-161699715D01*
X250034285Y-162066738D01*
X250465859Y-162355107D01*
X250945399Y-162553739D01*
X251454475Y-162655000D01*
X251973525Y-162655000D01*
X252482601Y-162553739D01*
X252962141Y-162355107D01*
X253393715Y-162066738D01*
X253760738Y-161699715D01*
X254049107Y-161268141D01*
X254247739Y-160788601D01*
X254349000Y-160279525D01*
X254349000Y-159760475D01*
X254247739Y-159251399D01*
X254049107Y-158771859D01*
X253760738Y-158340285D01*
X253393715Y-157973262D01*
X252962141Y-157684893D01*
X252482601Y-157486261D01*
X251973525Y-157385000D01*
X251454475Y-157385000D01*
X250945399Y-157486261D01*
X250465859Y-157684893D01*
X250034285Y-157973262D01*
X249667262Y-158340285D01*
X249378893Y-158771859D01*
X249180261Y-159251399D01*
X249079000Y-159760475D01*
X218535000Y-159760475D01*
X218433739Y-159251399D01*
X218235107Y-158771859D01*
X217946738Y-158340285D01*
X217579715Y-157973262D01*
X217148141Y-157684893D01*
X216668601Y-157486261D01*
X216159525Y-157385000D01*
X215640475Y-157385000D01*
X215131399Y-157486261D01*
X214651859Y-157684893D01*
X214220285Y-157973262D01*
X213853262Y-158340285D01*
X213564893Y-158771859D01*
X213366261Y-159251399D01*
X213265000Y-159760475D01*
X212750000Y-159760475D01*
X212750000Y-157017750D01*
X256250000Y-157017750D01*
X256261807Y-157122990D01*
X256300507Y-157241937D01*
X256361669Y-157351048D01*
X256442942Y-157446131D01*
X256541203Y-157523531D01*
X256652676Y-157580274D01*
X256773077Y-157614179D01*
X256897779Y-157623944D01*
X257074250Y-157621000D01*
X257176709Y-157518541D01*
X257184188Y-157594482D01*
X257220498Y-157714180D01*
X257279463Y-157824494D01*
X257358815Y-157921185D01*
X257455506Y-158000537D01*
X257565820Y-158059502D01*
X257685518Y-158095812D01*
X257810000Y-158108072D01*
X260064250Y-158105000D01*
X260223000Y-157946250D01*
X260223000Y-156797000D01*
X257333750Y-156797000D01*
X257233000Y-156897750D01*
X257233000Y-156859000D01*
X256408750Y-156859000D01*
X256250000Y-157017750D01*
X212750000Y-157017750D01*
X212750000Y-156494250D01*
X256250000Y-156494250D01*
X256408750Y-156653000D01*
X257233000Y-156653000D01*
X257233000Y-156609000D01*
X257487000Y-156609000D01*
X257487000Y-156653000D01*
X258311250Y-156653000D01*
X258421250Y-156543000D01*
X260223000Y-156543000D01*
X260223000Y-155393750D01*
X260064250Y-155235000D01*
X257810000Y-155231928D01*
X257685518Y-155244188D01*
X257565820Y-155280498D01*
X257455506Y-155339463D01*
X257358815Y-155418815D01*
X257279463Y-155515506D01*
X257220498Y-155625820D01*
X257184188Y-155745518D01*
X257171928Y-155870000D01*
X257172641Y-155989391D01*
X257074250Y-155891000D01*
X256897779Y-155888056D01*
X256773077Y-155897821D01*
X256652676Y-155931726D01*
X256541203Y-155988469D01*
X256442942Y-156065869D01*
X256361669Y-156160952D01*
X256300507Y-156270063D01*
X256261807Y-156389010D01*
X256250000Y-156494250D01*
X212750000Y-156494250D01*
X212750000Y-151305750D01*
X256250000Y-151305750D01*
X256261807Y-151410990D01*
X256300507Y-151529937D01*
X256361669Y-151639048D01*
X256442942Y-151734131D01*
X256541203Y-151811531D01*
X256652676Y-151868274D01*
X256773077Y-151902179D01*
X256897779Y-151911944D01*
X257074250Y-151909000D01*
X257172641Y-151810609D01*
X257171928Y-151930000D01*
X257184188Y-152054482D01*
X257220498Y-152174180D01*
X257279463Y-152284494D01*
X257358815Y-152381185D01*
X257455506Y-152460537D01*
X257565820Y-152519502D01*
X257685518Y-152555812D01*
X257810000Y-152568072D01*
X260064250Y-152565000D01*
X260223000Y-152406250D01*
X260223000Y-151257000D01*
X258421250Y-151257000D01*
X258311250Y-151147000D01*
X257487000Y-151147000D01*
X257487000Y-151191000D01*
X257233000Y-151191000D01*
X257233000Y-151147000D01*
X256408750Y-151147000D01*
X256250000Y-151305750D01*
X212750000Y-151305750D01*
X212750000Y-150782250D01*
X256250000Y-150782250D01*
X256408750Y-150941000D01*
X257233000Y-150941000D01*
X257233000Y-150902250D01*
X257333750Y-151003000D01*
X260223000Y-151003000D01*
X260223000Y-149853750D01*
X260064250Y-149695000D01*
X257810000Y-149691928D01*
X257685518Y-149704188D01*
X257565820Y-149740498D01*
X257455506Y-149799463D01*
X257358815Y-149878815D01*
X257279463Y-149975506D01*
X257220498Y-150085820D01*
X257184188Y-150205518D01*
X257176709Y-150281459D01*
X257074250Y-150179000D01*
X256897779Y-150176056D01*
X256773077Y-150185821D01*
X256652676Y-150219726D01*
X256541203Y-150276469D01*
X256442942Y-150353869D01*
X256361669Y-150448952D01*
X256300507Y-150558063D01*
X256261807Y-150677010D01*
X256250000Y-150782250D01*
X212750000Y-150782250D01*
X212750000Y-146438026D01*
X212852000Y-146448072D01*
X215106250Y-146445000D01*
X215265000Y-146286250D01*
X215265000Y-145137000D01*
X215519000Y-145137000D01*
X215519000Y-146286250D01*
X215677750Y-146445000D01*
X217932000Y-146448072D01*
X218056482Y-146435812D01*
X218176180Y-146399502D01*
X218286494Y-146340537D01*
X218383185Y-146261185D01*
X218462537Y-146164494D01*
X218521502Y-146054180D01*
X218557812Y-145934482D01*
X218565291Y-145858541D01*
X218667750Y-145961000D01*
X218844221Y-145963944D01*
X218968923Y-145954179D01*
X219089324Y-145920274D01*
X219200797Y-145863531D01*
X219299058Y-145786131D01*
X219380331Y-145691048D01*
X219441493Y-145581937D01*
X219480193Y-145462990D01*
X219492000Y-145357750D01*
X219333250Y-145199000D01*
X218509000Y-145199000D01*
X218509000Y-145237750D01*
X218408250Y-145137000D01*
X215519000Y-145137000D01*
X215265000Y-145137000D01*
X215245000Y-145137000D01*
X215245000Y-144883000D01*
X215265000Y-144883000D01*
X215265000Y-143733750D01*
X215519000Y-143733750D01*
X215519000Y-144883000D01*
X217320750Y-144883000D01*
X217430750Y-144993000D01*
X218255000Y-144993000D01*
X218255000Y-144949000D01*
X218509000Y-144949000D01*
X218509000Y-144993000D01*
X219333250Y-144993000D01*
X219492000Y-144834250D01*
X219480193Y-144729010D01*
X219441493Y-144610063D01*
X219380331Y-144500952D01*
X219299058Y-144405869D01*
X219200797Y-144328469D01*
X219089324Y-144271726D01*
X218968923Y-144237821D01*
X218844221Y-144228056D01*
X218667750Y-144231000D01*
X218569359Y-144329391D01*
X218570072Y-144210000D01*
X218557812Y-144085518D01*
X218521502Y-143965820D01*
X218462537Y-143855506D01*
X218383185Y-143758815D01*
X218286494Y-143679463D01*
X218176180Y-143620498D01*
X218056482Y-143584188D01*
X217932000Y-143571928D01*
X215677750Y-143575000D01*
X215519000Y-143733750D01*
X215265000Y-143733750D01*
X215106250Y-143575000D01*
X212852000Y-143571928D01*
X212750000Y-143581974D01*
X212750000Y-140898026D01*
X212852000Y-140908072D01*
X215106250Y-140905000D01*
X215265000Y-140746250D01*
X215265000Y-139597000D01*
X215519000Y-139597000D01*
X215519000Y-140746250D01*
X215677750Y-140905000D01*
X217932000Y-140908072D01*
X218056482Y-140895812D01*
X218176180Y-140859502D01*
X218286494Y-140800537D01*
X218383185Y-140721185D01*
X218462537Y-140624494D01*
X218521502Y-140514180D01*
X218557812Y-140394482D01*
X218570072Y-140270000D01*
X218569359Y-140150609D01*
X218667750Y-140249000D01*
X218844221Y-140251944D01*
X218968923Y-140242179D01*
X219089324Y-140208274D01*
X219200797Y-140151531D01*
X219299058Y-140074131D01*
X219380331Y-139979048D01*
X219441493Y-139869937D01*
X219480193Y-139750990D01*
X219492000Y-139645750D01*
X219333250Y-139487000D01*
X218509000Y-139487000D01*
X218509000Y-139531000D01*
X218255000Y-139531000D01*
X218255000Y-139487000D01*
X217430750Y-139487000D01*
X217320750Y-139597000D01*
X215519000Y-139597000D01*
X215265000Y-139597000D01*
X215245000Y-139597000D01*
X215245000Y-139343000D01*
X215265000Y-139343000D01*
X215265000Y-138193750D01*
X215519000Y-138193750D01*
X215519000Y-139343000D01*
X218408250Y-139343000D01*
X218509000Y-139242250D01*
X218509000Y-139281000D01*
X219333250Y-139281000D01*
X219492000Y-139122250D01*
X219481759Y-139030967D01*
X222647000Y-139030967D01*
X222647000Y-139353033D01*
X222709832Y-139668912D01*
X222833082Y-139966463D01*
X223012013Y-140234252D01*
X223239748Y-140461987D01*
X223507537Y-140640918D01*
X223805088Y-140764168D01*
X224120967Y-140827000D01*
X224443033Y-140827000D01*
X224758912Y-140764168D01*
X225056463Y-140640918D01*
X225324252Y-140461987D01*
X225551987Y-140234252D01*
X225730918Y-139966463D01*
X225854168Y-139668912D01*
X225917000Y-139353033D01*
X225917000Y-139030967D01*
X225854168Y-138715088D01*
X225730918Y-138417537D01*
X225551987Y-138149748D01*
X225324252Y-137922013D01*
X225056463Y-137743082D01*
X224758912Y-137619832D01*
X224443033Y-137557000D01*
X224120967Y-137557000D01*
X223805088Y-137619832D01*
X223507537Y-137743082D01*
X223239748Y-137922013D01*
X223012013Y-138149748D01*
X222833082Y-138417537D01*
X222709832Y-138715088D01*
X222647000Y-139030967D01*
X219481759Y-139030967D01*
X219480193Y-139017010D01*
X219441493Y-138898063D01*
X219380331Y-138788952D01*
X219299058Y-138693869D01*
X219200797Y-138616469D01*
X219089324Y-138559726D01*
X218968923Y-138525821D01*
X218844221Y-138516056D01*
X218667750Y-138519000D01*
X218565291Y-138621459D01*
X218557812Y-138545518D01*
X218521502Y-138425820D01*
X218462537Y-138315506D01*
X218383185Y-138218815D01*
X218286494Y-138139463D01*
X218176180Y-138080498D01*
X218056482Y-138044188D01*
X217932000Y-138031928D01*
X215677750Y-138035000D01*
X215519000Y-138193750D01*
X215265000Y-138193750D01*
X215106250Y-138035000D01*
X212852000Y-138031928D01*
X212750000Y-138041974D01*
X212750000Y-133502061D01*
X227057000Y-133502061D01*
X227057000Y-133705939D01*
X227096774Y-133905898D01*
X227174795Y-134094256D01*
X227288063Y-134263774D01*
X227432226Y-134407937D01*
X227601744Y-134521205D01*
X227790102Y-134599226D01*
X227990061Y-134639000D01*
X228193939Y-134639000D01*
X228393898Y-134599226D01*
X228582256Y-134521205D01*
X228751774Y-134407937D01*
X228795711Y-134364000D01*
X231198289Y-134364000D01*
X231242226Y-134407937D01*
X231411744Y-134521205D01*
X231536214Y-134572763D01*
X231492795Y-134637744D01*
X231414774Y-134826102D01*
X231375000Y-135026061D01*
X231375000Y-135229939D01*
X231414774Y-135429898D01*
X231492795Y-135618256D01*
X231606063Y-135787774D01*
X231750226Y-135931937D01*
X231919744Y-136045205D01*
X232108102Y-136123226D01*
X232308061Y-136163000D01*
X232511939Y-136163000D01*
X232711898Y-136123226D01*
X232725205Y-136117714D01*
X232769014Y-136131003D01*
X232776356Y-136131726D01*
X232788528Y-136171851D01*
X232870595Y-136325387D01*
X232981038Y-136459962D01*
X233051287Y-136517614D01*
X232963038Y-136590038D01*
X232852595Y-136724613D01*
X232770528Y-136878149D01*
X232719992Y-137044745D01*
X232702928Y-137217999D01*
X232702928Y-137824270D01*
X231377376Y-139149823D01*
X231362912Y-139143832D01*
X231047033Y-139081000D01*
X230724967Y-139081000D01*
X230409088Y-139143832D01*
X230111537Y-139267082D01*
X229843748Y-139446013D01*
X229616013Y-139673748D01*
X229437082Y-139941537D01*
X229313832Y-140239088D01*
X229251000Y-140554967D01*
X229251000Y-140877033D01*
X229313832Y-141192912D01*
X229437082Y-141490463D01*
X229616013Y-141758252D01*
X229843748Y-141985987D01*
X230111537Y-142164918D01*
X230409088Y-142288168D01*
X230724967Y-142351000D01*
X231047033Y-142351000D01*
X231362912Y-142288168D01*
X231660463Y-142164918D01*
X231928252Y-141985987D01*
X232155987Y-141758252D01*
X232334918Y-141490463D01*
X232458168Y-141192912D01*
X232521000Y-140877033D01*
X232521000Y-140554967D01*
X232458168Y-140239088D01*
X232452177Y-140224624D01*
X233391834Y-139284967D01*
X237633000Y-139284967D01*
X237633000Y-139607033D01*
X237695832Y-139922912D01*
X237819082Y-140220463D01*
X237998013Y-140488252D01*
X238225748Y-140715987D01*
X238493537Y-140894918D01*
X238791088Y-141018168D01*
X239106967Y-141081000D01*
X239429033Y-141081000D01*
X239744912Y-141018168D01*
X240042463Y-140894918D01*
X240310252Y-140715987D01*
X240537987Y-140488252D01*
X240716918Y-140220463D01*
X240840168Y-139922912D01*
X240875353Y-139746023D01*
X259085582Y-139746023D01*
X259265648Y-140082060D01*
X259674474Y-140292820D01*
X260116562Y-140419772D01*
X260574922Y-140458037D01*
X261031940Y-140406146D01*
X261470053Y-140266092D01*
X261814352Y-140082060D01*
X261994418Y-139746023D01*
X260540000Y-138291605D01*
X259085582Y-139746023D01*
X240875353Y-139746023D01*
X240903000Y-139607033D01*
X240903000Y-139284967D01*
X240840168Y-138969088D01*
X240716918Y-138671537D01*
X240537987Y-138403748D01*
X240310252Y-138176013D01*
X240266715Y-138146922D01*
X258193963Y-138146922D01*
X258245854Y-138603940D01*
X258385908Y-139042053D01*
X258569940Y-139386352D01*
X258905977Y-139566418D01*
X260360395Y-138112000D01*
X258905977Y-136657582D01*
X258569940Y-136837648D01*
X258359180Y-137246474D01*
X258232228Y-137688562D01*
X258193963Y-138146922D01*
X240266715Y-138146922D01*
X240042463Y-137997082D01*
X239744912Y-137873832D01*
X239429033Y-137811000D01*
X239106967Y-137811000D01*
X238791088Y-137873832D01*
X238493537Y-137997082D01*
X238225748Y-138176013D01*
X237998013Y-138403748D01*
X237819082Y-138671537D01*
X237695832Y-138969088D01*
X237633000Y-139284967D01*
X233391834Y-139284967D01*
X233670730Y-139006072D01*
X234241001Y-139006072D01*
X234414255Y-138989008D01*
X234580851Y-138938472D01*
X234734387Y-138856405D01*
X234868962Y-138745962D01*
X234941000Y-138658184D01*
X235013038Y-138745962D01*
X235147613Y-138856405D01*
X235301149Y-138938472D01*
X235467745Y-138989008D01*
X235640999Y-139006072D01*
X236291001Y-139006072D01*
X236464255Y-138989008D01*
X236630851Y-138938472D01*
X236784387Y-138856405D01*
X236918962Y-138745962D01*
X236979458Y-138672248D01*
X237134061Y-138703000D01*
X237337939Y-138703000D01*
X237537898Y-138663226D01*
X237726256Y-138585205D01*
X237895774Y-138471937D01*
X238039937Y-138327774D01*
X238153205Y-138158256D01*
X238231226Y-137969898D01*
X238271000Y-137769939D01*
X238271000Y-137566061D01*
X238231226Y-137366102D01*
X238153205Y-137177744D01*
X238039937Y-137008226D01*
X237895774Y-136864063D01*
X237726256Y-136750795D01*
X237537898Y-136672774D01*
X237337939Y-136633000D01*
X237134061Y-136633000D01*
X236979458Y-136663752D01*
X236918962Y-136590038D01*
X236848713Y-136532386D01*
X236915010Y-136477977D01*
X259085582Y-136477977D01*
X260540000Y-137932395D01*
X261994418Y-136477977D01*
X261814352Y-136141940D01*
X261405526Y-135931180D01*
X260963438Y-135804228D01*
X260505078Y-135765963D01*
X260048060Y-135817854D01*
X259609947Y-135957908D01*
X259265648Y-136141940D01*
X259085582Y-136477977D01*
X236915010Y-136477977D01*
X236936962Y-136459962D01*
X237047405Y-136325387D01*
X237129472Y-136171851D01*
X237180008Y-136005255D01*
X237197072Y-135832001D01*
X237197072Y-134931999D01*
X237180008Y-134758745D01*
X237129472Y-134592149D01*
X237047405Y-134438613D01*
X236978813Y-134355033D01*
X237029405Y-134293387D01*
X237111472Y-134139851D01*
X237116097Y-134124603D01*
X237283898Y-134091226D01*
X237472256Y-134013205D01*
X237641774Y-133899937D01*
X237785937Y-133755774D01*
X237899205Y-133586256D01*
X237977226Y-133397898D01*
X238017000Y-133197939D01*
X238017000Y-132994061D01*
X237977226Y-132794102D01*
X237899205Y-132605744D01*
X237802490Y-132461000D01*
X237899205Y-132316256D01*
X237977226Y-132127898D01*
X238017000Y-131927939D01*
X238017000Y-131724061D01*
X237977226Y-131524102D01*
X237899205Y-131335744D01*
X237785937Y-131166226D01*
X237742000Y-131122289D01*
X237742000Y-131101332D01*
X237745677Y-131064000D01*
X237731003Y-130915014D01*
X237687546Y-130771753D01*
X237616974Y-130639724D01*
X237522001Y-130523999D01*
X237406276Y-130429026D01*
X237274247Y-130358454D01*
X237130986Y-130314997D01*
X237123644Y-130314274D01*
X237111472Y-130274149D01*
X237029405Y-130120613D01*
X236969813Y-130048000D01*
X237029405Y-129975387D01*
X237111472Y-129821851D01*
X237162008Y-129655255D01*
X237179072Y-129482001D01*
X237179072Y-128581999D01*
X237162008Y-128408745D01*
X237111472Y-128242149D01*
X237029405Y-128088613D01*
X236918962Y-127954038D01*
X236784387Y-127843595D01*
X236630851Y-127761528D01*
X236464255Y-127710992D01*
X236291001Y-127693928D01*
X235640999Y-127693928D01*
X235467745Y-127710992D01*
X235301149Y-127761528D01*
X235147613Y-127843595D01*
X235013038Y-127954038D01*
X234941000Y-128041816D01*
X234868962Y-127954038D01*
X234734387Y-127843595D01*
X234580851Y-127761528D01*
X234468738Y-127727519D01*
X234456001Y-127711999D01*
X234427003Y-127688201D01*
X234339769Y-127600967D01*
X237633000Y-127600967D01*
X237633000Y-127923033D01*
X237695832Y-128238912D01*
X237819082Y-128536463D01*
X237998013Y-128804252D01*
X238225748Y-129031987D01*
X238493537Y-129210918D01*
X238791088Y-129334168D01*
X239106967Y-129397000D01*
X239429033Y-129397000D01*
X239744912Y-129334168D01*
X240042463Y-129210918D01*
X240310252Y-129031987D01*
X240537987Y-128804252D01*
X240716918Y-128536463D01*
X240840168Y-128238912D01*
X240903000Y-127923033D01*
X240903000Y-127600967D01*
X240840168Y-127285088D01*
X240716918Y-126987537D01*
X240537987Y-126719748D01*
X240310252Y-126492013D01*
X240042463Y-126313082D01*
X239744912Y-126189832D01*
X239429033Y-126127000D01*
X239106967Y-126127000D01*
X238791088Y-126189832D01*
X238493537Y-126313082D01*
X238225748Y-126492013D01*
X237998013Y-126719748D01*
X237819082Y-126987537D01*
X237695832Y-127285088D01*
X237633000Y-127600967D01*
X234339769Y-127600967D01*
X232706177Y-125967376D01*
X232712168Y-125952912D01*
X232775000Y-125637033D01*
X232775000Y-125314967D01*
X232712168Y-124999088D01*
X232588918Y-124701537D01*
X232409987Y-124433748D01*
X232182252Y-124206013D01*
X231914463Y-124027082D01*
X231616912Y-123903832D01*
X231301033Y-123841000D01*
X230978967Y-123841000D01*
X230663088Y-123903832D01*
X230365537Y-124027082D01*
X230097748Y-124206013D01*
X229870013Y-124433748D01*
X229691082Y-124701537D01*
X229567832Y-124999088D01*
X229505000Y-125314967D01*
X229505000Y-125637033D01*
X229567832Y-125952912D01*
X229691082Y-126250463D01*
X229870013Y-126518252D01*
X230097748Y-126745987D01*
X230365537Y-126924918D01*
X230517405Y-126987824D01*
X230506378Y-126993718D01*
X230333552Y-127135553D01*
X230191717Y-127308379D01*
X230086325Y-127505555D01*
X230021424Y-127719503D01*
X230005001Y-127886250D01*
X230005000Y-131373751D01*
X230021423Y-131540498D01*
X230086324Y-131754446D01*
X230191716Y-131951623D01*
X230333551Y-132124449D01*
X230506377Y-132266284D01*
X230703553Y-132371676D01*
X230917501Y-132436577D01*
X231140000Y-132458491D01*
X231179472Y-132454603D01*
X231411696Y-132686827D01*
X231242226Y-132800063D01*
X231198289Y-132844000D01*
X228795711Y-132844000D01*
X228751774Y-132800063D01*
X228582256Y-132686795D01*
X228393898Y-132608774D01*
X228193939Y-132569000D01*
X227990061Y-132569000D01*
X227790102Y-132608774D01*
X227601744Y-132686795D01*
X227432226Y-132800063D01*
X227288063Y-132944226D01*
X227174795Y-133113744D01*
X227096774Y-133302102D01*
X227057000Y-133502061D01*
X212750000Y-133502061D01*
X212750000Y-128658026D01*
X212852000Y-128668072D01*
X215106250Y-128665000D01*
X215265000Y-128506250D01*
X215265000Y-127357000D01*
X215519000Y-127357000D01*
X215519000Y-128506250D01*
X215677750Y-128665000D01*
X217932000Y-128668072D01*
X218056482Y-128655812D01*
X218176180Y-128619502D01*
X218286494Y-128560537D01*
X218383185Y-128481185D01*
X218462537Y-128384494D01*
X218521502Y-128274180D01*
X218557812Y-128154482D01*
X218565291Y-128078541D01*
X218667750Y-128181000D01*
X218844221Y-128183944D01*
X218968923Y-128174179D01*
X219089324Y-128140274D01*
X219200797Y-128083531D01*
X219299058Y-128006131D01*
X219380331Y-127911048D01*
X219441493Y-127801937D01*
X219480193Y-127682990D01*
X219492000Y-127577750D01*
X219333250Y-127419000D01*
X218509000Y-127419000D01*
X218509000Y-127457750D01*
X218408250Y-127357000D01*
X215519000Y-127357000D01*
X215265000Y-127357000D01*
X215245000Y-127357000D01*
X215245000Y-127103000D01*
X215265000Y-127103000D01*
X215265000Y-125953750D01*
X215519000Y-125953750D01*
X215519000Y-127103000D01*
X217320750Y-127103000D01*
X217430750Y-127213000D01*
X218255000Y-127213000D01*
X218255000Y-127169000D01*
X218509000Y-127169000D01*
X218509000Y-127213000D01*
X219333250Y-127213000D01*
X219492000Y-127054250D01*
X219480193Y-126949010D01*
X219441493Y-126830063D01*
X219380331Y-126720952D01*
X219299058Y-126625869D01*
X219200797Y-126548469D01*
X219089324Y-126491726D01*
X218968923Y-126457821D01*
X218844221Y-126448056D01*
X218667750Y-126451000D01*
X218569359Y-126549391D01*
X218570072Y-126430000D01*
X218557812Y-126305518D01*
X218521502Y-126185820D01*
X218462537Y-126075506D01*
X218383185Y-125978815D01*
X218286494Y-125899463D01*
X218176180Y-125840498D01*
X218118389Y-125822967D01*
X222647000Y-125822967D01*
X222647000Y-126145033D01*
X222709832Y-126460912D01*
X222833082Y-126758463D01*
X223012013Y-127026252D01*
X223239748Y-127253987D01*
X223507537Y-127432918D01*
X223805088Y-127556168D01*
X224120967Y-127619000D01*
X224443033Y-127619000D01*
X224758912Y-127556168D01*
X225056463Y-127432918D01*
X225324252Y-127253987D01*
X225551987Y-127026252D01*
X225730918Y-126758463D01*
X225854168Y-126460912D01*
X225917000Y-126145033D01*
X225917000Y-125822967D01*
X225854168Y-125507088D01*
X225730918Y-125209537D01*
X225551987Y-124941748D01*
X225324252Y-124714013D01*
X225056463Y-124535082D01*
X224758912Y-124411832D01*
X224443033Y-124349000D01*
X224120967Y-124349000D01*
X223805088Y-124411832D01*
X223507537Y-124535082D01*
X223239748Y-124714013D01*
X223012013Y-124941748D01*
X222833082Y-125209537D01*
X222709832Y-125507088D01*
X222647000Y-125822967D01*
X218118389Y-125822967D01*
X218056482Y-125804188D01*
X217932000Y-125791928D01*
X215677750Y-125795000D01*
X215519000Y-125953750D01*
X215265000Y-125953750D01*
X215106250Y-125795000D01*
X212852000Y-125791928D01*
X212750000Y-125801974D01*
X212750000Y-123118026D01*
X212852000Y-123128072D01*
X215106250Y-123125000D01*
X215265000Y-122966250D01*
X215265000Y-121817000D01*
X215519000Y-121817000D01*
X215519000Y-122966250D01*
X215677750Y-123125000D01*
X217932000Y-123128072D01*
X218056482Y-123115812D01*
X218176180Y-123079502D01*
X218286494Y-123020537D01*
X218383185Y-122941185D01*
X218462537Y-122844494D01*
X218521502Y-122734180D01*
X218557812Y-122614482D01*
X218570072Y-122490000D01*
X218569359Y-122370609D01*
X218667750Y-122469000D01*
X218844221Y-122471944D01*
X218968923Y-122462179D01*
X219089324Y-122428274D01*
X219200797Y-122371531D01*
X219299058Y-122294131D01*
X219380331Y-122199048D01*
X219441493Y-122089937D01*
X219480193Y-121970990D01*
X219492000Y-121865750D01*
X219333250Y-121707000D01*
X218509000Y-121707000D01*
X218509000Y-121751000D01*
X218255000Y-121751000D01*
X218255000Y-121707000D01*
X217430750Y-121707000D01*
X217320750Y-121817000D01*
X215519000Y-121817000D01*
X215265000Y-121817000D01*
X215245000Y-121817000D01*
X215245000Y-121563000D01*
X215265000Y-121563000D01*
X215265000Y-120413750D01*
X215519000Y-120413750D01*
X215519000Y-121563000D01*
X218408250Y-121563000D01*
X218509000Y-121462250D01*
X218509000Y-121501000D01*
X219333250Y-121501000D01*
X219492000Y-121342250D01*
X219480193Y-121237010D01*
X219441493Y-121118063D01*
X219380331Y-121008952D01*
X219299058Y-120913869D01*
X219200797Y-120836469D01*
X219089324Y-120779726D01*
X218968923Y-120745821D01*
X218844221Y-120736056D01*
X218667750Y-120739000D01*
X218565291Y-120841459D01*
X218557812Y-120765518D01*
X218521502Y-120645820D01*
X218462537Y-120535506D01*
X218383185Y-120438815D01*
X218286494Y-120359463D01*
X218176180Y-120300498D01*
X218056482Y-120264188D01*
X217932000Y-120251928D01*
X215677750Y-120255000D01*
X215519000Y-120413750D01*
X215265000Y-120413750D01*
X215106250Y-120255000D01*
X212852000Y-120251928D01*
X212750000Y-120261974D01*
X212750000Y-109976475D01*
X213011000Y-109976475D01*
X213011000Y-110495525D01*
X213112261Y-111004601D01*
X213310893Y-111484141D01*
X213599262Y-111915715D01*
X213966285Y-112282738D01*
X214397859Y-112571107D01*
X214877399Y-112769739D01*
X215386475Y-112871000D01*
X215905525Y-112871000D01*
X216414601Y-112769739D01*
X216531972Y-112721122D01*
X222377000Y-112721122D01*
X222377000Y-113846878D01*
X222596625Y-114951004D01*
X223027433Y-115991067D01*
X223652870Y-116927100D01*
X224448900Y-117723130D01*
X225384933Y-118348567D01*
X226424996Y-118779375D01*
X227529122Y-118999000D01*
X228654878Y-118999000D01*
X229759004Y-118779375D01*
X230799067Y-118348567D01*
X231735100Y-117723130D01*
X231883034Y-117575196D01*
X237442409Y-117575196D01*
X238028124Y-118257416D01*
X239011704Y-118805045D01*
X240083223Y-119150265D01*
X241201501Y-119279808D01*
X242323565Y-119188697D01*
X243406294Y-118880433D01*
X244408079Y-118366863D01*
X244571876Y-118257416D01*
X245054090Y-117695750D01*
X256250000Y-117695750D01*
X256261807Y-117800990D01*
X256300507Y-117919937D01*
X256361669Y-118029048D01*
X256442942Y-118124131D01*
X256541203Y-118201531D01*
X256652676Y-118258274D01*
X256773077Y-118292179D01*
X256897779Y-118301944D01*
X257074250Y-118299000D01*
X257176709Y-118196541D01*
X257184188Y-118272482D01*
X257220498Y-118392180D01*
X257279463Y-118502494D01*
X257358815Y-118599185D01*
X257455506Y-118678537D01*
X257565820Y-118737502D01*
X257685518Y-118773812D01*
X257810000Y-118786072D01*
X260064250Y-118783000D01*
X260223000Y-118624250D01*
X260223000Y-117475000D01*
X257333750Y-117475000D01*
X257233000Y-117575750D01*
X257233000Y-117537000D01*
X256408750Y-117537000D01*
X256250000Y-117695750D01*
X245054090Y-117695750D01*
X245157591Y-117575196D01*
X241300000Y-113717605D01*
X237442409Y-117575196D01*
X231883034Y-117575196D01*
X232531130Y-116927100D01*
X233156567Y-115991067D01*
X233587375Y-114951004D01*
X233807000Y-113846878D01*
X233807000Y-113439501D01*
X235558192Y-113439501D01*
X235649303Y-114561565D01*
X235957567Y-115644294D01*
X236471137Y-116646079D01*
X236580584Y-116809876D01*
X237262804Y-117395591D01*
X241120395Y-113538000D01*
X241479605Y-113538000D01*
X245337196Y-117395591D01*
X245597335Y-117172250D01*
X256250000Y-117172250D01*
X256408750Y-117331000D01*
X257233000Y-117331000D01*
X257233000Y-117287000D01*
X257487000Y-117287000D01*
X257487000Y-117331000D01*
X258311250Y-117331000D01*
X258421250Y-117221000D01*
X260223000Y-117221000D01*
X260223000Y-116071750D01*
X260064250Y-115913000D01*
X257810000Y-115909928D01*
X257685518Y-115922188D01*
X257565820Y-115958498D01*
X257455506Y-116017463D01*
X257358815Y-116096815D01*
X257279463Y-116193506D01*
X257220498Y-116303820D01*
X257184188Y-116423518D01*
X257171928Y-116548000D01*
X257172641Y-116667391D01*
X257074250Y-116569000D01*
X256897779Y-116566056D01*
X256773077Y-116575821D01*
X256652676Y-116609726D01*
X256541203Y-116666469D01*
X256442942Y-116743869D01*
X256361669Y-116838952D01*
X256300507Y-116948063D01*
X256261807Y-117067010D01*
X256250000Y-117172250D01*
X245597335Y-117172250D01*
X246019416Y-116809876D01*
X246567045Y-115826296D01*
X246912265Y-114754777D01*
X247041808Y-113636499D01*
X246950697Y-112514435D01*
X246642433Y-111431706D01*
X246128863Y-110429921D01*
X246019416Y-110266124D01*
X245682044Y-109976475D01*
X249587000Y-109976475D01*
X249587000Y-110495525D01*
X249688261Y-111004601D01*
X249886893Y-111484141D01*
X250175262Y-111915715D01*
X250542285Y-112282738D01*
X250973859Y-112571107D01*
X251453399Y-112769739D01*
X251962475Y-112871000D01*
X252481525Y-112871000D01*
X252990601Y-112769739D01*
X253470141Y-112571107D01*
X253901715Y-112282738D01*
X254200703Y-111983750D01*
X256250000Y-111983750D01*
X256261807Y-112088990D01*
X256300507Y-112207937D01*
X256361669Y-112317048D01*
X256442942Y-112412131D01*
X256541203Y-112489531D01*
X256652676Y-112546274D01*
X256773077Y-112580179D01*
X256897779Y-112589944D01*
X257074250Y-112587000D01*
X257172641Y-112488609D01*
X257171928Y-112608000D01*
X257184188Y-112732482D01*
X257220498Y-112852180D01*
X257279463Y-112962494D01*
X257358815Y-113059185D01*
X257455506Y-113138537D01*
X257565820Y-113197502D01*
X257685518Y-113233812D01*
X257810000Y-113246072D01*
X260064250Y-113243000D01*
X260223000Y-113084250D01*
X260223000Y-111935000D01*
X258421250Y-111935000D01*
X258311250Y-111825000D01*
X257487000Y-111825000D01*
X257487000Y-111869000D01*
X257233000Y-111869000D01*
X257233000Y-111825000D01*
X256408750Y-111825000D01*
X256250000Y-111983750D01*
X254200703Y-111983750D01*
X254268738Y-111915715D01*
X254557107Y-111484141D01*
X254567002Y-111460250D01*
X256250000Y-111460250D01*
X256408750Y-111619000D01*
X257233000Y-111619000D01*
X257233000Y-111580250D01*
X257333750Y-111681000D01*
X260223000Y-111681000D01*
X260223000Y-110531750D01*
X260064250Y-110373000D01*
X257810000Y-110369928D01*
X257685518Y-110382188D01*
X257565820Y-110418498D01*
X257455506Y-110477463D01*
X257358815Y-110556815D01*
X257279463Y-110653506D01*
X257220498Y-110763820D01*
X257184188Y-110883518D01*
X257176709Y-110959459D01*
X257074250Y-110857000D01*
X256897779Y-110854056D01*
X256773077Y-110863821D01*
X256652676Y-110897726D01*
X256541203Y-110954469D01*
X256442942Y-111031869D01*
X256361669Y-111126952D01*
X256300507Y-111236063D01*
X256261807Y-111355010D01*
X256250000Y-111460250D01*
X254567002Y-111460250D01*
X254755739Y-111004601D01*
X254857000Y-110495525D01*
X254857000Y-109976475D01*
X254755739Y-109467399D01*
X254557107Y-108987859D01*
X254268738Y-108556285D01*
X253901715Y-108189262D01*
X253470141Y-107900893D01*
X252990601Y-107702261D01*
X252481525Y-107601000D01*
X251962475Y-107601000D01*
X251453399Y-107702261D01*
X250973859Y-107900893D01*
X250542285Y-108189262D01*
X250175262Y-108556285D01*
X249886893Y-108987859D01*
X249688261Y-109467399D01*
X249587000Y-109976475D01*
X245682044Y-109976475D01*
X245337196Y-109680409D01*
X241479605Y-113538000D01*
X241120395Y-113538000D01*
X237262804Y-109680409D01*
X236580584Y-110266124D01*
X236032955Y-111249704D01*
X235687735Y-112321223D01*
X235558192Y-113439501D01*
X233807000Y-113439501D01*
X233807000Y-112721122D01*
X233587375Y-111616996D01*
X233156567Y-110576933D01*
X232531130Y-109640900D01*
X232391034Y-109500804D01*
X237442409Y-109500804D01*
X241300000Y-113358395D01*
X245157591Y-109500804D01*
X244571876Y-108818584D01*
X243588296Y-108270955D01*
X242516777Y-107925735D01*
X241398499Y-107796192D01*
X240276435Y-107887303D01*
X239193706Y-108195567D01*
X238191921Y-108709137D01*
X238028124Y-108818584D01*
X237442409Y-109500804D01*
X232391034Y-109500804D01*
X231735100Y-108844870D01*
X230799067Y-108219433D01*
X229759004Y-107788625D01*
X228654878Y-107569000D01*
X227529122Y-107569000D01*
X226424996Y-107788625D01*
X225384933Y-108219433D01*
X224448900Y-108844870D01*
X223652870Y-109640900D01*
X223027433Y-110576933D01*
X222596625Y-111616996D01*
X222377000Y-112721122D01*
X216531972Y-112721122D01*
X216894141Y-112571107D01*
X217325715Y-112282738D01*
X217692738Y-111915715D01*
X217981107Y-111484141D01*
X218179739Y-111004601D01*
X218281000Y-110495525D01*
X218281000Y-109976475D01*
X218179739Y-109467399D01*
X217981107Y-108987859D01*
X217692738Y-108556285D01*
X217325715Y-108189262D01*
X216894141Y-107900893D01*
X216414601Y-107702261D01*
X215905525Y-107601000D01*
X215386475Y-107601000D01*
X214877399Y-107702261D01*
X214397859Y-107900893D01*
X213966285Y-108189262D01*
X213599262Y-108556285D01*
X213310893Y-108987859D01*
X213112261Y-109467399D01*
X213011000Y-109976475D01*
X212750000Y-109976475D01*
X212750000Y-107340000D01*
X262738000Y-107340000D01*
X262738000Y-110370135D01*
%TD*%
M02*
