%TF.GenerationSoftware,KiCad,Pcbnew,(5.1.6-0-10_14)*%
%TF.CreationDate,2020-08-19T15:58:13-07:00*%
%TF.ProjectId,single_ended_differential_converter,73696e67-6c65-45f6-956e-6465645f6469,rev?*%
%TF.SameCoordinates,Original*%
%TF.FileFunction,Legend,Top*%
%TF.FilePolarity,Positive*%
%FSLAX46Y46*%
G04 Gerber Fmt 4.6, Leading zero omitted, Abs format (unit mm)*
G04 Created by KiCad (PCBNEW (5.1.6-0-10_14)) date 2020-08-19 15:58:13*
%MOMM*%
%LPD*%
G01*
G04 APERTURE LIST*
%ADD10C,0.300000*%
%ADD11C,0.120000*%
%ADD12C,0.150000*%
G04 APERTURE END LIST*
D10*
X227875428Y-154846571D02*
X227875428Y-153346571D01*
X228732571Y-154846571D01*
X228732571Y-153346571D01*
X229446857Y-154846571D02*
X229446857Y-153846571D01*
X229446857Y-153346571D02*
X229375428Y-153418000D01*
X229446857Y-153489428D01*
X229518285Y-153418000D01*
X229446857Y-153346571D01*
X229446857Y-153489428D01*
X230161142Y-154846571D02*
X230161142Y-153346571D01*
X230304000Y-154275142D02*
X230732571Y-154846571D01*
X230732571Y-153846571D02*
X230161142Y-154418000D01*
X231589714Y-154846571D02*
X231446857Y-154775142D01*
X231375428Y-154703714D01*
X231304000Y-154560857D01*
X231304000Y-154132285D01*
X231375428Y-153989428D01*
X231446857Y-153918000D01*
X231589714Y-153846571D01*
X231804000Y-153846571D01*
X231946857Y-153918000D01*
X232018285Y-153989428D01*
X232089714Y-154132285D01*
X232089714Y-154560857D01*
X232018285Y-154703714D01*
X231946857Y-154775142D01*
X231804000Y-154846571D01*
X231589714Y-154846571D01*
X232946857Y-154846571D02*
X232804000Y-154775142D01*
X232732571Y-154632285D01*
X232732571Y-153346571D01*
X234089714Y-154775142D02*
X233946857Y-154846571D01*
X233661142Y-154846571D01*
X233518285Y-154775142D01*
X233446857Y-154632285D01*
X233446857Y-154060857D01*
X233518285Y-153918000D01*
X233661142Y-153846571D01*
X233946857Y-153846571D01*
X234089714Y-153918000D01*
X234161142Y-154060857D01*
X234161142Y-154203714D01*
X233446857Y-154346571D01*
X234875428Y-153346571D02*
X234875428Y-153418000D01*
X234804000Y-153560857D01*
X234732571Y-153632285D01*
X235446857Y-154775142D02*
X235589714Y-154846571D01*
X235875428Y-154846571D01*
X236018285Y-154775142D01*
X236089714Y-154632285D01*
X236089714Y-154560857D01*
X236018285Y-154418000D01*
X235875428Y-154346571D01*
X235661142Y-154346571D01*
X235518285Y-154275142D01*
X235446857Y-154132285D01*
X235446857Y-154060857D01*
X235518285Y-153918000D01*
X235661142Y-153846571D01*
X235875428Y-153846571D01*
X236018285Y-153918000D01*
X238375428Y-154060857D02*
X238589714Y-154132285D01*
X238661142Y-154203714D01*
X238732571Y-154346571D01*
X238732571Y-154560857D01*
X238661142Y-154703714D01*
X238589714Y-154775142D01*
X238446857Y-154846571D01*
X237875428Y-154846571D01*
X237875428Y-153346571D01*
X238375428Y-153346571D01*
X238518285Y-153418000D01*
X238589714Y-153489428D01*
X238661142Y-153632285D01*
X238661142Y-153775142D01*
X238589714Y-153918000D01*
X238518285Y-153989428D01*
X238375428Y-154060857D01*
X237875428Y-154060857D01*
X239589714Y-154846571D02*
X239446857Y-154775142D01*
X239375428Y-154703714D01*
X239304000Y-154560857D01*
X239304000Y-154132285D01*
X239375428Y-153989428D01*
X239446857Y-153918000D01*
X239589714Y-153846571D01*
X239804000Y-153846571D01*
X239946857Y-153918000D01*
X240018285Y-153989428D01*
X240089714Y-154132285D01*
X240089714Y-154560857D01*
X240018285Y-154703714D01*
X239946857Y-154775142D01*
X239804000Y-154846571D01*
X239589714Y-154846571D01*
X240589714Y-153846571D02*
X240946857Y-154846571D01*
X241304000Y-153846571D02*
X240946857Y-154846571D01*
X240804000Y-155203714D01*
X240732571Y-155275142D01*
X240589714Y-155346571D01*
X241661142Y-153846571D02*
X242232571Y-153846571D01*
X241875428Y-154846571D02*
X241875428Y-153560857D01*
X241946857Y-153418000D01*
X242089714Y-153346571D01*
X242232571Y-153346571D01*
X242732571Y-154846571D02*
X242732571Y-153846571D01*
X242732571Y-154132285D02*
X242804000Y-153989428D01*
X242875428Y-153918000D01*
X243018285Y-153846571D01*
X243161142Y-153846571D01*
X243661142Y-154846571D02*
X243661142Y-153846571D01*
X243661142Y-153346571D02*
X243589714Y-153418000D01*
X243661142Y-153489428D01*
X243732571Y-153418000D01*
X243661142Y-153346571D01*
X243661142Y-153489428D01*
X244946857Y-154775142D02*
X244804000Y-154846571D01*
X244518285Y-154846571D01*
X244375428Y-154775142D01*
X244304000Y-154632285D01*
X244304000Y-154060857D01*
X244375428Y-153918000D01*
X244518285Y-153846571D01*
X244804000Y-153846571D01*
X244946857Y-153918000D01*
X245018285Y-154060857D01*
X245018285Y-154203714D01*
X244304000Y-154346571D01*
X245661142Y-153846571D02*
X245661142Y-154846571D01*
X245661142Y-153989428D02*
X245732571Y-153918000D01*
X245875428Y-153846571D01*
X246089714Y-153846571D01*
X246232571Y-153918000D01*
X246304000Y-154060857D01*
X246304000Y-154846571D01*
X247661142Y-154846571D02*
X247661142Y-153346571D01*
X247661142Y-154775142D02*
X247518285Y-154846571D01*
X247232571Y-154846571D01*
X247089714Y-154775142D01*
X247018285Y-154703714D01*
X246946857Y-154560857D01*
X246946857Y-154132285D01*
X247018285Y-153989428D01*
X247089714Y-153918000D01*
X247232571Y-153846571D01*
X247518285Y-153846571D01*
X247661142Y-153918000D01*
X248446857Y-153346571D02*
X248446857Y-153418000D01*
X248375428Y-153560857D01*
X248304000Y-153632285D01*
X249018285Y-154775142D02*
X249161142Y-154846571D01*
X249446857Y-154846571D01*
X249589714Y-154775142D01*
X249661142Y-154632285D01*
X249661142Y-154560857D01*
X249589714Y-154418000D01*
X249446857Y-154346571D01*
X249232571Y-154346571D01*
X249089714Y-154275142D01*
X249018285Y-154132285D01*
X249018285Y-154060857D01*
X249089714Y-153918000D01*
X249232571Y-153846571D01*
X249446857Y-153846571D01*
X249589714Y-153918000D01*
X251446857Y-154846571D02*
X251446857Y-153346571D01*
X252018285Y-153346571D01*
X252161142Y-153418000D01*
X252232571Y-153489428D01*
X252304000Y-153632285D01*
X252304000Y-153846571D01*
X252232571Y-153989428D01*
X252161142Y-154060857D01*
X252018285Y-154132285D01*
X251446857Y-154132285D01*
X253804000Y-154703714D02*
X253732571Y-154775142D01*
X253518285Y-154846571D01*
X253375428Y-154846571D01*
X253161142Y-154775142D01*
X253018285Y-154632285D01*
X252946857Y-154489428D01*
X252875428Y-154203714D01*
X252875428Y-153989428D01*
X252946857Y-153703714D01*
X253018285Y-153560857D01*
X253161142Y-153418000D01*
X253375428Y-153346571D01*
X253518285Y-153346571D01*
X253732571Y-153418000D01*
X253804000Y-153489428D01*
X254946857Y-154060857D02*
X255161142Y-154132285D01*
X255232571Y-154203714D01*
X255304000Y-154346571D01*
X255304000Y-154560857D01*
X255232571Y-154703714D01*
X255161142Y-154775142D01*
X255018285Y-154846571D01*
X254446857Y-154846571D01*
X254446857Y-153346571D01*
X254946857Y-153346571D01*
X255089714Y-153418000D01*
X255161142Y-153489428D01*
X255232571Y-153632285D01*
X255232571Y-153775142D01*
X255161142Y-153918000D01*
X255089714Y-153989428D01*
X254946857Y-154060857D01*
X254446857Y-154060857D01*
X217875428Y-156968000D02*
X218589714Y-156968000D01*
X217732571Y-157396571D02*
X218232571Y-155896571D01*
X218732571Y-157396571D01*
X219232571Y-157396571D02*
X219232571Y-155896571D01*
X219589714Y-155896571D01*
X219803999Y-155968000D01*
X219946857Y-156110857D01*
X220018285Y-156253714D01*
X220089714Y-156539428D01*
X220089714Y-156753714D01*
X220018285Y-157039428D01*
X219946857Y-157182285D01*
X219803999Y-157325142D01*
X219589714Y-157396571D01*
X219232571Y-157396571D01*
X221375428Y-156396571D02*
X221375428Y-157396571D01*
X221018285Y-155825142D02*
X220661142Y-156896571D01*
X221589714Y-156896571D01*
X222232571Y-157396571D02*
X222518285Y-157396571D01*
X222661142Y-157325142D01*
X222732571Y-157253714D01*
X222875428Y-157039428D01*
X222946857Y-156753714D01*
X222946857Y-156182285D01*
X222875428Y-156039428D01*
X222803999Y-155968000D01*
X222661142Y-155896571D01*
X222375428Y-155896571D01*
X222232571Y-155968000D01*
X222161142Y-156039428D01*
X222089714Y-156182285D01*
X222089714Y-156539428D01*
X222161142Y-156682285D01*
X222232571Y-156753714D01*
X222375428Y-156825142D01*
X222661142Y-156825142D01*
X222803999Y-156753714D01*
X222875428Y-156682285D01*
X222946857Y-156539428D01*
X224232571Y-156396571D02*
X224232571Y-157396571D01*
X223875428Y-155825142D02*
X223518285Y-156896571D01*
X224446857Y-156896571D01*
X225803999Y-157396571D02*
X224946857Y-157396571D01*
X225375428Y-157396571D02*
X225375428Y-155896571D01*
X225232571Y-156110857D01*
X225089714Y-156253714D01*
X224946857Y-156325142D01*
X226446857Y-156825142D02*
X227589714Y-156825142D01*
X229089714Y-157396571D02*
X228232571Y-157396571D01*
X228661142Y-157396571D02*
X228661142Y-155896571D01*
X228518285Y-156110857D01*
X228375428Y-156253714D01*
X228232571Y-156325142D01*
X230803999Y-157325142D02*
X231018285Y-157396571D01*
X231375428Y-157396571D01*
X231518285Y-157325142D01*
X231589714Y-157253714D01*
X231661142Y-157110857D01*
X231661142Y-156968000D01*
X231589714Y-156825142D01*
X231518285Y-156753714D01*
X231375428Y-156682285D01*
X231089714Y-156610857D01*
X230946857Y-156539428D01*
X230875428Y-156468000D01*
X230803999Y-156325142D01*
X230803999Y-156182285D01*
X230875428Y-156039428D01*
X230946857Y-155968000D01*
X231089714Y-155896571D01*
X231446857Y-155896571D01*
X231661142Y-155968000D01*
X232303999Y-157396571D02*
X232303999Y-156396571D01*
X232303999Y-155896571D02*
X232232571Y-155968000D01*
X232303999Y-156039428D01*
X232375428Y-155968000D01*
X232303999Y-155896571D01*
X232303999Y-156039428D01*
X233018285Y-156396571D02*
X233018285Y-157396571D01*
X233018285Y-156539428D02*
X233089714Y-156468000D01*
X233232571Y-156396571D01*
X233446857Y-156396571D01*
X233589714Y-156468000D01*
X233661142Y-156610857D01*
X233661142Y-157396571D01*
X235018285Y-156396571D02*
X235018285Y-157610857D01*
X234946857Y-157753714D01*
X234875428Y-157825142D01*
X234732571Y-157896571D01*
X234518285Y-157896571D01*
X234375428Y-157825142D01*
X235018285Y-157325142D02*
X234875428Y-157396571D01*
X234589714Y-157396571D01*
X234446857Y-157325142D01*
X234375428Y-157253714D01*
X234303999Y-157110857D01*
X234303999Y-156682285D01*
X234375428Y-156539428D01*
X234446857Y-156468000D01*
X234589714Y-156396571D01*
X234875428Y-156396571D01*
X235018285Y-156468000D01*
X235946857Y-157396571D02*
X235803999Y-157325142D01*
X235732571Y-157182285D01*
X235732571Y-155896571D01*
X237089714Y-157325142D02*
X236946857Y-157396571D01*
X236661142Y-157396571D01*
X236518285Y-157325142D01*
X236446857Y-157182285D01*
X236446857Y-156610857D01*
X236518285Y-156468000D01*
X236661142Y-156396571D01*
X236946857Y-156396571D01*
X237089714Y-156468000D01*
X237161142Y-156610857D01*
X237161142Y-156753714D01*
X236446857Y-156896571D01*
X237804000Y-156825142D02*
X238946857Y-156825142D01*
X240232571Y-157325142D02*
X240089714Y-157396571D01*
X239804000Y-157396571D01*
X239661142Y-157325142D01*
X239589714Y-157182285D01*
X239589714Y-156610857D01*
X239661142Y-156468000D01*
X239804000Y-156396571D01*
X240089714Y-156396571D01*
X240232571Y-156468000D01*
X240304000Y-156610857D01*
X240304000Y-156753714D01*
X239589714Y-156896571D01*
X240946857Y-156396571D02*
X240946857Y-157396571D01*
X240946857Y-156539428D02*
X241018285Y-156468000D01*
X241161142Y-156396571D01*
X241375428Y-156396571D01*
X241518285Y-156468000D01*
X241589714Y-156610857D01*
X241589714Y-157396571D01*
X242946857Y-157396571D02*
X242946857Y-155896571D01*
X242946857Y-157325142D02*
X242804000Y-157396571D01*
X242518285Y-157396571D01*
X242375428Y-157325142D01*
X242304000Y-157253714D01*
X242232571Y-157110857D01*
X242232571Y-156682285D01*
X242304000Y-156539428D01*
X242375428Y-156468000D01*
X242518285Y-156396571D01*
X242804000Y-156396571D01*
X242946857Y-156468000D01*
X244232571Y-157325142D02*
X244089714Y-157396571D01*
X243804000Y-157396571D01*
X243661142Y-157325142D01*
X243589714Y-157182285D01*
X243589714Y-156610857D01*
X243661142Y-156468000D01*
X243804000Y-156396571D01*
X244089714Y-156396571D01*
X244232571Y-156468000D01*
X244304000Y-156610857D01*
X244304000Y-156753714D01*
X243589714Y-156896571D01*
X245589714Y-157396571D02*
X245589714Y-155896571D01*
X245589714Y-157325142D02*
X245446857Y-157396571D01*
X245161142Y-157396571D01*
X245018285Y-157325142D01*
X244946857Y-157253714D01*
X244875428Y-157110857D01*
X244875428Y-156682285D01*
X244946857Y-156539428D01*
X245018285Y-156468000D01*
X245161142Y-156396571D01*
X245446857Y-156396571D01*
X245589714Y-156468000D01*
X246304000Y-156825142D02*
X247446857Y-156825142D01*
X247946857Y-156396571D02*
X248518285Y-156396571D01*
X248161142Y-155896571D02*
X248161142Y-157182285D01*
X248232571Y-157325142D01*
X248375428Y-157396571D01*
X248518285Y-157396571D01*
X249232571Y-157396571D02*
X249089714Y-157325142D01*
X249018285Y-157253714D01*
X248946857Y-157110857D01*
X248946857Y-156682285D01*
X249018285Y-156539428D01*
X249089714Y-156468000D01*
X249232571Y-156396571D01*
X249446857Y-156396571D01*
X249589714Y-156468000D01*
X249661142Y-156539428D01*
X249732571Y-156682285D01*
X249732571Y-157110857D01*
X249661142Y-157253714D01*
X249589714Y-157325142D01*
X249446857Y-157396571D01*
X249232571Y-157396571D01*
X250375428Y-156825142D02*
X251518285Y-156825142D01*
X252232571Y-157396571D02*
X252232571Y-155896571D01*
X252589714Y-155896571D01*
X252804000Y-155968000D01*
X252946857Y-156110857D01*
X253018285Y-156253714D01*
X253089714Y-156539428D01*
X253089714Y-156753714D01*
X253018285Y-157039428D01*
X252946857Y-157182285D01*
X252804000Y-157325142D01*
X252589714Y-157396571D01*
X252232571Y-157396571D01*
X253732571Y-157396571D02*
X253732571Y-156396571D01*
X253732571Y-155896571D02*
X253661142Y-155968000D01*
X253732571Y-156039428D01*
X253804000Y-155968000D01*
X253732571Y-155896571D01*
X253732571Y-156039428D01*
X254232571Y-156396571D02*
X254804000Y-156396571D01*
X254446857Y-157396571D02*
X254446857Y-156110857D01*
X254518285Y-155968000D01*
X254661142Y-155896571D01*
X254804000Y-155896571D01*
X255089714Y-156396571D02*
X255661142Y-156396571D01*
X255304000Y-157396571D02*
X255304000Y-156110857D01*
X255375428Y-155968000D01*
X255518285Y-155896571D01*
X255661142Y-155896571D01*
X256732571Y-157325142D02*
X256589714Y-157396571D01*
X256304000Y-157396571D01*
X256161142Y-157325142D01*
X256089714Y-157182285D01*
X256089714Y-156610857D01*
X256161142Y-156468000D01*
X256304000Y-156396571D01*
X256589714Y-156396571D01*
X256732571Y-156468000D01*
X256804000Y-156610857D01*
X256804000Y-156753714D01*
X256089714Y-156896571D01*
X257446857Y-157396571D02*
X257446857Y-156396571D01*
X257446857Y-156682285D02*
X257518285Y-156539428D01*
X257589714Y-156468000D01*
X257732571Y-156396571D01*
X257875428Y-156396571D01*
X258946857Y-157325142D02*
X258804000Y-157396571D01*
X258518285Y-157396571D01*
X258375428Y-157325142D01*
X258304000Y-157182285D01*
X258304000Y-156610857D01*
X258375428Y-156468000D01*
X258518285Y-156396571D01*
X258804000Y-156396571D01*
X258946857Y-156468000D01*
X259018285Y-156610857D01*
X259018285Y-156753714D01*
X258304000Y-156896571D01*
X259661142Y-156396571D02*
X259661142Y-157396571D01*
X259661142Y-156539428D02*
X259732571Y-156468000D01*
X259875428Y-156396571D01*
X260089714Y-156396571D01*
X260232571Y-156468000D01*
X260304000Y-156610857D01*
X260304000Y-157396571D01*
X260804000Y-156396571D02*
X261375428Y-156396571D01*
X261018285Y-155896571D02*
X261018285Y-157182285D01*
X261089714Y-157325142D01*
X261232571Y-157396571D01*
X261375428Y-157396571D01*
X261875428Y-157396571D02*
X261875428Y-156396571D01*
X261875428Y-155896571D02*
X261804000Y-155968000D01*
X261875428Y-156039428D01*
X261946857Y-155968000D01*
X261875428Y-155896571D01*
X261875428Y-156039428D01*
X263232571Y-157396571D02*
X263232571Y-156610857D01*
X263161142Y-156468000D01*
X263018285Y-156396571D01*
X262732571Y-156396571D01*
X262589714Y-156468000D01*
X263232571Y-157325142D02*
X263089714Y-157396571D01*
X262732571Y-157396571D01*
X262589714Y-157325142D01*
X262518285Y-157182285D01*
X262518285Y-157039428D01*
X262589714Y-156896571D01*
X262732571Y-156825142D01*
X263089714Y-156825142D01*
X263232571Y-156753714D01*
X264161142Y-157396571D02*
X264018285Y-157325142D01*
X263946857Y-157182285D01*
X263946857Y-155896571D01*
X229839714Y-159875142D02*
X230054000Y-159946571D01*
X230411142Y-159946571D01*
X230554000Y-159875142D01*
X230625428Y-159803714D01*
X230696857Y-159660857D01*
X230696857Y-159518000D01*
X230625428Y-159375142D01*
X230554000Y-159303714D01*
X230411142Y-159232285D01*
X230125428Y-159160857D01*
X229982571Y-159089428D01*
X229911142Y-159018000D01*
X229839714Y-158875142D01*
X229839714Y-158732285D01*
X229911142Y-158589428D01*
X229982571Y-158518000D01*
X230125428Y-158446571D01*
X230482571Y-158446571D01*
X230696857Y-158518000D01*
X231339714Y-159946571D02*
X231339714Y-158446571D01*
X231839714Y-159518000D01*
X232339714Y-158446571D01*
X232339714Y-159946571D01*
X232982571Y-159518000D02*
X233696857Y-159518000D01*
X232839714Y-159946571D02*
X233339714Y-158446571D01*
X233839714Y-159946571D01*
X236554000Y-158375142D02*
X235268285Y-160303714D01*
X238054000Y-158446571D02*
X239054000Y-159946571D01*
X239054000Y-158446571D02*
X238054000Y-159946571D01*
X240339714Y-159946571D02*
X239625428Y-159946571D01*
X239625428Y-158446571D01*
X241696857Y-159946571D02*
X241196857Y-159232285D01*
X240839714Y-159946571D02*
X240839714Y-158446571D01*
X241411142Y-158446571D01*
X241554000Y-158518000D01*
X241625428Y-158589428D01*
X241696857Y-158732285D01*
X241696857Y-158946571D01*
X241625428Y-159089428D01*
X241554000Y-159160857D01*
X241411142Y-159232285D01*
X240839714Y-159232285D01*
X244125428Y-159875142D02*
X243982571Y-159946571D01*
X243696857Y-159946571D01*
X243554000Y-159875142D01*
X243482571Y-159803714D01*
X243411142Y-159660857D01*
X243411142Y-159232285D01*
X243482571Y-159089428D01*
X243554000Y-159018000D01*
X243696857Y-158946571D01*
X243982571Y-158946571D01*
X244125428Y-159018000D01*
X244982571Y-159946571D02*
X244839714Y-159875142D01*
X244768285Y-159803714D01*
X244696857Y-159660857D01*
X244696857Y-159232285D01*
X244768285Y-159089428D01*
X244839714Y-159018000D01*
X244982571Y-158946571D01*
X245196857Y-158946571D01*
X245339714Y-159018000D01*
X245411142Y-159089428D01*
X245482571Y-159232285D01*
X245482571Y-159660857D01*
X245411142Y-159803714D01*
X245339714Y-159875142D01*
X245196857Y-159946571D01*
X244982571Y-159946571D01*
X246125428Y-158946571D02*
X246125428Y-159946571D01*
X246125428Y-159089428D02*
X246196857Y-159018000D01*
X246339714Y-158946571D01*
X246554000Y-158946571D01*
X246696857Y-159018000D01*
X246768285Y-159160857D01*
X246768285Y-159946571D01*
X247339714Y-158946571D02*
X247696857Y-159946571D01*
X248054000Y-158946571D01*
X249196857Y-159875142D02*
X249054000Y-159946571D01*
X248768285Y-159946571D01*
X248625428Y-159875142D01*
X248554000Y-159732285D01*
X248554000Y-159160857D01*
X248625428Y-159018000D01*
X248768285Y-158946571D01*
X249054000Y-158946571D01*
X249196857Y-159018000D01*
X249268285Y-159160857D01*
X249268285Y-159303714D01*
X248554000Y-159446571D01*
X249911142Y-159946571D02*
X249911142Y-158946571D01*
X249911142Y-159232285D02*
X249982571Y-159089428D01*
X250054000Y-159018000D01*
X250196857Y-158946571D01*
X250339714Y-158946571D01*
X250625428Y-158946571D02*
X251196857Y-158946571D01*
X250839714Y-158446571D02*
X250839714Y-159732285D01*
X250911142Y-159875142D01*
X251054000Y-159946571D01*
X251196857Y-159946571D01*
X252268285Y-159875142D02*
X252125428Y-159946571D01*
X251839714Y-159946571D01*
X251696857Y-159875142D01*
X251625428Y-159732285D01*
X251625428Y-159160857D01*
X251696857Y-159018000D01*
X251839714Y-158946571D01*
X252125428Y-158946571D01*
X252268285Y-159018000D01*
X252339714Y-159160857D01*
X252339714Y-159303714D01*
X251625428Y-159446571D01*
X252982571Y-159946571D02*
X252982571Y-158946571D01*
X252982571Y-159232285D02*
X253054000Y-159089428D01*
X253125428Y-159018000D01*
X253268285Y-158946571D01*
X253411142Y-158946571D01*
D11*
%TO.C,C3*%
X239464000Y-122538000D02*
X236714000Y-122538000D01*
X230944000Y-122538000D02*
X233694000Y-122538000D01*
X230944000Y-129993563D02*
X230944000Y-122538000D01*
X239464000Y-129993563D02*
X239464000Y-122538000D01*
X238399563Y-131058000D02*
X236714000Y-131058000D01*
X232008437Y-131058000D02*
X233694000Y-131058000D01*
X232008437Y-131058000D02*
X230944000Y-129993563D01*
X238399563Y-131058000D02*
X239464000Y-129993563D01*
X232694000Y-132298000D02*
X232694000Y-131298000D01*
X232194000Y-131798000D02*
X233194000Y-131798000D01*
%TO.C,U4*%
X244440000Y-132600000D02*
X244440000Y-136050000D01*
X244440000Y-132600000D02*
X244440000Y-130650000D01*
X249560000Y-132600000D02*
X249560000Y-134550000D01*
X249560000Y-132600000D02*
X249560000Y-130650000D01*
%TO.C,R7*%
X253490000Y-127763748D02*
X253490000Y-128286252D01*
X254910000Y-127763748D02*
X254910000Y-128286252D01*
%TO.C,R6*%
X254910000Y-137461252D02*
X254910000Y-136938748D01*
X253490000Y-137461252D02*
X253490000Y-136938748D01*
D12*
%TO.C,VOS2*%
X244400000Y-120650000D02*
G75*
G03*
X244400000Y-120650000I-1400000J0D01*
G01*
%TO.C,VOS1*%
X244400000Y-144500000D02*
G75*
G03*
X244400000Y-144500000I-1400000J0D01*
G01*
D11*
%TO.C,U3*%
X259500000Y-104013000D02*
G75*
G03*
X259500000Y-104013000I-5500000J0D01*
G01*
%TO.C,U2*%
X246800000Y-104140000D02*
G75*
G03*
X246800000Y-104140000I-5500000J0D01*
G01*
%TO.C,U1*%
X234100000Y-104140000D02*
G75*
G03*
X234100000Y-104140000I-5500000J0D01*
G01*
%TO.C,R5*%
X244857748Y-128218000D02*
X245380252Y-128218000D01*
X244857748Y-126798000D02*
X245380252Y-126798000D01*
%TO.C,R4*%
X244585748Y-138378000D02*
X245108252Y-138378000D01*
X244585748Y-136958000D02*
X245108252Y-136958000D01*
%TO.C,R3*%
X246838748Y-125932000D02*
X247361252Y-125932000D01*
X246838748Y-124512000D02*
X247361252Y-124512000D01*
%TO.C,R2*%
X246838748Y-142950000D02*
X247361252Y-142950000D01*
X246838748Y-141530000D02*
X247361252Y-141530000D01*
%TO.C,R1*%
X240844000Y-138685748D02*
X240844000Y-139208252D01*
X242264000Y-138685748D02*
X242264000Y-139208252D01*
%TO.C,JPOS1*%
X269076000Y-154940000D02*
X268576000Y-155190000D01*
X268576000Y-155190000D02*
X268576000Y-154690000D01*
X268576000Y-154690000D02*
X269076000Y-154940000D01*
%TO.C,JNEG1*%
X269076000Y-110466000D02*
X268576000Y-110716000D01*
X268576000Y-110716000D02*
X268576000Y-110216000D01*
X268576000Y-110216000D02*
X269076000Y-110466000D01*
%TO.C,J5*%
X277140000Y-130810000D02*
G75*
G03*
X277140000Y-130810000I-7900000J0D01*
G01*
X276000000Y-141320000D02*
X275360000Y-141710000D01*
X274500000Y-141710000D02*
X274350000Y-141440000D01*
X275660000Y-140710000D02*
X276000000Y-141320000D01*
X284040000Y-127750000D02*
X279970000Y-127750000D01*
X284040000Y-126250000D02*
X281740000Y-126250000D01*
X274480000Y-119910000D02*
X263120000Y-119910000D01*
X279970000Y-127750000D02*
X279970000Y-127750000D01*
X260540000Y-140710000D02*
G75*
G03*
X260540000Y-140710000I-1200000J0D01*
G01*
X284040000Y-133870000D02*
X284040000Y-135370000D01*
X284040000Y-126250000D02*
X284040000Y-127750000D01*
X281740000Y-131070000D02*
X281740000Y-131550000D01*
X281740000Y-126250000D02*
X281740000Y-120910000D01*
X275360000Y-141710000D02*
X274500000Y-141710000D01*
X269240000Y-141710000D02*
X264000000Y-141710000D01*
X279270000Y-135370000D02*
X284040000Y-135370000D01*
X284040000Y-133870000D02*
X279970000Y-133870000D01*
X280280000Y-131750000D02*
X281540000Y-131750000D01*
X280140000Y-130870000D02*
X281540000Y-130870000D01*
X280140000Y-130810000D02*
G75*
G03*
X280140000Y-130810000I-10900000J0D01*
G01*
X278840000Y-130810000D02*
G75*
G03*
X278840000Y-130810000I-9600000J0D01*
G01*
X280340000Y-120910000D02*
G75*
G03*
X280340000Y-120910000I-1200000J0D01*
G01*
X279110864Y-135436364D02*
G75*
G02*
X279270000Y-135370000I149136J-133636D01*
G01*
X275933832Y-139412203D02*
G75*
G03*
X275660000Y-140710000I616168J-807797D01*
G01*
X280084370Y-131908418D02*
G75*
G02*
X280280000Y-131750000I195630J-41582D01*
G01*
X281740000Y-131550000D02*
G75*
G02*
X281540000Y-131750000I-200000J0D01*
G01*
X281540000Y-130870000D02*
G75*
G02*
X281740000Y-131070000I0J-200000D01*
G01*
X279760288Y-127949009D02*
G75*
G02*
X279970000Y-127750000I209712J-10991D01*
G01*
X279760799Y-133678303D02*
G75*
G03*
X279970000Y-133870000I209201J18303D01*
G01*
X273191372Y-140969214D02*
G75*
G02*
X274350000Y-141440000I288628J-950786D01*
G01*
X257509262Y-135129050D02*
G75*
G02*
X263120000Y-119910000I11730738J4319050D01*
G01*
X260922431Y-142766689D02*
G75*
G02*
X264000000Y-141710000I3077569J-3953311D01*
G01*
X260930969Y-142761980D02*
G75*
G02*
X257110000Y-139380000I-1590969J2051980D01*
G01*
X257506159Y-135118081D02*
G75*
G02*
X257110000Y-139380000I-4706159J-1711919D01*
G01*
X277542858Y-118858381D02*
G75*
G02*
X281740000Y-120910000I1597142J-2051619D01*
G01*
X277545283Y-118857530D02*
G75*
G02*
X274480000Y-119910000I-3065283J3937530D01*
G01*
%TO.C,J2*%
X218858000Y-132600000D02*
X219358000Y-132350000D01*
X219358000Y-132350000D02*
X219358000Y-132850000D01*
X219358000Y-132850000D02*
X218858000Y-132600000D01*
%TO.C,J1*%
X219112000Y-147550000D02*
X219612000Y-147300000D01*
X219612000Y-147300000D02*
X219612000Y-147800000D01*
X219612000Y-147800000D02*
X219112000Y-147550000D01*
%TO.C,C2*%
X246838748Y-140664000D02*
X247361252Y-140664000D01*
X246838748Y-139244000D02*
X247361252Y-139244000D01*
%TO.C,C1*%
X246838748Y-123773000D02*
X247361252Y-123773000D01*
X246838748Y-122353000D02*
X247361252Y-122353000D01*
%TO.C,H4*%
D12*
X271018095Y-101282380D02*
X271018095Y-100282380D01*
X271018095Y-100758571D02*
X271589523Y-100758571D01*
X271589523Y-101282380D02*
X271589523Y-100282380D01*
X272494285Y-100615714D02*
X272494285Y-101282380D01*
X272256190Y-100234761D02*
X272018095Y-100949047D01*
X272637142Y-100949047D01*
%TO.C,H3*%
X264414095Y-161480380D02*
X264414095Y-160480380D01*
X264414095Y-160956571D02*
X264985523Y-160956571D01*
X264985523Y-161480380D02*
X264985523Y-160480380D01*
X265366476Y-160480380D02*
X265985523Y-160480380D01*
X265652190Y-160861333D01*
X265795047Y-160861333D01*
X265890285Y-160908952D01*
X265937904Y-160956571D01*
X265985523Y-161051809D01*
X265985523Y-161289904D01*
X265937904Y-161385142D01*
X265890285Y-161432761D01*
X265795047Y-161480380D01*
X265509333Y-161480380D01*
X265414095Y-161432761D01*
X265366476Y-161385142D01*
%TO.C,H2*%
X215138095Y-160972380D02*
X215138095Y-159972380D01*
X215138095Y-160448571D02*
X215709523Y-160448571D01*
X215709523Y-160972380D02*
X215709523Y-159972380D01*
X216138095Y-160067619D02*
X216185714Y-160020000D01*
X216280952Y-159972380D01*
X216519047Y-159972380D01*
X216614285Y-160020000D01*
X216661904Y-160067619D01*
X216709523Y-160162857D01*
X216709523Y-160258095D01*
X216661904Y-160400952D01*
X216090476Y-160972380D01*
X216709523Y-160972380D01*
%TO.C,H1*%
X215138095Y-101282380D02*
X215138095Y-100282380D01*
X215138095Y-100758571D02*
X215709523Y-100758571D01*
X215709523Y-101282380D02*
X215709523Y-100282380D01*
X216709523Y-101282380D02*
X216138095Y-101282380D01*
X216423809Y-101282380D02*
X216423809Y-100282380D01*
X216328571Y-100425238D01*
X216233333Y-100520476D01*
X216138095Y-100568095D01*
%TO.C,C3*%
X230361142Y-126964666D02*
X230408761Y-127012285D01*
X230456380Y-127155142D01*
X230456380Y-127250380D01*
X230408761Y-127393238D01*
X230313523Y-127488476D01*
X230218285Y-127536095D01*
X230027809Y-127583714D01*
X229884952Y-127583714D01*
X229694476Y-127536095D01*
X229599238Y-127488476D01*
X229504000Y-127393238D01*
X229456380Y-127250380D01*
X229456380Y-127155142D01*
X229504000Y-127012285D01*
X229551619Y-126964666D01*
X229456380Y-126631333D02*
X229456380Y-126012285D01*
X229837333Y-126345619D01*
X229837333Y-126202761D01*
X229884952Y-126107523D01*
X229932571Y-126059904D01*
X230027809Y-126012285D01*
X230265904Y-126012285D01*
X230361142Y-126059904D01*
X230408761Y-126107523D01*
X230456380Y-126202761D01*
X230456380Y-126488476D01*
X230408761Y-126583714D01*
X230361142Y-126631333D01*
%TO.C,U4*%
X243052380Y-133361904D02*
X243861904Y-133361904D01*
X243957142Y-133314285D01*
X244004761Y-133266666D01*
X244052380Y-133171428D01*
X244052380Y-132980952D01*
X244004761Y-132885714D01*
X243957142Y-132838095D01*
X243861904Y-132790476D01*
X243052380Y-132790476D01*
X243385714Y-131885714D02*
X244052380Y-131885714D01*
X243004761Y-132123809D02*
X243719047Y-132361904D01*
X243719047Y-131742857D01*
%TO.C,R7*%
X256302380Y-128191666D02*
X255826190Y-128525000D01*
X256302380Y-128763095D02*
X255302380Y-128763095D01*
X255302380Y-128382142D01*
X255350000Y-128286904D01*
X255397619Y-128239285D01*
X255492857Y-128191666D01*
X255635714Y-128191666D01*
X255730952Y-128239285D01*
X255778571Y-128286904D01*
X255826190Y-128382142D01*
X255826190Y-128763095D01*
X255302380Y-127858333D02*
X255302380Y-127191666D01*
X256302380Y-127620238D01*
%TO.C,R6*%
X253002380Y-137366666D02*
X252526190Y-137700000D01*
X253002380Y-137938095D02*
X252002380Y-137938095D01*
X252002380Y-137557142D01*
X252050000Y-137461904D01*
X252097619Y-137414285D01*
X252192857Y-137366666D01*
X252335714Y-137366666D01*
X252430952Y-137414285D01*
X252478571Y-137461904D01*
X252526190Y-137557142D01*
X252526190Y-137938095D01*
X252002380Y-136509523D02*
X252002380Y-136700000D01*
X252050000Y-136795238D01*
X252097619Y-136842857D01*
X252240476Y-136938095D01*
X252430952Y-136985714D01*
X252811904Y-136985714D01*
X252907142Y-136938095D01*
X252954761Y-136890476D01*
X253002380Y-136795238D01*
X253002380Y-136604761D01*
X252954761Y-136509523D01*
X252907142Y-136461904D01*
X252811904Y-136414285D01*
X252573809Y-136414285D01*
X252478571Y-136461904D01*
X252430952Y-136509523D01*
X252383333Y-136604761D01*
X252383333Y-136795238D01*
X252430952Y-136890476D01*
X252478571Y-136938095D01*
X252573809Y-136985714D01*
%TO.C,VOS2*%
X239666666Y-122602380D02*
X240238095Y-122602380D01*
X239952380Y-123602380D02*
X239952380Y-122602380D01*
X240952380Y-123554761D02*
X240857142Y-123602380D01*
X240666666Y-123602380D01*
X240571428Y-123554761D01*
X240523809Y-123459523D01*
X240523809Y-123078571D01*
X240571428Y-122983333D01*
X240666666Y-122935714D01*
X240857142Y-122935714D01*
X240952380Y-122983333D01*
X241000000Y-123078571D01*
X241000000Y-123173809D01*
X240523809Y-123269047D01*
X241380952Y-123554761D02*
X241476190Y-123602380D01*
X241666666Y-123602380D01*
X241761904Y-123554761D01*
X241809523Y-123459523D01*
X241809523Y-123411904D01*
X241761904Y-123316666D01*
X241666666Y-123269047D01*
X241523809Y-123269047D01*
X241428571Y-123221428D01*
X241380952Y-123126190D01*
X241380952Y-123078571D01*
X241428571Y-122983333D01*
X241523809Y-122935714D01*
X241666666Y-122935714D01*
X241761904Y-122983333D01*
X242095238Y-122935714D02*
X242476190Y-122935714D01*
X242238095Y-122602380D02*
X242238095Y-123459523D01*
X242285714Y-123554761D01*
X242380952Y-123602380D01*
X242476190Y-123602380D01*
X242809523Y-123602380D02*
X242809523Y-122602380D01*
X243190476Y-122602380D01*
X243285714Y-122650000D01*
X243333333Y-122697619D01*
X243380952Y-122792857D01*
X243380952Y-122935714D01*
X243333333Y-123030952D01*
X243285714Y-123078571D01*
X243190476Y-123126190D01*
X242809523Y-123126190D01*
X243952380Y-123602380D02*
X243857142Y-123554761D01*
X243809523Y-123507142D01*
X243761904Y-123411904D01*
X243761904Y-123126190D01*
X243809523Y-123030952D01*
X243857142Y-122983333D01*
X243952380Y-122935714D01*
X244095238Y-122935714D01*
X244190476Y-122983333D01*
X244238095Y-123030952D01*
X244285714Y-123126190D01*
X244285714Y-123411904D01*
X244238095Y-123507142D01*
X244190476Y-123554761D01*
X244095238Y-123602380D01*
X243952380Y-123602380D01*
X244714285Y-123602380D02*
X244714285Y-122935714D01*
X244714285Y-122602380D02*
X244666666Y-122650000D01*
X244714285Y-122697619D01*
X244761904Y-122650000D01*
X244714285Y-122602380D01*
X244714285Y-122697619D01*
X245190476Y-122935714D02*
X245190476Y-123602380D01*
X245190476Y-123030952D02*
X245238095Y-122983333D01*
X245333333Y-122935714D01*
X245476190Y-122935714D01*
X245571428Y-122983333D01*
X245619047Y-123078571D01*
X245619047Y-123602380D01*
X245952380Y-122935714D02*
X246333333Y-122935714D01*
X246095238Y-122602380D02*
X246095238Y-123459523D01*
X246142857Y-123554761D01*
X246238095Y-123602380D01*
X246333333Y-123602380D01*
%TO.C,VOS1*%
X239666666Y-146452380D02*
X240238095Y-146452380D01*
X239952380Y-147452380D02*
X239952380Y-146452380D01*
X240952380Y-147404761D02*
X240857142Y-147452380D01*
X240666666Y-147452380D01*
X240571428Y-147404761D01*
X240523809Y-147309523D01*
X240523809Y-146928571D01*
X240571428Y-146833333D01*
X240666666Y-146785714D01*
X240857142Y-146785714D01*
X240952380Y-146833333D01*
X241000000Y-146928571D01*
X241000000Y-147023809D01*
X240523809Y-147119047D01*
X241380952Y-147404761D02*
X241476190Y-147452380D01*
X241666666Y-147452380D01*
X241761904Y-147404761D01*
X241809523Y-147309523D01*
X241809523Y-147261904D01*
X241761904Y-147166666D01*
X241666666Y-147119047D01*
X241523809Y-147119047D01*
X241428571Y-147071428D01*
X241380952Y-146976190D01*
X241380952Y-146928571D01*
X241428571Y-146833333D01*
X241523809Y-146785714D01*
X241666666Y-146785714D01*
X241761904Y-146833333D01*
X242095238Y-146785714D02*
X242476190Y-146785714D01*
X242238095Y-146452380D02*
X242238095Y-147309523D01*
X242285714Y-147404761D01*
X242380952Y-147452380D01*
X242476190Y-147452380D01*
X242809523Y-147452380D02*
X242809523Y-146452380D01*
X243190476Y-146452380D01*
X243285714Y-146500000D01*
X243333333Y-146547619D01*
X243380952Y-146642857D01*
X243380952Y-146785714D01*
X243333333Y-146880952D01*
X243285714Y-146928571D01*
X243190476Y-146976190D01*
X242809523Y-146976190D01*
X243952380Y-147452380D02*
X243857142Y-147404761D01*
X243809523Y-147357142D01*
X243761904Y-147261904D01*
X243761904Y-146976190D01*
X243809523Y-146880952D01*
X243857142Y-146833333D01*
X243952380Y-146785714D01*
X244095238Y-146785714D01*
X244190476Y-146833333D01*
X244238095Y-146880952D01*
X244285714Y-146976190D01*
X244285714Y-147261904D01*
X244238095Y-147357142D01*
X244190476Y-147404761D01*
X244095238Y-147452380D01*
X243952380Y-147452380D01*
X244714285Y-147452380D02*
X244714285Y-146785714D01*
X244714285Y-146452380D02*
X244666666Y-146500000D01*
X244714285Y-146547619D01*
X244761904Y-146500000D01*
X244714285Y-146452380D01*
X244714285Y-146547619D01*
X245190476Y-146785714D02*
X245190476Y-147452380D01*
X245190476Y-146880952D02*
X245238095Y-146833333D01*
X245333333Y-146785714D01*
X245476190Y-146785714D01*
X245571428Y-146833333D01*
X245619047Y-146928571D01*
X245619047Y-147452380D01*
X245952380Y-146785714D02*
X246333333Y-146785714D01*
X246095238Y-146452380D02*
X246095238Y-147309523D01*
X246142857Y-147404761D01*
X246238095Y-147452380D01*
X246333333Y-147452380D01*
%TO.C,U3*%
X253238095Y-96965380D02*
X253238095Y-97774904D01*
X253285714Y-97870142D01*
X253333333Y-97917761D01*
X253428571Y-97965380D01*
X253619047Y-97965380D01*
X253714285Y-97917761D01*
X253761904Y-97870142D01*
X253809523Y-97774904D01*
X253809523Y-96965380D01*
X254190476Y-96965380D02*
X254809523Y-96965380D01*
X254476190Y-97346333D01*
X254619047Y-97346333D01*
X254714285Y-97393952D01*
X254761904Y-97441571D01*
X254809523Y-97536809D01*
X254809523Y-97774904D01*
X254761904Y-97870142D01*
X254714285Y-97917761D01*
X254619047Y-97965380D01*
X254333333Y-97965380D01*
X254238095Y-97917761D01*
X254190476Y-97870142D01*
%TO.C,U2*%
X240538095Y-97092380D02*
X240538095Y-97901904D01*
X240585714Y-97997142D01*
X240633333Y-98044761D01*
X240728571Y-98092380D01*
X240919047Y-98092380D01*
X241014285Y-98044761D01*
X241061904Y-97997142D01*
X241109523Y-97901904D01*
X241109523Y-97092380D01*
X241538095Y-97187619D02*
X241585714Y-97140000D01*
X241680952Y-97092380D01*
X241919047Y-97092380D01*
X242014285Y-97140000D01*
X242061904Y-97187619D01*
X242109523Y-97282857D01*
X242109523Y-97378095D01*
X242061904Y-97520952D01*
X241490476Y-98092380D01*
X242109523Y-98092380D01*
%TO.C,U1*%
X227838095Y-97092380D02*
X227838095Y-97901904D01*
X227885714Y-97997142D01*
X227933333Y-98044761D01*
X228028571Y-98092380D01*
X228219047Y-98092380D01*
X228314285Y-98044761D01*
X228361904Y-97997142D01*
X228409523Y-97901904D01*
X228409523Y-97092380D01*
X229409523Y-98092380D02*
X228838095Y-98092380D01*
X229123809Y-98092380D02*
X229123809Y-97092380D01*
X229028571Y-97235238D01*
X228933333Y-97330476D01*
X228838095Y-97378095D01*
%TO.C,R5*%
X241768333Y-127833380D02*
X241435000Y-127357190D01*
X241196904Y-127833380D02*
X241196904Y-126833380D01*
X241577857Y-126833380D01*
X241673095Y-126881000D01*
X241720714Y-126928619D01*
X241768333Y-127023857D01*
X241768333Y-127166714D01*
X241720714Y-127261952D01*
X241673095Y-127309571D01*
X241577857Y-127357190D01*
X241196904Y-127357190D01*
X242673095Y-126833380D02*
X242196904Y-126833380D01*
X242149285Y-127309571D01*
X242196904Y-127261952D01*
X242292142Y-127214333D01*
X242530238Y-127214333D01*
X242625476Y-127261952D01*
X242673095Y-127309571D01*
X242720714Y-127404809D01*
X242720714Y-127642904D01*
X242673095Y-127738142D01*
X242625476Y-127785761D01*
X242530238Y-127833380D01*
X242292142Y-127833380D01*
X242196904Y-127785761D01*
X242149285Y-127738142D01*
%TO.C,R4*%
X247719333Y-138120380D02*
X247386000Y-137644190D01*
X247147904Y-138120380D02*
X247147904Y-137120380D01*
X247528857Y-137120380D01*
X247624095Y-137168000D01*
X247671714Y-137215619D01*
X247719333Y-137310857D01*
X247719333Y-137453714D01*
X247671714Y-137548952D01*
X247624095Y-137596571D01*
X247528857Y-137644190D01*
X247147904Y-137644190D01*
X248576476Y-137453714D02*
X248576476Y-138120380D01*
X248338380Y-137072761D02*
X248100285Y-137787047D01*
X248719333Y-137787047D01*
%TO.C,R3*%
X249981333Y-125665380D02*
X249648000Y-125189190D01*
X249409904Y-125665380D02*
X249409904Y-124665380D01*
X249790857Y-124665380D01*
X249886095Y-124713000D01*
X249933714Y-124760619D01*
X249981333Y-124855857D01*
X249981333Y-124998714D01*
X249933714Y-125093952D01*
X249886095Y-125141571D01*
X249790857Y-125189190D01*
X249409904Y-125189190D01*
X250314666Y-124665380D02*
X250933714Y-124665380D01*
X250600380Y-125046333D01*
X250743238Y-125046333D01*
X250838476Y-125093952D01*
X250886095Y-125141571D01*
X250933714Y-125236809D01*
X250933714Y-125474904D01*
X250886095Y-125570142D01*
X250838476Y-125617761D01*
X250743238Y-125665380D01*
X250457523Y-125665380D01*
X250362285Y-125617761D01*
X250314666Y-125570142D01*
%TO.C,R2*%
X243894333Y-142692380D02*
X243561000Y-142216190D01*
X243322904Y-142692380D02*
X243322904Y-141692380D01*
X243703857Y-141692380D01*
X243799095Y-141740000D01*
X243846714Y-141787619D01*
X243894333Y-141882857D01*
X243894333Y-142025714D01*
X243846714Y-142120952D01*
X243799095Y-142168571D01*
X243703857Y-142216190D01*
X243322904Y-142216190D01*
X244275285Y-141787619D02*
X244322904Y-141740000D01*
X244418142Y-141692380D01*
X244656238Y-141692380D01*
X244751476Y-141740000D01*
X244799095Y-141787619D01*
X244846714Y-141882857D01*
X244846714Y-141978095D01*
X244799095Y-142120952D01*
X244227666Y-142692380D01*
X244846714Y-142692380D01*
%TO.C,R1*%
X243656380Y-139113666D02*
X243180190Y-139447000D01*
X243656380Y-139685095D02*
X242656380Y-139685095D01*
X242656380Y-139304142D01*
X242704000Y-139208904D01*
X242751619Y-139161285D01*
X242846857Y-139113666D01*
X242989714Y-139113666D01*
X243084952Y-139161285D01*
X243132571Y-139208904D01*
X243180190Y-139304142D01*
X243180190Y-139685095D01*
X243656380Y-138161285D02*
X243656380Y-138732714D01*
X243656380Y-138447000D02*
X242656380Y-138447000D01*
X242799238Y-138542238D01*
X242894476Y-138637476D01*
X242942095Y-138732714D01*
%TO.C,JPOS1*%
X270742666Y-147392380D02*
X270742666Y-148106666D01*
X270695047Y-148249523D01*
X270599809Y-148344761D01*
X270456952Y-148392380D01*
X270361714Y-148392380D01*
X271218857Y-148392380D02*
X271218857Y-147392380D01*
X271599809Y-147392380D01*
X271695047Y-147440000D01*
X271742666Y-147487619D01*
X271790285Y-147582857D01*
X271790285Y-147725714D01*
X271742666Y-147820952D01*
X271695047Y-147868571D01*
X271599809Y-147916190D01*
X271218857Y-147916190D01*
X272409333Y-147392380D02*
X272599809Y-147392380D01*
X272695047Y-147440000D01*
X272790285Y-147535238D01*
X272837904Y-147725714D01*
X272837904Y-148059047D01*
X272790285Y-148249523D01*
X272695047Y-148344761D01*
X272599809Y-148392380D01*
X272409333Y-148392380D01*
X272314095Y-148344761D01*
X272218857Y-148249523D01*
X272171238Y-148059047D01*
X272171238Y-147725714D01*
X272218857Y-147535238D01*
X272314095Y-147440000D01*
X272409333Y-147392380D01*
X273218857Y-148344761D02*
X273361714Y-148392380D01*
X273599809Y-148392380D01*
X273695047Y-148344761D01*
X273742666Y-148297142D01*
X273790285Y-148201904D01*
X273790285Y-148106666D01*
X273742666Y-148011428D01*
X273695047Y-147963809D01*
X273599809Y-147916190D01*
X273409333Y-147868571D01*
X273314095Y-147820952D01*
X273266476Y-147773333D01*
X273218857Y-147678095D01*
X273218857Y-147582857D01*
X273266476Y-147487619D01*
X273314095Y-147440000D01*
X273409333Y-147392380D01*
X273647428Y-147392380D01*
X273790285Y-147440000D01*
X274742666Y-148392380D02*
X274171238Y-148392380D01*
X274456952Y-148392380D02*
X274456952Y-147392380D01*
X274361714Y-147535238D01*
X274266476Y-147630476D01*
X274171238Y-147678095D01*
%TO.C,JNEG1*%
X270766476Y-102918380D02*
X270766476Y-103632666D01*
X270718857Y-103775523D01*
X270623619Y-103870761D01*
X270480761Y-103918380D01*
X270385523Y-103918380D01*
X271242666Y-103918380D02*
X271242666Y-102918380D01*
X271814095Y-103918380D01*
X271814095Y-102918380D01*
X272290285Y-103394571D02*
X272623619Y-103394571D01*
X272766476Y-103918380D02*
X272290285Y-103918380D01*
X272290285Y-102918380D01*
X272766476Y-102918380D01*
X273718857Y-102966000D02*
X273623619Y-102918380D01*
X273480761Y-102918380D01*
X273337904Y-102966000D01*
X273242666Y-103061238D01*
X273195047Y-103156476D01*
X273147428Y-103346952D01*
X273147428Y-103489809D01*
X273195047Y-103680285D01*
X273242666Y-103775523D01*
X273337904Y-103870761D01*
X273480761Y-103918380D01*
X273576000Y-103918380D01*
X273718857Y-103870761D01*
X273766476Y-103823142D01*
X273766476Y-103489809D01*
X273576000Y-103489809D01*
X274718857Y-103918380D02*
X274147428Y-103918380D01*
X274433142Y-103918380D02*
X274433142Y-102918380D01*
X274337904Y-103061238D01*
X274242666Y-103156476D01*
X274147428Y-103204095D01*
%TO.C,J5*%
X255192380Y-131143333D02*
X255906666Y-131143333D01*
X256049523Y-131190952D01*
X256144761Y-131286190D01*
X256192380Y-131429047D01*
X256192380Y-131524285D01*
X255192380Y-130190952D02*
X255192380Y-130667142D01*
X255668571Y-130714761D01*
X255620952Y-130667142D01*
X255573333Y-130571904D01*
X255573333Y-130333809D01*
X255620952Y-130238571D01*
X255668571Y-130190952D01*
X255763809Y-130143333D01*
X256001904Y-130143333D01*
X256097142Y-130190952D01*
X256144761Y-130238571D01*
X256192380Y-130333809D01*
X256192380Y-130571904D01*
X256144761Y-130667142D01*
X256097142Y-130714761D01*
%TO.C,J2*%
X215024666Y-139052380D02*
X215024666Y-139766666D01*
X214977047Y-139909523D01*
X214881809Y-140004761D01*
X214738952Y-140052380D01*
X214643714Y-140052380D01*
X215453238Y-139147619D02*
X215500857Y-139100000D01*
X215596095Y-139052380D01*
X215834190Y-139052380D01*
X215929428Y-139100000D01*
X215977047Y-139147619D01*
X216024666Y-139242857D01*
X216024666Y-139338095D01*
X215977047Y-139480952D01*
X215405619Y-140052380D01*
X216024666Y-140052380D01*
%TO.C,J1*%
X215278666Y-154002380D02*
X215278666Y-154716666D01*
X215231047Y-154859523D01*
X215135809Y-154954761D01*
X214992952Y-155002380D01*
X214897714Y-155002380D01*
X216278666Y-155002380D02*
X215707238Y-155002380D01*
X215992952Y-155002380D02*
X215992952Y-154002380D01*
X215897714Y-154145238D01*
X215802476Y-154240476D01*
X215707238Y-154288095D01*
%TO.C,C2*%
X243876333Y-140438142D02*
X243828714Y-140485761D01*
X243685857Y-140533380D01*
X243590619Y-140533380D01*
X243447761Y-140485761D01*
X243352523Y-140390523D01*
X243304904Y-140295285D01*
X243257285Y-140104809D01*
X243257285Y-139961952D01*
X243304904Y-139771476D01*
X243352523Y-139676238D01*
X243447761Y-139581000D01*
X243590619Y-139533380D01*
X243685857Y-139533380D01*
X243828714Y-139581000D01*
X243876333Y-139628619D01*
X244257285Y-139628619D02*
X244304904Y-139581000D01*
X244400142Y-139533380D01*
X244638238Y-139533380D01*
X244733476Y-139581000D01*
X244781095Y-139628619D01*
X244828714Y-139723857D01*
X244828714Y-139819095D01*
X244781095Y-139961952D01*
X244209666Y-140533380D01*
X244828714Y-140533380D01*
%TO.C,C1*%
X246933333Y-121770142D02*
X246885714Y-121817761D01*
X246742857Y-121865380D01*
X246647619Y-121865380D01*
X246504761Y-121817761D01*
X246409523Y-121722523D01*
X246361904Y-121627285D01*
X246314285Y-121436809D01*
X246314285Y-121293952D01*
X246361904Y-121103476D01*
X246409523Y-121008238D01*
X246504761Y-120913000D01*
X246647619Y-120865380D01*
X246742857Y-120865380D01*
X246885714Y-120913000D01*
X246933333Y-120960619D01*
X247885714Y-121865380D02*
X247314285Y-121865380D01*
X247600000Y-121865380D02*
X247600000Y-120865380D01*
X247504761Y-121008238D01*
X247409523Y-121103476D01*
X247314285Y-121151095D01*
%TD*%
M02*
