M48
; DRILL file {KiCad (5.1.6-0-10_14)} date Wednesday, August 19, 2020 at 03:58:15 PM
; FORMAT={-:-/ absolute / inch / decimal}
; #@! TF.CreationDate,2020-08-19T15:58:15-07:00
; #@! TF.GenerationSoftware,Kicad,Pcbnew,(5.1.6-0-10_14)
; #@! TF.FileFunction,Plated,1,2,PTH
FMAT,2
INCH
T1C0.0157
T2C0.0394
T3C0.0472
T4C0.0630
T5C0.1213
T6C0.2402
%
G90
G05
T1
X8.62Y-5.11
X8.62Y-5.33
X8.62Y-5.7
X8.62Y-5.92
X9.18Y-4.87
X9.51Y-5.38
X9.5163Y-5.07
X9.57Y-5.1237
X9.63Y-5.25
X9.74Y-5.06
X9.81Y-5.51
X9.81Y-5.6
X9.815Y-5.25
X9.82Y-4.86
X9.82Y-4.94
X10.6Y-4.24
X10.6Y-4.46
X10.61Y-6.21
X10.7Y-5.9
T2
X9.5669Y-5.689
X9.5669Y-4.75
T3
X10.7575Y-5.1575
T4
X10.6Y-5.0
X10.6Y-5.315
T5
X10.7Y-3.95
X10.44Y-6.32
X8.5Y-3.95
X8.5Y-6.3
T6
X9.5Y-4.1
X10.0Y-4.095
X9.0Y-4.1
T0
M30
