%TF.GenerationSoftware,KiCad,Pcbnew,(5.1.6-0-10_14)*%
%TF.CreationDate,2020-08-19T15:58:13-07:00*%
%TF.ProjectId,single_ended_differential_converter,73696e67-6c65-45f6-956e-6465645f6469,rev?*%
%TF.SameCoordinates,Original*%
%TF.FileFunction,Paste,Bot*%
%TF.FilePolarity,Positive*%
%FSLAX46Y46*%
G04 Gerber Fmt 4.6, Leading zero omitted, Abs format (unit mm)*
G04 Created by KiCad (PCBNEW (5.1.6-0-10_14)) date 2020-08-19 15:58:13*
%MOMM*%
%LPD*%
G01*
G04 APERTURE LIST*
%ADD10R,5.080000X1.600000*%
G04 APERTURE END LIST*
%TO.C,RF1*%
G36*
G01*
X246556000Y-131883999D02*
X246556000Y-132784001D01*
G75*
G02*
X246306001Y-133034000I-249999J0D01*
G01*
X245655999Y-133034000D01*
G75*
G02*
X245406000Y-132784001I0J249999D01*
G01*
X245406000Y-131883999D01*
G75*
G02*
X245655999Y-131634000I249999J0D01*
G01*
X246306001Y-131634000D01*
G75*
G02*
X246556000Y-131883999I0J-249999D01*
G01*
G37*
G36*
G01*
X248606000Y-131883999D02*
X248606000Y-132784001D01*
G75*
G02*
X248356001Y-133034000I-249999J0D01*
G01*
X247705999Y-133034000D01*
G75*
G02*
X247456000Y-132784001I0J249999D01*
G01*
X247456000Y-131883999D01*
G75*
G02*
X247705999Y-131634000I249999J0D01*
G01*
X248356001Y-131634000D01*
G75*
G02*
X248606000Y-131883999I0J-249999D01*
G01*
G37*
%TD*%
D10*
%TO.C,JPOS1*%
X272796000Y-152170000D03*
X272796000Y-157710000D03*
%TD*%
%TO.C,JNEG1*%
X272796000Y-107696000D03*
X272796000Y-113236000D03*
%TD*%
%TO.C,J2*%
X215138000Y-135370000D03*
X215138000Y-129830000D03*
%TD*%
%TO.C,J1*%
X215392000Y-150320000D03*
X215392000Y-144780000D03*
%TD*%
%TO.C,CF1*%
G36*
G01*
X246556000Y-133915999D02*
X246556000Y-134816001D01*
G75*
G02*
X246306001Y-135066000I-249999J0D01*
G01*
X245655999Y-135066000D01*
G75*
G02*
X245406000Y-134816001I0J249999D01*
G01*
X245406000Y-133915999D01*
G75*
G02*
X245655999Y-133666000I249999J0D01*
G01*
X246306001Y-133666000D01*
G75*
G02*
X246556000Y-133915999I0J-249999D01*
G01*
G37*
G36*
G01*
X248606000Y-133915999D02*
X248606000Y-134816001D01*
G75*
G02*
X248356001Y-135066000I-249999J0D01*
G01*
X247705999Y-135066000D01*
G75*
G02*
X247456000Y-134816001I0J249999D01*
G01*
X247456000Y-133915999D01*
G75*
G02*
X247705999Y-133666000I249999J0D01*
G01*
X248356001Y-133666000D01*
G75*
G02*
X248606000Y-133915999I0J-249999D01*
G01*
G37*
%TD*%
M02*
