M48
; DRILL file {KiCad (5.1.6-0-10_14)} date Monday, October 05, 2020 at 02:42:21 PM
; FORMAT={-:-/ absolute / inch / decimal}
; #@! TF.CreationDate,2020-10-05T14:42:21-07:00
; #@! TF.GenerationSoftware,Kicad,Pcbnew,(5.1.6-0-10_14)
; #@! TF.FileFunction,Plated,1,2,PTH
FMAT,2
INCH
T1C0.0157
T2C0.0394
T3C0.0472
T4C0.0630
T5C0.1213
T6C0.2402
%
G90
G05
T1
X8.62Y-4.79
X8.62Y-5.01
X8.62Y-5.49
X8.62Y-5.71
X8.7Y-5.35
X8.8Y-5.37
X8.81Y-5.07
X8.98Y-5.26
X9.13Y-5.03
X9.13Y-5.26
X9.15Y-5.12
X9.15Y-5.32
X9.1511Y-5.2011
X9.33Y-5.01
X9.33Y-5.19
X9.33Y-5.24
X9.33Y-5.5
X9.34Y-5.34
X9.34Y-5.42
X9.3478Y-5.1223
X9.55Y-5.58
X9.56Y-4.94
X9.96Y-5.26
X10.11Y-4.4
X10.11Y-4.62
X10.11Y-6.17
X10.1152Y-5.9448
T2
X9.1Y-4.94
X9.42Y-5.03
X9.09Y-5.54
X9.42Y-5.49
X8.83Y-4.96
X8.83Y-5.48
T3
X10.1Y-5.28
T4
X10.2575Y-5.1225
X10.2575Y-5.4375
T5
X9.93Y-4.34
X9.91Y-6.3
X8.5Y-6.3
X8.49Y-4.34
T6
X8.98Y-4.46
X9.5Y-4.47
T0
M30
