%TF.GenerationSoftware,KiCad,Pcbnew,(5.1.6-0-10_14)*%
%TF.CreationDate,2020-08-19T15:58:13-07:00*%
%TF.ProjectId,single_ended_differential_converter,73696e67-6c65-45f6-956e-6465645f6469,rev?*%
%TF.SameCoordinates,Original*%
%TF.FileFunction,Copper,L2,Bot*%
%TF.FilePolarity,Positive*%
%FSLAX46Y46*%
G04 Gerber Fmt 4.6, Leading zero omitted, Abs format (unit mm)*
G04 Created by KiCad (PCBNEW (5.1.6-0-10_14)) date 2020-08-19 15:58:13*
%MOMM*%
%LPD*%
G01*
G04 APERTURE LIST*
%TA.AperFunction,ComponentPad*%
%ADD10C,4.000000*%
%TD*%
%TA.AperFunction,ComponentPad*%
%ADD11C,2.000000*%
%TD*%
%TA.AperFunction,ComponentPad*%
%ADD12C,10.160000*%
%TD*%
%TA.AperFunction,Conductor*%
%ADD13R,0.950000X0.460000*%
%TD*%
%TA.AperFunction,SMDPad,CuDef*%
%ADD14R,5.080000X1.600000*%
%TD*%
%TA.AperFunction,ComponentPad*%
%ADD15C,2.900000*%
%TD*%
%TA.AperFunction,ComponentPad*%
%ADD16C,3.400000*%
%TD*%
%TA.AperFunction,ViaPad*%
%ADD17C,0.800000*%
%TD*%
%TA.AperFunction,Conductor*%
%ADD18C,0.250000*%
%TD*%
%TA.AperFunction,Conductor*%
%ADD19C,0.254000*%
%TD*%
G04 APERTURE END LIST*
D10*
%TO.P,H4,1*%
%TO.N,N/C*%
X271780000Y-100330000D03*
%TD*%
%TO.P,H3,1*%
%TO.N,N/C*%
X265176000Y-160528000D03*
%TD*%
%TO.P,H2,1*%
%TO.N,N/C*%
X215900000Y-160020000D03*
%TD*%
%TO.P,H1,1*%
%TO.N,N/C*%
X215900000Y-100330000D03*
%TD*%
D11*
%TO.P,VOS2,1*%
%TO.N,/VOS2*%
X243000000Y-120650000D03*
%TD*%
%TO.P,VOS1,1*%
%TO.N,/VOS1*%
X243000000Y-144500000D03*
%TD*%
D12*
%TO.P,U3,1*%
%TO.N,VSS*%
X254000000Y-104013000D03*
%TD*%
%TO.P,U2,1*%
%TO.N,GND*%
X241300000Y-104140000D03*
%TD*%
%TO.P,U1,1*%
%TO.N,VDD*%
X228600000Y-104140000D03*
%TD*%
%TO.P,RF1,2*%
%TO.N,Net-(CF1-Pad2)*%
%TA.AperFunction,SMDPad,CuDef*%
G36*
G01*
X246556000Y-131883999D02*
X246556000Y-132784001D01*
G75*
G02*
X246306001Y-133034000I-249999J0D01*
G01*
X245655999Y-133034000D01*
G75*
G02*
X245406000Y-132784001I0J249999D01*
G01*
X245406000Y-131883999D01*
G75*
G02*
X245655999Y-131634000I249999J0D01*
G01*
X246306001Y-131634000D01*
G75*
G02*
X246556000Y-131883999I0J-249999D01*
G01*
G37*
%TD.AperFunction*%
%TO.P,RF1,1*%
%TO.N,/VoutP*%
%TA.AperFunction,SMDPad,CuDef*%
G36*
G01*
X248606000Y-131883999D02*
X248606000Y-132784001D01*
G75*
G02*
X248356001Y-133034000I-249999J0D01*
G01*
X247705999Y-133034000D01*
G75*
G02*
X247456000Y-132784001I0J249999D01*
G01*
X247456000Y-131883999D01*
G75*
G02*
X247705999Y-131634000I249999J0D01*
G01*
X248356001Y-131634000D01*
G75*
G02*
X248606000Y-131883999I0J-249999D01*
G01*
G37*
%TD.AperFunction*%
%TD*%
D13*
%TO.N,GND*%
%TO.C,JPOS1*%
X269806000Y-152084000D03*
X269806000Y-157796000D03*
D14*
%TD*%
%TO.P,JPOS1,2*%
%TO.N,GND*%
X272796000Y-152170000D03*
%TO.P,JPOS1,2*%
%TO.N,GND*%
X272796000Y-157710000D03*
%TD*%
D13*
%TO.N,GND*%
%TO.C,JNEG1*%
X269806000Y-107610000D03*
X269806000Y-113322000D03*
D14*
%TD*%
%TO.P,JNEG1,2*%
%TO.N,GND*%
X272796000Y-107696000D03*
%TO.P,JNEG1,2*%
%TO.N,GND*%
X272796000Y-113236000D03*
%TD*%
D15*
%TO.P,J5,3*%
%TO.N,/VoutN*%
X273240000Y-131000000D03*
D16*
%TO.P,J5,1*%
%TO.N,GND*%
X269240000Y-127000000D03*
%TO.P,J5,2*%
%TO.N,/VoutP*%
X269240000Y-135000000D03*
%TD*%
D13*
%TO.N,GND*%
%TO.C,J2*%
X218128000Y-135456000D03*
X218128000Y-129744000D03*
D14*
%TD*%
%TO.P,J2,2*%
%TO.N,GND*%
X215138000Y-135370000D03*
%TO.P,J2,2*%
%TO.N,GND*%
X215138000Y-129830000D03*
%TD*%
D13*
%TO.N,GND*%
%TO.C,J1*%
X218382000Y-150406000D03*
X218382000Y-144694000D03*
D14*
%TD*%
%TO.P,J1,2*%
%TO.N,GND*%
X215392000Y-150320000D03*
%TO.P,J1,2*%
%TO.N,GND*%
X215392000Y-144780000D03*
%TD*%
%TO.P,CF1,2*%
%TO.N,Net-(CF1-Pad2)*%
%TA.AperFunction,SMDPad,CuDef*%
G36*
G01*
X246556000Y-133915999D02*
X246556000Y-134816001D01*
G75*
G02*
X246306001Y-135066000I-249999J0D01*
G01*
X245655999Y-135066000D01*
G75*
G02*
X245406000Y-134816001I0J249999D01*
G01*
X245406000Y-133915999D01*
G75*
G02*
X245655999Y-133666000I249999J0D01*
G01*
X246306001Y-133666000D01*
G75*
G02*
X246556000Y-133915999I0J-249999D01*
G01*
G37*
%TD.AperFunction*%
%TO.P,CF1,1*%
%TO.N,/VoutP*%
%TA.AperFunction,SMDPad,CuDef*%
G36*
G01*
X248606000Y-133915999D02*
X248606000Y-134816001D01*
G75*
G02*
X248356001Y-135066000I-249999J0D01*
G01*
X247705999Y-135066000D01*
G75*
G02*
X247456000Y-134816001I0J249999D01*
G01*
X247456000Y-133915999D01*
G75*
G02*
X247705999Y-133666000I249999J0D01*
G01*
X248356001Y-133666000D01*
G75*
G02*
X248606000Y-133915999I0J-249999D01*
G01*
G37*
%TD.AperFunction*%
%TD*%
D17*
%TO.N,GND*%
X271780000Y-149860000D03*
X269494000Y-157734000D03*
X249174000Y-139954000D03*
X247396000Y-128524000D03*
X249428000Y-123444000D03*
X249428000Y-125476000D03*
X218948000Y-129794000D03*
X218948000Y-135382000D03*
X249174000Y-142240000D03*
X233172000Y-123698000D03*
X218948000Y-144780000D03*
X218948000Y-150368000D03*
X269240000Y-107696000D03*
X269240000Y-113284000D03*
%TO.N,Net-(CF1-Pad2)*%
X244602000Y-133350000D03*
X241554000Y-136652000D03*
%TO.N,/VoutP*%
X249301000Y-133350000D03*
%TO.N,VDD*%
X243078000Y-130141232D03*
X241714768Y-128778000D03*
%TD*%
D18*
%TO.N,GND*%
X249428000Y-122936000D02*
X248158000Y-124206000D01*
X212852000Y-142748000D02*
X212598000Y-142748000D01*
X275153990Y-151830000D02*
X275239990Y-151744000D01*
X272280000Y-151830000D02*
X275153990Y-151830000D01*
X275153990Y-157370000D02*
X275239990Y-157456000D01*
X272280000Y-157370000D02*
X275153990Y-157370000D01*
%TO.N,Net-(CF1-Pad2)*%
X245618000Y-132334000D02*
X244602000Y-133350000D01*
X245981000Y-132334000D02*
X245618000Y-132334000D01*
X245618000Y-134366000D02*
X244602000Y-133350000D01*
X245981000Y-134366000D02*
X245618000Y-134366000D01*
X244602000Y-133350000D02*
X241554000Y-136398000D01*
X241554000Y-136398000D02*
X241554000Y-136652000D01*
%TO.N,/VoutP*%
X248285000Y-132334000D02*
X249301000Y-133350000D01*
X248031000Y-132334000D02*
X248285000Y-132334000D01*
X248285000Y-134366000D02*
X249301000Y-133350000D01*
X248031000Y-134366000D02*
X248285000Y-134366000D01*
%TO.N,VDD*%
X243078000Y-130141232D02*
X241714768Y-128778000D01*
%TD*%
D19*
%TO.N,GND*%
G36*
X274930000Y-106258481D02*
G01*
X273081750Y-106261000D01*
X272923000Y-106419750D01*
X272923000Y-107569000D01*
X272943000Y-107569000D01*
X272943000Y-107823000D01*
X272923000Y-107823000D01*
X272923000Y-108972250D01*
X273081750Y-109131000D01*
X274930000Y-109133519D01*
X274930000Y-111798481D01*
X273081750Y-111801000D01*
X272923000Y-111959750D01*
X272923000Y-113109000D01*
X272943000Y-113109000D01*
X272943000Y-113363000D01*
X272923000Y-113363000D01*
X272923000Y-114512250D01*
X273081750Y-114671000D01*
X274930000Y-114673519D01*
X274930000Y-129776364D01*
X274859525Y-129670890D01*
X274569110Y-129380475D01*
X274227618Y-129152297D01*
X273848172Y-128995126D01*
X273445355Y-128915000D01*
X273034645Y-128915000D01*
X272631828Y-128995126D01*
X272252382Y-129152297D01*
X271910890Y-129380475D01*
X271620475Y-129670890D01*
X271392297Y-130012382D01*
X271235126Y-130391828D01*
X271155000Y-130794645D01*
X271155000Y-131205355D01*
X271235126Y-131608172D01*
X271392297Y-131987618D01*
X271620475Y-132329110D01*
X271910890Y-132619525D01*
X272252382Y-132847703D01*
X272631828Y-133004874D01*
X273034645Y-133085000D01*
X273445355Y-133085000D01*
X273848172Y-133004874D01*
X274227618Y-132847703D01*
X274569110Y-132619525D01*
X274859525Y-132329110D01*
X274930001Y-132223636D01*
X274930001Y-150732481D01*
X273081750Y-150735000D01*
X272923000Y-150893750D01*
X272923000Y-152043000D01*
X272943000Y-152043000D01*
X272943000Y-152297000D01*
X272923000Y-152297000D01*
X272923000Y-153446250D01*
X273081750Y-153605000D01*
X274930001Y-153607519D01*
X274930001Y-156272481D01*
X273081750Y-156275000D01*
X272923000Y-156433750D01*
X272923000Y-157583000D01*
X272943000Y-157583000D01*
X272943000Y-157837000D01*
X272923000Y-157837000D01*
X272923000Y-158986250D01*
X273081750Y-159145000D01*
X274930001Y-159147519D01*
X274930001Y-163170000D01*
X212750000Y-163170000D01*
X212750000Y-159760475D01*
X213265000Y-159760475D01*
X213265000Y-160279525D01*
X213366261Y-160788601D01*
X213564893Y-161268141D01*
X213853262Y-161699715D01*
X214220285Y-162066738D01*
X214651859Y-162355107D01*
X215131399Y-162553739D01*
X215640475Y-162655000D01*
X216159525Y-162655000D01*
X216668601Y-162553739D01*
X217148141Y-162355107D01*
X217579715Y-162066738D01*
X217946738Y-161699715D01*
X218235107Y-161268141D01*
X218433739Y-160788601D01*
X218535000Y-160279525D01*
X218535000Y-160268475D01*
X262541000Y-160268475D01*
X262541000Y-160787525D01*
X262642261Y-161296601D01*
X262840893Y-161776141D01*
X263129262Y-162207715D01*
X263496285Y-162574738D01*
X263927859Y-162863107D01*
X264407399Y-163061739D01*
X264916475Y-163163000D01*
X265435525Y-163163000D01*
X265944601Y-163061739D01*
X266424141Y-162863107D01*
X266855715Y-162574738D01*
X267222738Y-162207715D01*
X267511107Y-161776141D01*
X267709739Y-161296601D01*
X267811000Y-160787525D01*
X267811000Y-160268475D01*
X267709739Y-159759399D01*
X267511107Y-159279859D01*
X267222738Y-158848285D01*
X266855715Y-158481262D01*
X266424141Y-158192893D01*
X266097877Y-158057750D01*
X268696000Y-158057750D01*
X268707807Y-158162990D01*
X268746507Y-158281937D01*
X268807669Y-158391048D01*
X268888942Y-158486131D01*
X268987203Y-158563531D01*
X269098676Y-158620274D01*
X269219077Y-158654179D01*
X269343779Y-158663944D01*
X269520250Y-158661000D01*
X269622709Y-158558541D01*
X269630188Y-158634482D01*
X269666498Y-158754180D01*
X269725463Y-158864494D01*
X269804815Y-158961185D01*
X269901506Y-159040537D01*
X270011820Y-159099502D01*
X270131518Y-159135812D01*
X270256000Y-159148072D01*
X272510250Y-159145000D01*
X272669000Y-158986250D01*
X272669000Y-157837000D01*
X269779750Y-157837000D01*
X269679000Y-157937750D01*
X269679000Y-157899000D01*
X268854750Y-157899000D01*
X268696000Y-158057750D01*
X266097877Y-158057750D01*
X265944601Y-157994261D01*
X265435525Y-157893000D01*
X264916475Y-157893000D01*
X264407399Y-157994261D01*
X263927859Y-158192893D01*
X263496285Y-158481262D01*
X263129262Y-158848285D01*
X262840893Y-159279859D01*
X262642261Y-159759399D01*
X262541000Y-160268475D01*
X218535000Y-160268475D01*
X218535000Y-159760475D01*
X218433739Y-159251399D01*
X218235107Y-158771859D01*
X217946738Y-158340285D01*
X217579715Y-157973262D01*
X217148141Y-157684893D01*
X216784457Y-157534250D01*
X268696000Y-157534250D01*
X268854750Y-157693000D01*
X269679000Y-157693000D01*
X269679000Y-157649000D01*
X269933000Y-157649000D01*
X269933000Y-157693000D01*
X270757250Y-157693000D01*
X270867250Y-157583000D01*
X272669000Y-157583000D01*
X272669000Y-156433750D01*
X272510250Y-156275000D01*
X270256000Y-156271928D01*
X270131518Y-156284188D01*
X270011820Y-156320498D01*
X269901506Y-156379463D01*
X269804815Y-156458815D01*
X269725463Y-156555506D01*
X269666498Y-156665820D01*
X269630188Y-156785518D01*
X269617928Y-156910000D01*
X269618641Y-157029391D01*
X269520250Y-156931000D01*
X269343779Y-156928056D01*
X269219077Y-156937821D01*
X269098676Y-156971726D01*
X268987203Y-157028469D01*
X268888942Y-157105869D01*
X268807669Y-157200952D01*
X268746507Y-157310063D01*
X268707807Y-157429010D01*
X268696000Y-157534250D01*
X216784457Y-157534250D01*
X216668601Y-157486261D01*
X216159525Y-157385000D01*
X215640475Y-157385000D01*
X215131399Y-157486261D01*
X214651859Y-157684893D01*
X214220285Y-157973262D01*
X213853262Y-158340285D01*
X213564893Y-158771859D01*
X213366261Y-159251399D01*
X213265000Y-159760475D01*
X212750000Y-159760475D01*
X212750000Y-152345750D01*
X268696000Y-152345750D01*
X268707807Y-152450990D01*
X268746507Y-152569937D01*
X268807669Y-152679048D01*
X268888942Y-152774131D01*
X268987203Y-152851531D01*
X269098676Y-152908274D01*
X269219077Y-152942179D01*
X269343779Y-152951944D01*
X269520250Y-152949000D01*
X269618641Y-152850609D01*
X269617928Y-152970000D01*
X269630188Y-153094482D01*
X269666498Y-153214180D01*
X269725463Y-153324494D01*
X269804815Y-153421185D01*
X269901506Y-153500537D01*
X270011820Y-153559502D01*
X270131518Y-153595812D01*
X270256000Y-153608072D01*
X272510250Y-153605000D01*
X272669000Y-153446250D01*
X272669000Y-152297000D01*
X270867250Y-152297000D01*
X270757250Y-152187000D01*
X269933000Y-152187000D01*
X269933000Y-152231000D01*
X269679000Y-152231000D01*
X269679000Y-152187000D01*
X268854750Y-152187000D01*
X268696000Y-152345750D01*
X212750000Y-152345750D01*
X212750000Y-151822250D01*
X268696000Y-151822250D01*
X268854750Y-151981000D01*
X269679000Y-151981000D01*
X269679000Y-151942250D01*
X269779750Y-152043000D01*
X272669000Y-152043000D01*
X272669000Y-150893750D01*
X272510250Y-150735000D01*
X270256000Y-150731928D01*
X270131518Y-150744188D01*
X270011820Y-150780498D01*
X269901506Y-150839463D01*
X269804815Y-150918815D01*
X269725463Y-151015506D01*
X269666498Y-151125820D01*
X269630188Y-151245518D01*
X269622709Y-151321459D01*
X269520250Y-151219000D01*
X269343779Y-151216056D01*
X269219077Y-151225821D01*
X269098676Y-151259726D01*
X268987203Y-151316469D01*
X268888942Y-151393869D01*
X268807669Y-151488952D01*
X268746507Y-151598063D01*
X268707807Y-151717010D01*
X268696000Y-151822250D01*
X212750000Y-151822250D01*
X212750000Y-151748026D01*
X212852000Y-151758072D01*
X215106250Y-151755000D01*
X215265000Y-151596250D01*
X215265000Y-150447000D01*
X215519000Y-150447000D01*
X215519000Y-151596250D01*
X215677750Y-151755000D01*
X217932000Y-151758072D01*
X218056482Y-151745812D01*
X218176180Y-151709502D01*
X218286494Y-151650537D01*
X218383185Y-151571185D01*
X218462537Y-151474494D01*
X218521502Y-151364180D01*
X218557812Y-151244482D01*
X218565291Y-151168541D01*
X218667750Y-151271000D01*
X218844221Y-151273944D01*
X218968923Y-151264179D01*
X219089324Y-151230274D01*
X219200797Y-151173531D01*
X219299058Y-151096131D01*
X219380331Y-151001048D01*
X219441493Y-150891937D01*
X219480193Y-150772990D01*
X219492000Y-150667750D01*
X219333250Y-150509000D01*
X218509000Y-150509000D01*
X218509000Y-150547750D01*
X218408250Y-150447000D01*
X215519000Y-150447000D01*
X215265000Y-150447000D01*
X215245000Y-150447000D01*
X215245000Y-150193000D01*
X215265000Y-150193000D01*
X215265000Y-149043750D01*
X215519000Y-149043750D01*
X215519000Y-150193000D01*
X217320750Y-150193000D01*
X217430750Y-150303000D01*
X218255000Y-150303000D01*
X218255000Y-150259000D01*
X218509000Y-150259000D01*
X218509000Y-150303000D01*
X219333250Y-150303000D01*
X219492000Y-150144250D01*
X219480193Y-150039010D01*
X219441493Y-149920063D01*
X219380331Y-149810952D01*
X219299058Y-149715869D01*
X219200797Y-149638469D01*
X219089324Y-149581726D01*
X218968923Y-149547821D01*
X218844221Y-149538056D01*
X218667750Y-149541000D01*
X218569359Y-149639391D01*
X218570072Y-149520000D01*
X218557812Y-149395518D01*
X218521502Y-149275820D01*
X218462537Y-149165506D01*
X218383185Y-149068815D01*
X218286494Y-148989463D01*
X218176180Y-148930498D01*
X218056482Y-148894188D01*
X217932000Y-148881928D01*
X215677750Y-148885000D01*
X215519000Y-149043750D01*
X215265000Y-149043750D01*
X215106250Y-148885000D01*
X212852000Y-148881928D01*
X212750000Y-148891974D01*
X212750000Y-146208026D01*
X212852000Y-146218072D01*
X215106250Y-146215000D01*
X215265000Y-146056250D01*
X215265000Y-144907000D01*
X215519000Y-144907000D01*
X215519000Y-146056250D01*
X215677750Y-146215000D01*
X217932000Y-146218072D01*
X218056482Y-146205812D01*
X218176180Y-146169502D01*
X218286494Y-146110537D01*
X218383185Y-146031185D01*
X218462537Y-145934494D01*
X218521502Y-145824180D01*
X218557812Y-145704482D01*
X218570072Y-145580000D01*
X218569359Y-145460609D01*
X218667750Y-145559000D01*
X218844221Y-145561944D01*
X218968923Y-145552179D01*
X219089324Y-145518274D01*
X219200797Y-145461531D01*
X219299058Y-145384131D01*
X219380331Y-145289048D01*
X219441493Y-145179937D01*
X219480193Y-145060990D01*
X219492000Y-144955750D01*
X219333250Y-144797000D01*
X218509000Y-144797000D01*
X218509000Y-144841000D01*
X218255000Y-144841000D01*
X218255000Y-144797000D01*
X217430750Y-144797000D01*
X217320750Y-144907000D01*
X215519000Y-144907000D01*
X215265000Y-144907000D01*
X215245000Y-144907000D01*
X215245000Y-144653000D01*
X215265000Y-144653000D01*
X215265000Y-143503750D01*
X215519000Y-143503750D01*
X215519000Y-144653000D01*
X218408250Y-144653000D01*
X218509000Y-144552250D01*
X218509000Y-144591000D01*
X219333250Y-144591000D01*
X219492000Y-144432250D01*
X219481535Y-144338967D01*
X241365000Y-144338967D01*
X241365000Y-144661033D01*
X241427832Y-144976912D01*
X241551082Y-145274463D01*
X241730013Y-145542252D01*
X241957748Y-145769987D01*
X242225537Y-145948918D01*
X242523088Y-146072168D01*
X242838967Y-146135000D01*
X243161033Y-146135000D01*
X243476912Y-146072168D01*
X243774463Y-145948918D01*
X244042252Y-145769987D01*
X244269987Y-145542252D01*
X244448918Y-145274463D01*
X244572168Y-144976912D01*
X244635000Y-144661033D01*
X244635000Y-144338967D01*
X244572168Y-144023088D01*
X244448918Y-143725537D01*
X244269987Y-143457748D01*
X244042252Y-143230013D01*
X243774463Y-143051082D01*
X243476912Y-142927832D01*
X243161033Y-142865000D01*
X242838967Y-142865000D01*
X242523088Y-142927832D01*
X242225537Y-143051082D01*
X241957748Y-143230013D01*
X241730013Y-143457748D01*
X241551082Y-143725537D01*
X241427832Y-144023088D01*
X241365000Y-144338967D01*
X219481535Y-144338967D01*
X219480193Y-144327010D01*
X219441493Y-144208063D01*
X219380331Y-144098952D01*
X219299058Y-144003869D01*
X219200797Y-143926469D01*
X219089324Y-143869726D01*
X218968923Y-143835821D01*
X218844221Y-143826056D01*
X218667750Y-143829000D01*
X218565291Y-143931459D01*
X218557812Y-143855518D01*
X218521502Y-143735820D01*
X218462537Y-143625506D01*
X218383185Y-143528815D01*
X218286494Y-143449463D01*
X218176180Y-143390498D01*
X218056482Y-143354188D01*
X217932000Y-143341928D01*
X215677750Y-143345000D01*
X215519000Y-143503750D01*
X215265000Y-143503750D01*
X215106250Y-143345000D01*
X212852000Y-143341928D01*
X212750000Y-143351974D01*
X212750000Y-136807865D01*
X214852250Y-136805000D01*
X215011000Y-136646250D01*
X215011000Y-135497000D01*
X215265000Y-135497000D01*
X215265000Y-136646250D01*
X215423750Y-136805000D01*
X217678000Y-136808072D01*
X217802482Y-136795812D01*
X217922180Y-136759502D01*
X218032494Y-136700537D01*
X218129185Y-136621185D01*
X218187554Y-136550061D01*
X240519000Y-136550061D01*
X240519000Y-136753939D01*
X240558774Y-136953898D01*
X240636795Y-137142256D01*
X240750063Y-137311774D01*
X240894226Y-137455937D01*
X241063744Y-137569205D01*
X241252102Y-137647226D01*
X241452061Y-137687000D01*
X241655939Y-137687000D01*
X241855898Y-137647226D01*
X242044256Y-137569205D01*
X242213774Y-137455937D01*
X242357937Y-137311774D01*
X242471205Y-137142256D01*
X242549226Y-136953898D01*
X242589000Y-136753939D01*
X242589000Y-136550061D01*
X242570375Y-136456426D01*
X244602000Y-134424802D01*
X244767928Y-134590730D01*
X244767928Y-134816001D01*
X244784992Y-134989255D01*
X244835528Y-135155851D01*
X244917595Y-135309387D01*
X245028038Y-135443962D01*
X245162613Y-135554405D01*
X245316149Y-135636472D01*
X245482745Y-135687008D01*
X245655999Y-135704072D01*
X246306001Y-135704072D01*
X246479255Y-135687008D01*
X246645851Y-135636472D01*
X246799387Y-135554405D01*
X246933962Y-135443962D01*
X247006000Y-135356184D01*
X247078038Y-135443962D01*
X247212613Y-135554405D01*
X247366149Y-135636472D01*
X247532745Y-135687008D01*
X247705999Y-135704072D01*
X248356001Y-135704072D01*
X248529255Y-135687008D01*
X248695851Y-135636472D01*
X248849387Y-135554405D01*
X248983962Y-135443962D01*
X249094405Y-135309387D01*
X249176472Y-135155851D01*
X249227008Y-134989255D01*
X249244072Y-134816001D01*
X249244072Y-134770023D01*
X266905000Y-134770023D01*
X266905000Y-135229977D01*
X266994733Y-135681094D01*
X267170750Y-136106037D01*
X267426287Y-136488476D01*
X267751524Y-136813713D01*
X268133963Y-137069250D01*
X268558906Y-137245267D01*
X269010023Y-137335000D01*
X269469977Y-137335000D01*
X269921094Y-137245267D01*
X270346037Y-137069250D01*
X270728476Y-136813713D01*
X271053713Y-136488476D01*
X271309250Y-136106037D01*
X271485267Y-135681094D01*
X271575000Y-135229977D01*
X271575000Y-134770023D01*
X271485267Y-134318906D01*
X271309250Y-133893963D01*
X271053713Y-133511524D01*
X270728476Y-133186287D01*
X270346037Y-132930750D01*
X269921094Y-132754733D01*
X269469977Y-132665000D01*
X269010023Y-132665000D01*
X268558906Y-132754733D01*
X268133963Y-132930750D01*
X267751524Y-133186287D01*
X267426287Y-133511524D01*
X267170750Y-133893963D01*
X266994733Y-134318906D01*
X266905000Y-134770023D01*
X249244072Y-134770023D01*
X249244072Y-134481729D01*
X249340802Y-134385000D01*
X249402939Y-134385000D01*
X249602898Y-134345226D01*
X249791256Y-134267205D01*
X249960774Y-134153937D01*
X250104937Y-134009774D01*
X250218205Y-133840256D01*
X250296226Y-133651898D01*
X250336000Y-133451939D01*
X250336000Y-133248061D01*
X250296226Y-133048102D01*
X250218205Y-132859744D01*
X250104937Y-132690226D01*
X249960774Y-132546063D01*
X249791256Y-132432795D01*
X249602898Y-132354774D01*
X249402939Y-132315000D01*
X249340802Y-132315000D01*
X249244072Y-132218271D01*
X249244072Y-131883999D01*
X249227008Y-131710745D01*
X249176472Y-131544149D01*
X249094405Y-131390613D01*
X248983962Y-131256038D01*
X248849387Y-131145595D01*
X248695851Y-131063528D01*
X248529255Y-131012992D01*
X248356001Y-130995928D01*
X247705999Y-130995928D01*
X247532745Y-131012992D01*
X247366149Y-131063528D01*
X247212613Y-131145595D01*
X247078038Y-131256038D01*
X247006000Y-131343816D01*
X246933962Y-131256038D01*
X246799387Y-131145595D01*
X246645851Y-131063528D01*
X246479255Y-131012992D01*
X246306001Y-130995928D01*
X245655999Y-130995928D01*
X245482745Y-131012992D01*
X245316149Y-131063528D01*
X245162613Y-131145595D01*
X245028038Y-131256038D01*
X244917595Y-131390613D01*
X244835528Y-131544149D01*
X244784992Y-131710745D01*
X244767928Y-131883999D01*
X244767928Y-132109270D01*
X244562199Y-132315000D01*
X244500061Y-132315000D01*
X244300102Y-132354774D01*
X244111744Y-132432795D01*
X243942226Y-132546063D01*
X243798063Y-132690226D01*
X243684795Y-132859744D01*
X243606774Y-133048102D01*
X243567000Y-133248061D01*
X243567000Y-133310198D01*
X241198026Y-135679173D01*
X241063744Y-135734795D01*
X240894226Y-135848063D01*
X240750063Y-135992226D01*
X240636795Y-136161744D01*
X240558774Y-136350102D01*
X240519000Y-136550061D01*
X218187554Y-136550061D01*
X218208537Y-136524494D01*
X218267502Y-136414180D01*
X218303812Y-136294482D01*
X218311291Y-136218541D01*
X218413750Y-136321000D01*
X218590221Y-136323944D01*
X218714923Y-136314179D01*
X218835324Y-136280274D01*
X218946797Y-136223531D01*
X219045058Y-136146131D01*
X219126331Y-136051048D01*
X219187493Y-135941937D01*
X219226193Y-135822990D01*
X219238000Y-135717750D01*
X219079250Y-135559000D01*
X218255000Y-135559000D01*
X218255000Y-135597750D01*
X218154250Y-135497000D01*
X215265000Y-135497000D01*
X215011000Y-135497000D01*
X214991000Y-135497000D01*
X214991000Y-135243000D01*
X215011000Y-135243000D01*
X215011000Y-134093750D01*
X215265000Y-134093750D01*
X215265000Y-135243000D01*
X217066750Y-135243000D01*
X217176750Y-135353000D01*
X218001000Y-135353000D01*
X218001000Y-135309000D01*
X218255000Y-135309000D01*
X218255000Y-135353000D01*
X219079250Y-135353000D01*
X219238000Y-135194250D01*
X219226193Y-135089010D01*
X219187493Y-134970063D01*
X219126331Y-134860952D01*
X219045058Y-134765869D01*
X218946797Y-134688469D01*
X218835324Y-134631726D01*
X218714923Y-134597821D01*
X218590221Y-134588056D01*
X218413750Y-134591000D01*
X218315359Y-134689391D01*
X218316072Y-134570000D01*
X218303812Y-134445518D01*
X218267502Y-134325820D01*
X218208537Y-134215506D01*
X218129185Y-134118815D01*
X218032494Y-134039463D01*
X217922180Y-133980498D01*
X217802482Y-133944188D01*
X217678000Y-133931928D01*
X215423750Y-133935000D01*
X215265000Y-134093750D01*
X215011000Y-134093750D01*
X214852250Y-133935000D01*
X212750000Y-133932135D01*
X212750000Y-131267865D01*
X214852250Y-131265000D01*
X215011000Y-131106250D01*
X215011000Y-129957000D01*
X215265000Y-129957000D01*
X215265000Y-131106250D01*
X215423750Y-131265000D01*
X217678000Y-131268072D01*
X217802482Y-131255812D01*
X217922180Y-131219502D01*
X218032494Y-131160537D01*
X218129185Y-131081185D01*
X218208537Y-130984494D01*
X218267502Y-130874180D01*
X218303812Y-130754482D01*
X218316072Y-130630000D01*
X218315359Y-130510609D01*
X218413750Y-130609000D01*
X218590221Y-130611944D01*
X218714923Y-130602179D01*
X218835324Y-130568274D01*
X218946797Y-130511531D01*
X219045058Y-130434131D01*
X219126331Y-130339048D01*
X219187493Y-130229937D01*
X219226193Y-130110990D01*
X219238000Y-130005750D01*
X219079250Y-129847000D01*
X218255000Y-129847000D01*
X218255000Y-129891000D01*
X218001000Y-129891000D01*
X218001000Y-129847000D01*
X217176750Y-129847000D01*
X217066750Y-129957000D01*
X215265000Y-129957000D01*
X215011000Y-129957000D01*
X214991000Y-129957000D01*
X214991000Y-129703000D01*
X215011000Y-129703000D01*
X215011000Y-128553750D01*
X215265000Y-128553750D01*
X215265000Y-129703000D01*
X218154250Y-129703000D01*
X218255000Y-129602250D01*
X218255000Y-129641000D01*
X219079250Y-129641000D01*
X219238000Y-129482250D01*
X219226193Y-129377010D01*
X219187493Y-129258063D01*
X219126331Y-129148952D01*
X219045058Y-129053869D01*
X218946797Y-128976469D01*
X218835324Y-128919726D01*
X218714923Y-128885821D01*
X218590221Y-128876056D01*
X218413750Y-128879000D01*
X218311291Y-128981459D01*
X218303812Y-128905518D01*
X218267502Y-128785820D01*
X218208834Y-128676061D01*
X240679768Y-128676061D01*
X240679768Y-128879939D01*
X240719542Y-129079898D01*
X240797563Y-129268256D01*
X240910831Y-129437774D01*
X241054994Y-129581937D01*
X241224512Y-129695205D01*
X241412870Y-129773226D01*
X241612829Y-129813000D01*
X241674967Y-129813000D01*
X242043000Y-130181034D01*
X242043000Y-130243171D01*
X242082774Y-130443130D01*
X242160795Y-130631488D01*
X242274063Y-130801006D01*
X242418226Y-130945169D01*
X242587744Y-131058437D01*
X242776102Y-131136458D01*
X242976061Y-131176232D01*
X243179939Y-131176232D01*
X243379898Y-131136458D01*
X243568256Y-131058437D01*
X243737774Y-130945169D01*
X243881937Y-130801006D01*
X243995205Y-130631488D01*
X244073226Y-130443130D01*
X244113000Y-130243171D01*
X244113000Y-130039293D01*
X244073226Y-129839334D01*
X243995205Y-129650976D01*
X243881937Y-129481458D01*
X243737774Y-129337295D01*
X243568256Y-129224027D01*
X243379898Y-129146006D01*
X243179939Y-129106232D01*
X243117802Y-129106232D01*
X242749768Y-128738199D01*
X242749768Y-128676061D01*
X242741407Y-128634023D01*
X267785582Y-128634023D01*
X267965648Y-128970060D01*
X268374474Y-129180820D01*
X268816562Y-129307772D01*
X269274922Y-129346037D01*
X269731940Y-129294146D01*
X270170053Y-129154092D01*
X270514352Y-128970060D01*
X270694418Y-128634023D01*
X269240000Y-127179605D01*
X267785582Y-128634023D01*
X242741407Y-128634023D01*
X242709994Y-128476102D01*
X242631973Y-128287744D01*
X242518705Y-128118226D01*
X242374542Y-127974063D01*
X242205024Y-127860795D01*
X242016666Y-127782774D01*
X241816707Y-127743000D01*
X241612829Y-127743000D01*
X241412870Y-127782774D01*
X241224512Y-127860795D01*
X241054994Y-127974063D01*
X240910831Y-128118226D01*
X240797563Y-128287744D01*
X240719542Y-128476102D01*
X240679768Y-128676061D01*
X218208834Y-128676061D01*
X218208537Y-128675506D01*
X218129185Y-128578815D01*
X218032494Y-128499463D01*
X217922180Y-128440498D01*
X217802482Y-128404188D01*
X217678000Y-128391928D01*
X215423750Y-128395000D01*
X215265000Y-128553750D01*
X215011000Y-128553750D01*
X214852250Y-128395000D01*
X212750000Y-128392135D01*
X212750000Y-127034922D01*
X266893963Y-127034922D01*
X266945854Y-127491940D01*
X267085908Y-127930053D01*
X267269940Y-128274352D01*
X267605977Y-128454418D01*
X269060395Y-127000000D01*
X269419605Y-127000000D01*
X270874023Y-128454418D01*
X271210060Y-128274352D01*
X271420820Y-127865526D01*
X271547772Y-127423438D01*
X271586037Y-126965078D01*
X271534146Y-126508060D01*
X271394092Y-126069947D01*
X271210060Y-125725648D01*
X270874023Y-125545582D01*
X269419605Y-127000000D01*
X269060395Y-127000000D01*
X267605977Y-125545582D01*
X267269940Y-125725648D01*
X267059180Y-126134474D01*
X266932228Y-126576562D01*
X266893963Y-127034922D01*
X212750000Y-127034922D01*
X212750000Y-125365977D01*
X267785582Y-125365977D01*
X269240000Y-126820395D01*
X270694418Y-125365977D01*
X270514352Y-125029940D01*
X270105526Y-124819180D01*
X269663438Y-124692228D01*
X269205078Y-124653963D01*
X268748060Y-124705854D01*
X268309947Y-124845908D01*
X267965648Y-125029940D01*
X267785582Y-125365977D01*
X212750000Y-125365977D01*
X212750000Y-120488967D01*
X241365000Y-120488967D01*
X241365000Y-120811033D01*
X241427832Y-121126912D01*
X241551082Y-121424463D01*
X241730013Y-121692252D01*
X241957748Y-121919987D01*
X242225537Y-122098918D01*
X242523088Y-122222168D01*
X242838967Y-122285000D01*
X243161033Y-122285000D01*
X243476912Y-122222168D01*
X243774463Y-122098918D01*
X244042252Y-121919987D01*
X244269987Y-121692252D01*
X244448918Y-121424463D01*
X244572168Y-121126912D01*
X244635000Y-120811033D01*
X244635000Y-120488967D01*
X244572168Y-120173088D01*
X244448918Y-119875537D01*
X244269987Y-119607748D01*
X244042252Y-119380013D01*
X243774463Y-119201082D01*
X243476912Y-119077832D01*
X243161033Y-119015000D01*
X242838967Y-119015000D01*
X242523088Y-119077832D01*
X242225537Y-119201082D01*
X241957748Y-119380013D01*
X241730013Y-119607748D01*
X241551082Y-119875537D01*
X241427832Y-120173088D01*
X241365000Y-120488967D01*
X212750000Y-120488967D01*
X212750000Y-113583750D01*
X268696000Y-113583750D01*
X268707807Y-113688990D01*
X268746507Y-113807937D01*
X268807669Y-113917048D01*
X268888942Y-114012131D01*
X268987203Y-114089531D01*
X269098676Y-114146274D01*
X269219077Y-114180179D01*
X269343779Y-114189944D01*
X269520250Y-114187000D01*
X269622709Y-114084541D01*
X269630188Y-114160482D01*
X269666498Y-114280180D01*
X269725463Y-114390494D01*
X269804815Y-114487185D01*
X269901506Y-114566537D01*
X270011820Y-114625502D01*
X270131518Y-114661812D01*
X270256000Y-114674072D01*
X272510250Y-114671000D01*
X272669000Y-114512250D01*
X272669000Y-113363000D01*
X269779750Y-113363000D01*
X269679000Y-113463750D01*
X269679000Y-113425000D01*
X268854750Y-113425000D01*
X268696000Y-113583750D01*
X212750000Y-113583750D01*
X212750000Y-113060250D01*
X268696000Y-113060250D01*
X268854750Y-113219000D01*
X269679000Y-113219000D01*
X269679000Y-113175000D01*
X269933000Y-113175000D01*
X269933000Y-113219000D01*
X270757250Y-113219000D01*
X270867250Y-113109000D01*
X272669000Y-113109000D01*
X272669000Y-111959750D01*
X272510250Y-111801000D01*
X270256000Y-111797928D01*
X270131518Y-111810188D01*
X270011820Y-111846498D01*
X269901506Y-111905463D01*
X269804815Y-111984815D01*
X269725463Y-112081506D01*
X269666498Y-112191820D01*
X269630188Y-112311518D01*
X269617928Y-112436000D01*
X269618641Y-112555391D01*
X269520250Y-112457000D01*
X269343779Y-112454056D01*
X269219077Y-112463821D01*
X269098676Y-112497726D01*
X268987203Y-112554469D01*
X268888942Y-112631869D01*
X268807669Y-112726952D01*
X268746507Y-112836063D01*
X268707807Y-112955010D01*
X268696000Y-113060250D01*
X212750000Y-113060250D01*
X212750000Y-103577122D01*
X222885000Y-103577122D01*
X222885000Y-104702878D01*
X223104625Y-105807004D01*
X223535433Y-106847067D01*
X224160870Y-107783100D01*
X224956900Y-108579130D01*
X225892933Y-109204567D01*
X226932996Y-109635375D01*
X228037122Y-109855000D01*
X229162878Y-109855000D01*
X230267004Y-109635375D01*
X231307067Y-109204567D01*
X232243100Y-108579130D01*
X232645034Y-108177196D01*
X237442409Y-108177196D01*
X238028124Y-108859416D01*
X239011704Y-109407045D01*
X240083223Y-109752265D01*
X241201501Y-109881808D01*
X242323565Y-109790697D01*
X243406294Y-109482433D01*
X244408079Y-108968863D01*
X244571876Y-108859416D01*
X245157591Y-108177196D01*
X241300000Y-104319605D01*
X237442409Y-108177196D01*
X232645034Y-108177196D01*
X233039130Y-107783100D01*
X233664567Y-106847067D01*
X234095375Y-105807004D01*
X234315000Y-104702878D01*
X234315000Y-104041501D01*
X235558192Y-104041501D01*
X235649303Y-105163565D01*
X235957567Y-106246294D01*
X236471137Y-107248079D01*
X236580584Y-107411876D01*
X237262804Y-107997591D01*
X241120395Y-104140000D01*
X241479605Y-104140000D01*
X245337196Y-107997591D01*
X246019416Y-107411876D01*
X246567045Y-106428296D01*
X246912265Y-105356777D01*
X247041808Y-104238499D01*
X246977793Y-103450122D01*
X248285000Y-103450122D01*
X248285000Y-104575878D01*
X248504625Y-105680004D01*
X248935433Y-106720067D01*
X249560870Y-107656100D01*
X250356900Y-108452130D01*
X251292933Y-109077567D01*
X252332996Y-109508375D01*
X253437122Y-109728000D01*
X254562878Y-109728000D01*
X255667004Y-109508375D01*
X256707067Y-109077567D01*
X257643100Y-108452130D01*
X258223480Y-107871750D01*
X268696000Y-107871750D01*
X268707807Y-107976990D01*
X268746507Y-108095937D01*
X268807669Y-108205048D01*
X268888942Y-108300131D01*
X268987203Y-108377531D01*
X269098676Y-108434274D01*
X269219077Y-108468179D01*
X269343779Y-108477944D01*
X269520250Y-108475000D01*
X269618641Y-108376609D01*
X269617928Y-108496000D01*
X269630188Y-108620482D01*
X269666498Y-108740180D01*
X269725463Y-108850494D01*
X269804815Y-108947185D01*
X269901506Y-109026537D01*
X270011820Y-109085502D01*
X270131518Y-109121812D01*
X270256000Y-109134072D01*
X272510250Y-109131000D01*
X272669000Y-108972250D01*
X272669000Y-107823000D01*
X270867250Y-107823000D01*
X270757250Y-107713000D01*
X269933000Y-107713000D01*
X269933000Y-107757000D01*
X269679000Y-107757000D01*
X269679000Y-107713000D01*
X268854750Y-107713000D01*
X268696000Y-107871750D01*
X258223480Y-107871750D01*
X258439130Y-107656100D01*
X258644828Y-107348250D01*
X268696000Y-107348250D01*
X268854750Y-107507000D01*
X269679000Y-107507000D01*
X269679000Y-107468250D01*
X269779750Y-107569000D01*
X272669000Y-107569000D01*
X272669000Y-106419750D01*
X272510250Y-106261000D01*
X270256000Y-106257928D01*
X270131518Y-106270188D01*
X270011820Y-106306498D01*
X269901506Y-106365463D01*
X269804815Y-106444815D01*
X269725463Y-106541506D01*
X269666498Y-106651820D01*
X269630188Y-106771518D01*
X269622709Y-106847459D01*
X269520250Y-106745000D01*
X269343779Y-106742056D01*
X269219077Y-106751821D01*
X269098676Y-106785726D01*
X268987203Y-106842469D01*
X268888942Y-106919869D01*
X268807669Y-107014952D01*
X268746507Y-107124063D01*
X268707807Y-107243010D01*
X268696000Y-107348250D01*
X258644828Y-107348250D01*
X259064567Y-106720067D01*
X259495375Y-105680004D01*
X259715000Y-104575878D01*
X259715000Y-103450122D01*
X259495375Y-102345996D01*
X259064567Y-101305933D01*
X258439130Y-100369900D01*
X258139705Y-100070475D01*
X269145000Y-100070475D01*
X269145000Y-100589525D01*
X269246261Y-101098601D01*
X269444893Y-101578141D01*
X269733262Y-102009715D01*
X270100285Y-102376738D01*
X270531859Y-102665107D01*
X271011399Y-102863739D01*
X271520475Y-102965000D01*
X272039525Y-102965000D01*
X272548601Y-102863739D01*
X273028141Y-102665107D01*
X273459715Y-102376738D01*
X273826738Y-102009715D01*
X274115107Y-101578141D01*
X274313739Y-101098601D01*
X274415000Y-100589525D01*
X274415000Y-100070475D01*
X274313739Y-99561399D01*
X274115107Y-99081859D01*
X273826738Y-98650285D01*
X273459715Y-98283262D01*
X273028141Y-97994893D01*
X272548601Y-97796261D01*
X272039525Y-97695000D01*
X271520475Y-97695000D01*
X271011399Y-97796261D01*
X270531859Y-97994893D01*
X270100285Y-98283262D01*
X269733262Y-98650285D01*
X269444893Y-99081859D01*
X269246261Y-99561399D01*
X269145000Y-100070475D01*
X258139705Y-100070475D01*
X257643100Y-99573870D01*
X256707067Y-98948433D01*
X255667004Y-98517625D01*
X254562878Y-98298000D01*
X253437122Y-98298000D01*
X252332996Y-98517625D01*
X251292933Y-98948433D01*
X250356900Y-99573870D01*
X249560870Y-100369900D01*
X248935433Y-101305933D01*
X248504625Y-102345996D01*
X248285000Y-103450122D01*
X246977793Y-103450122D01*
X246950697Y-103116435D01*
X246642433Y-102033706D01*
X246128863Y-101031921D01*
X246019416Y-100868124D01*
X245337196Y-100282409D01*
X241479605Y-104140000D01*
X241120395Y-104140000D01*
X237262804Y-100282409D01*
X236580584Y-100868124D01*
X236032955Y-101851704D01*
X235687735Y-102923223D01*
X235558192Y-104041501D01*
X234315000Y-104041501D01*
X234315000Y-103577122D01*
X234095375Y-102472996D01*
X233664567Y-101432933D01*
X233039130Y-100496900D01*
X232645034Y-100102804D01*
X237442409Y-100102804D01*
X241300000Y-103960395D01*
X245157591Y-100102804D01*
X244571876Y-99420584D01*
X243588296Y-98872955D01*
X242516777Y-98527735D01*
X241398499Y-98398192D01*
X240276435Y-98489303D01*
X239193706Y-98797567D01*
X238191921Y-99311137D01*
X238028124Y-99420584D01*
X237442409Y-100102804D01*
X232645034Y-100102804D01*
X232243100Y-99700870D01*
X231307067Y-99075433D01*
X230267004Y-98644625D01*
X229162878Y-98425000D01*
X228037122Y-98425000D01*
X226932996Y-98644625D01*
X225892933Y-99075433D01*
X224956900Y-99700870D01*
X224160870Y-100496900D01*
X223535433Y-101432933D01*
X223104625Y-102472996D01*
X222885000Y-103577122D01*
X212750000Y-103577122D01*
X212750000Y-100070475D01*
X213265000Y-100070475D01*
X213265000Y-100589525D01*
X213366261Y-101098601D01*
X213564893Y-101578141D01*
X213853262Y-102009715D01*
X214220285Y-102376738D01*
X214651859Y-102665107D01*
X215131399Y-102863739D01*
X215640475Y-102965000D01*
X216159525Y-102965000D01*
X216668601Y-102863739D01*
X217148141Y-102665107D01*
X217579715Y-102376738D01*
X217946738Y-102009715D01*
X218235107Y-101578141D01*
X218433739Y-101098601D01*
X218535000Y-100589525D01*
X218535000Y-100070475D01*
X218433739Y-99561399D01*
X218235107Y-99081859D01*
X217946738Y-98650285D01*
X217579715Y-98283262D01*
X217148141Y-97994893D01*
X216668601Y-97796261D01*
X216159525Y-97695000D01*
X215640475Y-97695000D01*
X215131399Y-97796261D01*
X214651859Y-97994893D01*
X214220285Y-98283262D01*
X213853262Y-98650285D01*
X213564893Y-99081859D01*
X213366261Y-99561399D01*
X213265000Y-100070475D01*
X212750000Y-100070475D01*
X212750000Y-97180000D01*
X274930000Y-97180000D01*
X274930000Y-106258481D01*
G37*
X274930000Y-106258481D02*
X273081750Y-106261000D01*
X272923000Y-106419750D01*
X272923000Y-107569000D01*
X272943000Y-107569000D01*
X272943000Y-107823000D01*
X272923000Y-107823000D01*
X272923000Y-108972250D01*
X273081750Y-109131000D01*
X274930000Y-109133519D01*
X274930000Y-111798481D01*
X273081750Y-111801000D01*
X272923000Y-111959750D01*
X272923000Y-113109000D01*
X272943000Y-113109000D01*
X272943000Y-113363000D01*
X272923000Y-113363000D01*
X272923000Y-114512250D01*
X273081750Y-114671000D01*
X274930000Y-114673519D01*
X274930000Y-129776364D01*
X274859525Y-129670890D01*
X274569110Y-129380475D01*
X274227618Y-129152297D01*
X273848172Y-128995126D01*
X273445355Y-128915000D01*
X273034645Y-128915000D01*
X272631828Y-128995126D01*
X272252382Y-129152297D01*
X271910890Y-129380475D01*
X271620475Y-129670890D01*
X271392297Y-130012382D01*
X271235126Y-130391828D01*
X271155000Y-130794645D01*
X271155000Y-131205355D01*
X271235126Y-131608172D01*
X271392297Y-131987618D01*
X271620475Y-132329110D01*
X271910890Y-132619525D01*
X272252382Y-132847703D01*
X272631828Y-133004874D01*
X273034645Y-133085000D01*
X273445355Y-133085000D01*
X273848172Y-133004874D01*
X274227618Y-132847703D01*
X274569110Y-132619525D01*
X274859525Y-132329110D01*
X274930001Y-132223636D01*
X274930001Y-150732481D01*
X273081750Y-150735000D01*
X272923000Y-150893750D01*
X272923000Y-152043000D01*
X272943000Y-152043000D01*
X272943000Y-152297000D01*
X272923000Y-152297000D01*
X272923000Y-153446250D01*
X273081750Y-153605000D01*
X274930001Y-153607519D01*
X274930001Y-156272481D01*
X273081750Y-156275000D01*
X272923000Y-156433750D01*
X272923000Y-157583000D01*
X272943000Y-157583000D01*
X272943000Y-157837000D01*
X272923000Y-157837000D01*
X272923000Y-158986250D01*
X273081750Y-159145000D01*
X274930001Y-159147519D01*
X274930001Y-163170000D01*
X212750000Y-163170000D01*
X212750000Y-159760475D01*
X213265000Y-159760475D01*
X213265000Y-160279525D01*
X213366261Y-160788601D01*
X213564893Y-161268141D01*
X213853262Y-161699715D01*
X214220285Y-162066738D01*
X214651859Y-162355107D01*
X215131399Y-162553739D01*
X215640475Y-162655000D01*
X216159525Y-162655000D01*
X216668601Y-162553739D01*
X217148141Y-162355107D01*
X217579715Y-162066738D01*
X217946738Y-161699715D01*
X218235107Y-161268141D01*
X218433739Y-160788601D01*
X218535000Y-160279525D01*
X218535000Y-160268475D01*
X262541000Y-160268475D01*
X262541000Y-160787525D01*
X262642261Y-161296601D01*
X262840893Y-161776141D01*
X263129262Y-162207715D01*
X263496285Y-162574738D01*
X263927859Y-162863107D01*
X264407399Y-163061739D01*
X264916475Y-163163000D01*
X265435525Y-163163000D01*
X265944601Y-163061739D01*
X266424141Y-162863107D01*
X266855715Y-162574738D01*
X267222738Y-162207715D01*
X267511107Y-161776141D01*
X267709739Y-161296601D01*
X267811000Y-160787525D01*
X267811000Y-160268475D01*
X267709739Y-159759399D01*
X267511107Y-159279859D01*
X267222738Y-158848285D01*
X266855715Y-158481262D01*
X266424141Y-158192893D01*
X266097877Y-158057750D01*
X268696000Y-158057750D01*
X268707807Y-158162990D01*
X268746507Y-158281937D01*
X268807669Y-158391048D01*
X268888942Y-158486131D01*
X268987203Y-158563531D01*
X269098676Y-158620274D01*
X269219077Y-158654179D01*
X269343779Y-158663944D01*
X269520250Y-158661000D01*
X269622709Y-158558541D01*
X269630188Y-158634482D01*
X269666498Y-158754180D01*
X269725463Y-158864494D01*
X269804815Y-158961185D01*
X269901506Y-159040537D01*
X270011820Y-159099502D01*
X270131518Y-159135812D01*
X270256000Y-159148072D01*
X272510250Y-159145000D01*
X272669000Y-158986250D01*
X272669000Y-157837000D01*
X269779750Y-157837000D01*
X269679000Y-157937750D01*
X269679000Y-157899000D01*
X268854750Y-157899000D01*
X268696000Y-158057750D01*
X266097877Y-158057750D01*
X265944601Y-157994261D01*
X265435525Y-157893000D01*
X264916475Y-157893000D01*
X264407399Y-157994261D01*
X263927859Y-158192893D01*
X263496285Y-158481262D01*
X263129262Y-158848285D01*
X262840893Y-159279859D01*
X262642261Y-159759399D01*
X262541000Y-160268475D01*
X218535000Y-160268475D01*
X218535000Y-159760475D01*
X218433739Y-159251399D01*
X218235107Y-158771859D01*
X217946738Y-158340285D01*
X217579715Y-157973262D01*
X217148141Y-157684893D01*
X216784457Y-157534250D01*
X268696000Y-157534250D01*
X268854750Y-157693000D01*
X269679000Y-157693000D01*
X269679000Y-157649000D01*
X269933000Y-157649000D01*
X269933000Y-157693000D01*
X270757250Y-157693000D01*
X270867250Y-157583000D01*
X272669000Y-157583000D01*
X272669000Y-156433750D01*
X272510250Y-156275000D01*
X270256000Y-156271928D01*
X270131518Y-156284188D01*
X270011820Y-156320498D01*
X269901506Y-156379463D01*
X269804815Y-156458815D01*
X269725463Y-156555506D01*
X269666498Y-156665820D01*
X269630188Y-156785518D01*
X269617928Y-156910000D01*
X269618641Y-157029391D01*
X269520250Y-156931000D01*
X269343779Y-156928056D01*
X269219077Y-156937821D01*
X269098676Y-156971726D01*
X268987203Y-157028469D01*
X268888942Y-157105869D01*
X268807669Y-157200952D01*
X268746507Y-157310063D01*
X268707807Y-157429010D01*
X268696000Y-157534250D01*
X216784457Y-157534250D01*
X216668601Y-157486261D01*
X216159525Y-157385000D01*
X215640475Y-157385000D01*
X215131399Y-157486261D01*
X214651859Y-157684893D01*
X214220285Y-157973262D01*
X213853262Y-158340285D01*
X213564893Y-158771859D01*
X213366261Y-159251399D01*
X213265000Y-159760475D01*
X212750000Y-159760475D01*
X212750000Y-152345750D01*
X268696000Y-152345750D01*
X268707807Y-152450990D01*
X268746507Y-152569937D01*
X268807669Y-152679048D01*
X268888942Y-152774131D01*
X268987203Y-152851531D01*
X269098676Y-152908274D01*
X269219077Y-152942179D01*
X269343779Y-152951944D01*
X269520250Y-152949000D01*
X269618641Y-152850609D01*
X269617928Y-152970000D01*
X269630188Y-153094482D01*
X269666498Y-153214180D01*
X269725463Y-153324494D01*
X269804815Y-153421185D01*
X269901506Y-153500537D01*
X270011820Y-153559502D01*
X270131518Y-153595812D01*
X270256000Y-153608072D01*
X272510250Y-153605000D01*
X272669000Y-153446250D01*
X272669000Y-152297000D01*
X270867250Y-152297000D01*
X270757250Y-152187000D01*
X269933000Y-152187000D01*
X269933000Y-152231000D01*
X269679000Y-152231000D01*
X269679000Y-152187000D01*
X268854750Y-152187000D01*
X268696000Y-152345750D01*
X212750000Y-152345750D01*
X212750000Y-151822250D01*
X268696000Y-151822250D01*
X268854750Y-151981000D01*
X269679000Y-151981000D01*
X269679000Y-151942250D01*
X269779750Y-152043000D01*
X272669000Y-152043000D01*
X272669000Y-150893750D01*
X272510250Y-150735000D01*
X270256000Y-150731928D01*
X270131518Y-150744188D01*
X270011820Y-150780498D01*
X269901506Y-150839463D01*
X269804815Y-150918815D01*
X269725463Y-151015506D01*
X269666498Y-151125820D01*
X269630188Y-151245518D01*
X269622709Y-151321459D01*
X269520250Y-151219000D01*
X269343779Y-151216056D01*
X269219077Y-151225821D01*
X269098676Y-151259726D01*
X268987203Y-151316469D01*
X268888942Y-151393869D01*
X268807669Y-151488952D01*
X268746507Y-151598063D01*
X268707807Y-151717010D01*
X268696000Y-151822250D01*
X212750000Y-151822250D01*
X212750000Y-151748026D01*
X212852000Y-151758072D01*
X215106250Y-151755000D01*
X215265000Y-151596250D01*
X215265000Y-150447000D01*
X215519000Y-150447000D01*
X215519000Y-151596250D01*
X215677750Y-151755000D01*
X217932000Y-151758072D01*
X218056482Y-151745812D01*
X218176180Y-151709502D01*
X218286494Y-151650537D01*
X218383185Y-151571185D01*
X218462537Y-151474494D01*
X218521502Y-151364180D01*
X218557812Y-151244482D01*
X218565291Y-151168541D01*
X218667750Y-151271000D01*
X218844221Y-151273944D01*
X218968923Y-151264179D01*
X219089324Y-151230274D01*
X219200797Y-151173531D01*
X219299058Y-151096131D01*
X219380331Y-151001048D01*
X219441493Y-150891937D01*
X219480193Y-150772990D01*
X219492000Y-150667750D01*
X219333250Y-150509000D01*
X218509000Y-150509000D01*
X218509000Y-150547750D01*
X218408250Y-150447000D01*
X215519000Y-150447000D01*
X215265000Y-150447000D01*
X215245000Y-150447000D01*
X215245000Y-150193000D01*
X215265000Y-150193000D01*
X215265000Y-149043750D01*
X215519000Y-149043750D01*
X215519000Y-150193000D01*
X217320750Y-150193000D01*
X217430750Y-150303000D01*
X218255000Y-150303000D01*
X218255000Y-150259000D01*
X218509000Y-150259000D01*
X218509000Y-150303000D01*
X219333250Y-150303000D01*
X219492000Y-150144250D01*
X219480193Y-150039010D01*
X219441493Y-149920063D01*
X219380331Y-149810952D01*
X219299058Y-149715869D01*
X219200797Y-149638469D01*
X219089324Y-149581726D01*
X218968923Y-149547821D01*
X218844221Y-149538056D01*
X218667750Y-149541000D01*
X218569359Y-149639391D01*
X218570072Y-149520000D01*
X218557812Y-149395518D01*
X218521502Y-149275820D01*
X218462537Y-149165506D01*
X218383185Y-149068815D01*
X218286494Y-148989463D01*
X218176180Y-148930498D01*
X218056482Y-148894188D01*
X217932000Y-148881928D01*
X215677750Y-148885000D01*
X215519000Y-149043750D01*
X215265000Y-149043750D01*
X215106250Y-148885000D01*
X212852000Y-148881928D01*
X212750000Y-148891974D01*
X212750000Y-146208026D01*
X212852000Y-146218072D01*
X215106250Y-146215000D01*
X215265000Y-146056250D01*
X215265000Y-144907000D01*
X215519000Y-144907000D01*
X215519000Y-146056250D01*
X215677750Y-146215000D01*
X217932000Y-146218072D01*
X218056482Y-146205812D01*
X218176180Y-146169502D01*
X218286494Y-146110537D01*
X218383185Y-146031185D01*
X218462537Y-145934494D01*
X218521502Y-145824180D01*
X218557812Y-145704482D01*
X218570072Y-145580000D01*
X218569359Y-145460609D01*
X218667750Y-145559000D01*
X218844221Y-145561944D01*
X218968923Y-145552179D01*
X219089324Y-145518274D01*
X219200797Y-145461531D01*
X219299058Y-145384131D01*
X219380331Y-145289048D01*
X219441493Y-145179937D01*
X219480193Y-145060990D01*
X219492000Y-144955750D01*
X219333250Y-144797000D01*
X218509000Y-144797000D01*
X218509000Y-144841000D01*
X218255000Y-144841000D01*
X218255000Y-144797000D01*
X217430750Y-144797000D01*
X217320750Y-144907000D01*
X215519000Y-144907000D01*
X215265000Y-144907000D01*
X215245000Y-144907000D01*
X215245000Y-144653000D01*
X215265000Y-144653000D01*
X215265000Y-143503750D01*
X215519000Y-143503750D01*
X215519000Y-144653000D01*
X218408250Y-144653000D01*
X218509000Y-144552250D01*
X218509000Y-144591000D01*
X219333250Y-144591000D01*
X219492000Y-144432250D01*
X219481535Y-144338967D01*
X241365000Y-144338967D01*
X241365000Y-144661033D01*
X241427832Y-144976912D01*
X241551082Y-145274463D01*
X241730013Y-145542252D01*
X241957748Y-145769987D01*
X242225537Y-145948918D01*
X242523088Y-146072168D01*
X242838967Y-146135000D01*
X243161033Y-146135000D01*
X243476912Y-146072168D01*
X243774463Y-145948918D01*
X244042252Y-145769987D01*
X244269987Y-145542252D01*
X244448918Y-145274463D01*
X244572168Y-144976912D01*
X244635000Y-144661033D01*
X244635000Y-144338967D01*
X244572168Y-144023088D01*
X244448918Y-143725537D01*
X244269987Y-143457748D01*
X244042252Y-143230013D01*
X243774463Y-143051082D01*
X243476912Y-142927832D01*
X243161033Y-142865000D01*
X242838967Y-142865000D01*
X242523088Y-142927832D01*
X242225537Y-143051082D01*
X241957748Y-143230013D01*
X241730013Y-143457748D01*
X241551082Y-143725537D01*
X241427832Y-144023088D01*
X241365000Y-144338967D01*
X219481535Y-144338967D01*
X219480193Y-144327010D01*
X219441493Y-144208063D01*
X219380331Y-144098952D01*
X219299058Y-144003869D01*
X219200797Y-143926469D01*
X219089324Y-143869726D01*
X218968923Y-143835821D01*
X218844221Y-143826056D01*
X218667750Y-143829000D01*
X218565291Y-143931459D01*
X218557812Y-143855518D01*
X218521502Y-143735820D01*
X218462537Y-143625506D01*
X218383185Y-143528815D01*
X218286494Y-143449463D01*
X218176180Y-143390498D01*
X218056482Y-143354188D01*
X217932000Y-143341928D01*
X215677750Y-143345000D01*
X215519000Y-143503750D01*
X215265000Y-143503750D01*
X215106250Y-143345000D01*
X212852000Y-143341928D01*
X212750000Y-143351974D01*
X212750000Y-136807865D01*
X214852250Y-136805000D01*
X215011000Y-136646250D01*
X215011000Y-135497000D01*
X215265000Y-135497000D01*
X215265000Y-136646250D01*
X215423750Y-136805000D01*
X217678000Y-136808072D01*
X217802482Y-136795812D01*
X217922180Y-136759502D01*
X218032494Y-136700537D01*
X218129185Y-136621185D01*
X218187554Y-136550061D01*
X240519000Y-136550061D01*
X240519000Y-136753939D01*
X240558774Y-136953898D01*
X240636795Y-137142256D01*
X240750063Y-137311774D01*
X240894226Y-137455937D01*
X241063744Y-137569205D01*
X241252102Y-137647226D01*
X241452061Y-137687000D01*
X241655939Y-137687000D01*
X241855898Y-137647226D01*
X242044256Y-137569205D01*
X242213774Y-137455937D01*
X242357937Y-137311774D01*
X242471205Y-137142256D01*
X242549226Y-136953898D01*
X242589000Y-136753939D01*
X242589000Y-136550061D01*
X242570375Y-136456426D01*
X244602000Y-134424802D01*
X244767928Y-134590730D01*
X244767928Y-134816001D01*
X244784992Y-134989255D01*
X244835528Y-135155851D01*
X244917595Y-135309387D01*
X245028038Y-135443962D01*
X245162613Y-135554405D01*
X245316149Y-135636472D01*
X245482745Y-135687008D01*
X245655999Y-135704072D01*
X246306001Y-135704072D01*
X246479255Y-135687008D01*
X246645851Y-135636472D01*
X246799387Y-135554405D01*
X246933962Y-135443962D01*
X247006000Y-135356184D01*
X247078038Y-135443962D01*
X247212613Y-135554405D01*
X247366149Y-135636472D01*
X247532745Y-135687008D01*
X247705999Y-135704072D01*
X248356001Y-135704072D01*
X248529255Y-135687008D01*
X248695851Y-135636472D01*
X248849387Y-135554405D01*
X248983962Y-135443962D01*
X249094405Y-135309387D01*
X249176472Y-135155851D01*
X249227008Y-134989255D01*
X249244072Y-134816001D01*
X249244072Y-134770023D01*
X266905000Y-134770023D01*
X266905000Y-135229977D01*
X266994733Y-135681094D01*
X267170750Y-136106037D01*
X267426287Y-136488476D01*
X267751524Y-136813713D01*
X268133963Y-137069250D01*
X268558906Y-137245267D01*
X269010023Y-137335000D01*
X269469977Y-137335000D01*
X269921094Y-137245267D01*
X270346037Y-137069250D01*
X270728476Y-136813713D01*
X271053713Y-136488476D01*
X271309250Y-136106037D01*
X271485267Y-135681094D01*
X271575000Y-135229977D01*
X271575000Y-134770023D01*
X271485267Y-134318906D01*
X271309250Y-133893963D01*
X271053713Y-133511524D01*
X270728476Y-133186287D01*
X270346037Y-132930750D01*
X269921094Y-132754733D01*
X269469977Y-132665000D01*
X269010023Y-132665000D01*
X268558906Y-132754733D01*
X268133963Y-132930750D01*
X267751524Y-133186287D01*
X267426287Y-133511524D01*
X267170750Y-133893963D01*
X266994733Y-134318906D01*
X266905000Y-134770023D01*
X249244072Y-134770023D01*
X249244072Y-134481729D01*
X249340802Y-134385000D01*
X249402939Y-134385000D01*
X249602898Y-134345226D01*
X249791256Y-134267205D01*
X249960774Y-134153937D01*
X250104937Y-134009774D01*
X250218205Y-133840256D01*
X250296226Y-133651898D01*
X250336000Y-133451939D01*
X250336000Y-133248061D01*
X250296226Y-133048102D01*
X250218205Y-132859744D01*
X250104937Y-132690226D01*
X249960774Y-132546063D01*
X249791256Y-132432795D01*
X249602898Y-132354774D01*
X249402939Y-132315000D01*
X249340802Y-132315000D01*
X249244072Y-132218271D01*
X249244072Y-131883999D01*
X249227008Y-131710745D01*
X249176472Y-131544149D01*
X249094405Y-131390613D01*
X248983962Y-131256038D01*
X248849387Y-131145595D01*
X248695851Y-131063528D01*
X248529255Y-131012992D01*
X248356001Y-130995928D01*
X247705999Y-130995928D01*
X247532745Y-131012992D01*
X247366149Y-131063528D01*
X247212613Y-131145595D01*
X247078038Y-131256038D01*
X247006000Y-131343816D01*
X246933962Y-131256038D01*
X246799387Y-131145595D01*
X246645851Y-131063528D01*
X246479255Y-131012992D01*
X246306001Y-130995928D01*
X245655999Y-130995928D01*
X245482745Y-131012992D01*
X245316149Y-131063528D01*
X245162613Y-131145595D01*
X245028038Y-131256038D01*
X244917595Y-131390613D01*
X244835528Y-131544149D01*
X244784992Y-131710745D01*
X244767928Y-131883999D01*
X244767928Y-132109270D01*
X244562199Y-132315000D01*
X244500061Y-132315000D01*
X244300102Y-132354774D01*
X244111744Y-132432795D01*
X243942226Y-132546063D01*
X243798063Y-132690226D01*
X243684795Y-132859744D01*
X243606774Y-133048102D01*
X243567000Y-133248061D01*
X243567000Y-133310198D01*
X241198026Y-135679173D01*
X241063744Y-135734795D01*
X240894226Y-135848063D01*
X240750063Y-135992226D01*
X240636795Y-136161744D01*
X240558774Y-136350102D01*
X240519000Y-136550061D01*
X218187554Y-136550061D01*
X218208537Y-136524494D01*
X218267502Y-136414180D01*
X218303812Y-136294482D01*
X218311291Y-136218541D01*
X218413750Y-136321000D01*
X218590221Y-136323944D01*
X218714923Y-136314179D01*
X218835324Y-136280274D01*
X218946797Y-136223531D01*
X219045058Y-136146131D01*
X219126331Y-136051048D01*
X219187493Y-135941937D01*
X219226193Y-135822990D01*
X219238000Y-135717750D01*
X219079250Y-135559000D01*
X218255000Y-135559000D01*
X218255000Y-135597750D01*
X218154250Y-135497000D01*
X215265000Y-135497000D01*
X215011000Y-135497000D01*
X214991000Y-135497000D01*
X214991000Y-135243000D01*
X215011000Y-135243000D01*
X215011000Y-134093750D01*
X215265000Y-134093750D01*
X215265000Y-135243000D01*
X217066750Y-135243000D01*
X217176750Y-135353000D01*
X218001000Y-135353000D01*
X218001000Y-135309000D01*
X218255000Y-135309000D01*
X218255000Y-135353000D01*
X219079250Y-135353000D01*
X219238000Y-135194250D01*
X219226193Y-135089010D01*
X219187493Y-134970063D01*
X219126331Y-134860952D01*
X219045058Y-134765869D01*
X218946797Y-134688469D01*
X218835324Y-134631726D01*
X218714923Y-134597821D01*
X218590221Y-134588056D01*
X218413750Y-134591000D01*
X218315359Y-134689391D01*
X218316072Y-134570000D01*
X218303812Y-134445518D01*
X218267502Y-134325820D01*
X218208537Y-134215506D01*
X218129185Y-134118815D01*
X218032494Y-134039463D01*
X217922180Y-133980498D01*
X217802482Y-133944188D01*
X217678000Y-133931928D01*
X215423750Y-133935000D01*
X215265000Y-134093750D01*
X215011000Y-134093750D01*
X214852250Y-133935000D01*
X212750000Y-133932135D01*
X212750000Y-131267865D01*
X214852250Y-131265000D01*
X215011000Y-131106250D01*
X215011000Y-129957000D01*
X215265000Y-129957000D01*
X215265000Y-131106250D01*
X215423750Y-131265000D01*
X217678000Y-131268072D01*
X217802482Y-131255812D01*
X217922180Y-131219502D01*
X218032494Y-131160537D01*
X218129185Y-131081185D01*
X218208537Y-130984494D01*
X218267502Y-130874180D01*
X218303812Y-130754482D01*
X218316072Y-130630000D01*
X218315359Y-130510609D01*
X218413750Y-130609000D01*
X218590221Y-130611944D01*
X218714923Y-130602179D01*
X218835324Y-130568274D01*
X218946797Y-130511531D01*
X219045058Y-130434131D01*
X219126331Y-130339048D01*
X219187493Y-130229937D01*
X219226193Y-130110990D01*
X219238000Y-130005750D01*
X219079250Y-129847000D01*
X218255000Y-129847000D01*
X218255000Y-129891000D01*
X218001000Y-129891000D01*
X218001000Y-129847000D01*
X217176750Y-129847000D01*
X217066750Y-129957000D01*
X215265000Y-129957000D01*
X215011000Y-129957000D01*
X214991000Y-129957000D01*
X214991000Y-129703000D01*
X215011000Y-129703000D01*
X215011000Y-128553750D01*
X215265000Y-128553750D01*
X215265000Y-129703000D01*
X218154250Y-129703000D01*
X218255000Y-129602250D01*
X218255000Y-129641000D01*
X219079250Y-129641000D01*
X219238000Y-129482250D01*
X219226193Y-129377010D01*
X219187493Y-129258063D01*
X219126331Y-129148952D01*
X219045058Y-129053869D01*
X218946797Y-128976469D01*
X218835324Y-128919726D01*
X218714923Y-128885821D01*
X218590221Y-128876056D01*
X218413750Y-128879000D01*
X218311291Y-128981459D01*
X218303812Y-128905518D01*
X218267502Y-128785820D01*
X218208834Y-128676061D01*
X240679768Y-128676061D01*
X240679768Y-128879939D01*
X240719542Y-129079898D01*
X240797563Y-129268256D01*
X240910831Y-129437774D01*
X241054994Y-129581937D01*
X241224512Y-129695205D01*
X241412870Y-129773226D01*
X241612829Y-129813000D01*
X241674967Y-129813000D01*
X242043000Y-130181034D01*
X242043000Y-130243171D01*
X242082774Y-130443130D01*
X242160795Y-130631488D01*
X242274063Y-130801006D01*
X242418226Y-130945169D01*
X242587744Y-131058437D01*
X242776102Y-131136458D01*
X242976061Y-131176232D01*
X243179939Y-131176232D01*
X243379898Y-131136458D01*
X243568256Y-131058437D01*
X243737774Y-130945169D01*
X243881937Y-130801006D01*
X243995205Y-130631488D01*
X244073226Y-130443130D01*
X244113000Y-130243171D01*
X244113000Y-130039293D01*
X244073226Y-129839334D01*
X243995205Y-129650976D01*
X243881937Y-129481458D01*
X243737774Y-129337295D01*
X243568256Y-129224027D01*
X243379898Y-129146006D01*
X243179939Y-129106232D01*
X243117802Y-129106232D01*
X242749768Y-128738199D01*
X242749768Y-128676061D01*
X242741407Y-128634023D01*
X267785582Y-128634023D01*
X267965648Y-128970060D01*
X268374474Y-129180820D01*
X268816562Y-129307772D01*
X269274922Y-129346037D01*
X269731940Y-129294146D01*
X270170053Y-129154092D01*
X270514352Y-128970060D01*
X270694418Y-128634023D01*
X269240000Y-127179605D01*
X267785582Y-128634023D01*
X242741407Y-128634023D01*
X242709994Y-128476102D01*
X242631973Y-128287744D01*
X242518705Y-128118226D01*
X242374542Y-127974063D01*
X242205024Y-127860795D01*
X242016666Y-127782774D01*
X241816707Y-127743000D01*
X241612829Y-127743000D01*
X241412870Y-127782774D01*
X241224512Y-127860795D01*
X241054994Y-127974063D01*
X240910831Y-128118226D01*
X240797563Y-128287744D01*
X240719542Y-128476102D01*
X240679768Y-128676061D01*
X218208834Y-128676061D01*
X218208537Y-128675506D01*
X218129185Y-128578815D01*
X218032494Y-128499463D01*
X217922180Y-128440498D01*
X217802482Y-128404188D01*
X217678000Y-128391928D01*
X215423750Y-128395000D01*
X215265000Y-128553750D01*
X215011000Y-128553750D01*
X214852250Y-128395000D01*
X212750000Y-128392135D01*
X212750000Y-127034922D01*
X266893963Y-127034922D01*
X266945854Y-127491940D01*
X267085908Y-127930053D01*
X267269940Y-128274352D01*
X267605977Y-128454418D01*
X269060395Y-127000000D01*
X269419605Y-127000000D01*
X270874023Y-128454418D01*
X271210060Y-128274352D01*
X271420820Y-127865526D01*
X271547772Y-127423438D01*
X271586037Y-126965078D01*
X271534146Y-126508060D01*
X271394092Y-126069947D01*
X271210060Y-125725648D01*
X270874023Y-125545582D01*
X269419605Y-127000000D01*
X269060395Y-127000000D01*
X267605977Y-125545582D01*
X267269940Y-125725648D01*
X267059180Y-126134474D01*
X266932228Y-126576562D01*
X266893963Y-127034922D01*
X212750000Y-127034922D01*
X212750000Y-125365977D01*
X267785582Y-125365977D01*
X269240000Y-126820395D01*
X270694418Y-125365977D01*
X270514352Y-125029940D01*
X270105526Y-124819180D01*
X269663438Y-124692228D01*
X269205078Y-124653963D01*
X268748060Y-124705854D01*
X268309947Y-124845908D01*
X267965648Y-125029940D01*
X267785582Y-125365977D01*
X212750000Y-125365977D01*
X212750000Y-120488967D01*
X241365000Y-120488967D01*
X241365000Y-120811033D01*
X241427832Y-121126912D01*
X241551082Y-121424463D01*
X241730013Y-121692252D01*
X241957748Y-121919987D01*
X242225537Y-122098918D01*
X242523088Y-122222168D01*
X242838967Y-122285000D01*
X243161033Y-122285000D01*
X243476912Y-122222168D01*
X243774463Y-122098918D01*
X244042252Y-121919987D01*
X244269987Y-121692252D01*
X244448918Y-121424463D01*
X244572168Y-121126912D01*
X244635000Y-120811033D01*
X244635000Y-120488967D01*
X244572168Y-120173088D01*
X244448918Y-119875537D01*
X244269987Y-119607748D01*
X244042252Y-119380013D01*
X243774463Y-119201082D01*
X243476912Y-119077832D01*
X243161033Y-119015000D01*
X242838967Y-119015000D01*
X242523088Y-119077832D01*
X242225537Y-119201082D01*
X241957748Y-119380013D01*
X241730013Y-119607748D01*
X241551082Y-119875537D01*
X241427832Y-120173088D01*
X241365000Y-120488967D01*
X212750000Y-120488967D01*
X212750000Y-113583750D01*
X268696000Y-113583750D01*
X268707807Y-113688990D01*
X268746507Y-113807937D01*
X268807669Y-113917048D01*
X268888942Y-114012131D01*
X268987203Y-114089531D01*
X269098676Y-114146274D01*
X269219077Y-114180179D01*
X269343779Y-114189944D01*
X269520250Y-114187000D01*
X269622709Y-114084541D01*
X269630188Y-114160482D01*
X269666498Y-114280180D01*
X269725463Y-114390494D01*
X269804815Y-114487185D01*
X269901506Y-114566537D01*
X270011820Y-114625502D01*
X270131518Y-114661812D01*
X270256000Y-114674072D01*
X272510250Y-114671000D01*
X272669000Y-114512250D01*
X272669000Y-113363000D01*
X269779750Y-113363000D01*
X269679000Y-113463750D01*
X269679000Y-113425000D01*
X268854750Y-113425000D01*
X268696000Y-113583750D01*
X212750000Y-113583750D01*
X212750000Y-113060250D01*
X268696000Y-113060250D01*
X268854750Y-113219000D01*
X269679000Y-113219000D01*
X269679000Y-113175000D01*
X269933000Y-113175000D01*
X269933000Y-113219000D01*
X270757250Y-113219000D01*
X270867250Y-113109000D01*
X272669000Y-113109000D01*
X272669000Y-111959750D01*
X272510250Y-111801000D01*
X270256000Y-111797928D01*
X270131518Y-111810188D01*
X270011820Y-111846498D01*
X269901506Y-111905463D01*
X269804815Y-111984815D01*
X269725463Y-112081506D01*
X269666498Y-112191820D01*
X269630188Y-112311518D01*
X269617928Y-112436000D01*
X269618641Y-112555391D01*
X269520250Y-112457000D01*
X269343779Y-112454056D01*
X269219077Y-112463821D01*
X269098676Y-112497726D01*
X268987203Y-112554469D01*
X268888942Y-112631869D01*
X268807669Y-112726952D01*
X268746507Y-112836063D01*
X268707807Y-112955010D01*
X268696000Y-113060250D01*
X212750000Y-113060250D01*
X212750000Y-103577122D01*
X222885000Y-103577122D01*
X222885000Y-104702878D01*
X223104625Y-105807004D01*
X223535433Y-106847067D01*
X224160870Y-107783100D01*
X224956900Y-108579130D01*
X225892933Y-109204567D01*
X226932996Y-109635375D01*
X228037122Y-109855000D01*
X229162878Y-109855000D01*
X230267004Y-109635375D01*
X231307067Y-109204567D01*
X232243100Y-108579130D01*
X232645034Y-108177196D01*
X237442409Y-108177196D01*
X238028124Y-108859416D01*
X239011704Y-109407045D01*
X240083223Y-109752265D01*
X241201501Y-109881808D01*
X242323565Y-109790697D01*
X243406294Y-109482433D01*
X244408079Y-108968863D01*
X244571876Y-108859416D01*
X245157591Y-108177196D01*
X241300000Y-104319605D01*
X237442409Y-108177196D01*
X232645034Y-108177196D01*
X233039130Y-107783100D01*
X233664567Y-106847067D01*
X234095375Y-105807004D01*
X234315000Y-104702878D01*
X234315000Y-104041501D01*
X235558192Y-104041501D01*
X235649303Y-105163565D01*
X235957567Y-106246294D01*
X236471137Y-107248079D01*
X236580584Y-107411876D01*
X237262804Y-107997591D01*
X241120395Y-104140000D01*
X241479605Y-104140000D01*
X245337196Y-107997591D01*
X246019416Y-107411876D01*
X246567045Y-106428296D01*
X246912265Y-105356777D01*
X247041808Y-104238499D01*
X246977793Y-103450122D01*
X248285000Y-103450122D01*
X248285000Y-104575878D01*
X248504625Y-105680004D01*
X248935433Y-106720067D01*
X249560870Y-107656100D01*
X250356900Y-108452130D01*
X251292933Y-109077567D01*
X252332996Y-109508375D01*
X253437122Y-109728000D01*
X254562878Y-109728000D01*
X255667004Y-109508375D01*
X256707067Y-109077567D01*
X257643100Y-108452130D01*
X258223480Y-107871750D01*
X268696000Y-107871750D01*
X268707807Y-107976990D01*
X268746507Y-108095937D01*
X268807669Y-108205048D01*
X268888942Y-108300131D01*
X268987203Y-108377531D01*
X269098676Y-108434274D01*
X269219077Y-108468179D01*
X269343779Y-108477944D01*
X269520250Y-108475000D01*
X269618641Y-108376609D01*
X269617928Y-108496000D01*
X269630188Y-108620482D01*
X269666498Y-108740180D01*
X269725463Y-108850494D01*
X269804815Y-108947185D01*
X269901506Y-109026537D01*
X270011820Y-109085502D01*
X270131518Y-109121812D01*
X270256000Y-109134072D01*
X272510250Y-109131000D01*
X272669000Y-108972250D01*
X272669000Y-107823000D01*
X270867250Y-107823000D01*
X270757250Y-107713000D01*
X269933000Y-107713000D01*
X269933000Y-107757000D01*
X269679000Y-107757000D01*
X269679000Y-107713000D01*
X268854750Y-107713000D01*
X268696000Y-107871750D01*
X258223480Y-107871750D01*
X258439130Y-107656100D01*
X258644828Y-107348250D01*
X268696000Y-107348250D01*
X268854750Y-107507000D01*
X269679000Y-107507000D01*
X269679000Y-107468250D01*
X269779750Y-107569000D01*
X272669000Y-107569000D01*
X272669000Y-106419750D01*
X272510250Y-106261000D01*
X270256000Y-106257928D01*
X270131518Y-106270188D01*
X270011820Y-106306498D01*
X269901506Y-106365463D01*
X269804815Y-106444815D01*
X269725463Y-106541506D01*
X269666498Y-106651820D01*
X269630188Y-106771518D01*
X269622709Y-106847459D01*
X269520250Y-106745000D01*
X269343779Y-106742056D01*
X269219077Y-106751821D01*
X269098676Y-106785726D01*
X268987203Y-106842469D01*
X268888942Y-106919869D01*
X268807669Y-107014952D01*
X268746507Y-107124063D01*
X268707807Y-107243010D01*
X268696000Y-107348250D01*
X258644828Y-107348250D01*
X259064567Y-106720067D01*
X259495375Y-105680004D01*
X259715000Y-104575878D01*
X259715000Y-103450122D01*
X259495375Y-102345996D01*
X259064567Y-101305933D01*
X258439130Y-100369900D01*
X258139705Y-100070475D01*
X269145000Y-100070475D01*
X269145000Y-100589525D01*
X269246261Y-101098601D01*
X269444893Y-101578141D01*
X269733262Y-102009715D01*
X270100285Y-102376738D01*
X270531859Y-102665107D01*
X271011399Y-102863739D01*
X271520475Y-102965000D01*
X272039525Y-102965000D01*
X272548601Y-102863739D01*
X273028141Y-102665107D01*
X273459715Y-102376738D01*
X273826738Y-102009715D01*
X274115107Y-101578141D01*
X274313739Y-101098601D01*
X274415000Y-100589525D01*
X274415000Y-100070475D01*
X274313739Y-99561399D01*
X274115107Y-99081859D01*
X273826738Y-98650285D01*
X273459715Y-98283262D01*
X273028141Y-97994893D01*
X272548601Y-97796261D01*
X272039525Y-97695000D01*
X271520475Y-97695000D01*
X271011399Y-97796261D01*
X270531859Y-97994893D01*
X270100285Y-98283262D01*
X269733262Y-98650285D01*
X269444893Y-99081859D01*
X269246261Y-99561399D01*
X269145000Y-100070475D01*
X258139705Y-100070475D01*
X257643100Y-99573870D01*
X256707067Y-98948433D01*
X255667004Y-98517625D01*
X254562878Y-98298000D01*
X253437122Y-98298000D01*
X252332996Y-98517625D01*
X251292933Y-98948433D01*
X250356900Y-99573870D01*
X249560870Y-100369900D01*
X248935433Y-101305933D01*
X248504625Y-102345996D01*
X248285000Y-103450122D01*
X246977793Y-103450122D01*
X246950697Y-103116435D01*
X246642433Y-102033706D01*
X246128863Y-101031921D01*
X246019416Y-100868124D01*
X245337196Y-100282409D01*
X241479605Y-104140000D01*
X241120395Y-104140000D01*
X237262804Y-100282409D01*
X236580584Y-100868124D01*
X236032955Y-101851704D01*
X235687735Y-102923223D01*
X235558192Y-104041501D01*
X234315000Y-104041501D01*
X234315000Y-103577122D01*
X234095375Y-102472996D01*
X233664567Y-101432933D01*
X233039130Y-100496900D01*
X232645034Y-100102804D01*
X237442409Y-100102804D01*
X241300000Y-103960395D01*
X245157591Y-100102804D01*
X244571876Y-99420584D01*
X243588296Y-98872955D01*
X242516777Y-98527735D01*
X241398499Y-98398192D01*
X240276435Y-98489303D01*
X239193706Y-98797567D01*
X238191921Y-99311137D01*
X238028124Y-99420584D01*
X237442409Y-100102804D01*
X232645034Y-100102804D01*
X232243100Y-99700870D01*
X231307067Y-99075433D01*
X230267004Y-98644625D01*
X229162878Y-98425000D01*
X228037122Y-98425000D01*
X226932996Y-98644625D01*
X225892933Y-99075433D01*
X224956900Y-99700870D01*
X224160870Y-100496900D01*
X223535433Y-101432933D01*
X223104625Y-102472996D01*
X222885000Y-103577122D01*
X212750000Y-103577122D01*
X212750000Y-100070475D01*
X213265000Y-100070475D01*
X213265000Y-100589525D01*
X213366261Y-101098601D01*
X213564893Y-101578141D01*
X213853262Y-102009715D01*
X214220285Y-102376738D01*
X214651859Y-102665107D01*
X215131399Y-102863739D01*
X215640475Y-102965000D01*
X216159525Y-102965000D01*
X216668601Y-102863739D01*
X217148141Y-102665107D01*
X217579715Y-102376738D01*
X217946738Y-102009715D01*
X218235107Y-101578141D01*
X218433739Y-101098601D01*
X218535000Y-100589525D01*
X218535000Y-100070475D01*
X218433739Y-99561399D01*
X218235107Y-99081859D01*
X217946738Y-98650285D01*
X217579715Y-98283262D01*
X217148141Y-97994893D01*
X216668601Y-97796261D01*
X216159525Y-97695000D01*
X215640475Y-97695000D01*
X215131399Y-97796261D01*
X214651859Y-97994893D01*
X214220285Y-98283262D01*
X213853262Y-98650285D01*
X213564893Y-99081859D01*
X213366261Y-99561399D01*
X213265000Y-100070475D01*
X212750000Y-100070475D01*
X212750000Y-97180000D01*
X274930000Y-97180000D01*
X274930000Y-106258481D01*
%TD*%
M02*
