%TF.GenerationSoftware,KiCad,Pcbnew,(5.1.6-0-10_14)*%
%TF.CreationDate,2020-10-05T14:42:17-07:00*%
%TF.ProjectId,single_ended_differential_converter,73696e67-6c65-45f6-956e-6465645f6469,rev?*%
%TF.SameCoordinates,Original*%
%TF.FileFunction,Paste,Bot*%
%TF.FilePolarity,Positive*%
%FSLAX46Y46*%
G04 Gerber Fmt 4.6, Leading zero omitted, Abs format (unit mm)*
G04 Created by KiCad (PCBNEW (5.1.6-0-10_14)) date 2020-10-05 14:42:17*
%MOMM*%
%LPD*%
G01*
G04 APERTURE LIST*
%ADD10R,5.080000X1.600000*%
G04 APERTURE END LIST*
%TO.C,RF2*%
G36*
G01*
X234491000Y-137217999D02*
X234491000Y-138118001D01*
G75*
G02*
X234241001Y-138368000I-249999J0D01*
G01*
X233590999Y-138368000D01*
G75*
G02*
X233341000Y-138118001I0J249999D01*
G01*
X233341000Y-137217999D01*
G75*
G02*
X233590999Y-136968000I249999J0D01*
G01*
X234241001Y-136968000D01*
G75*
G02*
X234491000Y-137217999I0J-249999D01*
G01*
G37*
G36*
G01*
X236541000Y-137217999D02*
X236541000Y-138118001D01*
G75*
G02*
X236291001Y-138368000I-249999J0D01*
G01*
X235640999Y-138368000D01*
G75*
G02*
X235391000Y-138118001I0J249999D01*
G01*
X235391000Y-137217999D01*
G75*
G02*
X235640999Y-136968000I249999J0D01*
G01*
X236291001Y-136968000D01*
G75*
G02*
X236541000Y-137217999I0J-249999D01*
G01*
G37*
%TD*%
%TO.C,R8*%
G36*
G01*
X235391000Y-133800001D02*
X235391000Y-132899999D01*
G75*
G02*
X235640999Y-132650000I249999J0D01*
G01*
X236291001Y-132650000D01*
G75*
G02*
X236541000Y-132899999I0J-249999D01*
G01*
X236541000Y-133800001D01*
G75*
G02*
X236291001Y-134050000I-249999J0D01*
G01*
X235640999Y-134050000D01*
G75*
G02*
X235391000Y-133800001I0J249999D01*
G01*
G37*
G36*
G01*
X233341000Y-133800001D02*
X233341000Y-132899999D01*
G75*
G02*
X233590999Y-132650000I249999J0D01*
G01*
X234241001Y-132650000D01*
G75*
G02*
X234491000Y-132899999I0J-249999D01*
G01*
X234491000Y-133800001D01*
G75*
G02*
X234241001Y-134050000I-249999J0D01*
G01*
X233590999Y-134050000D01*
G75*
G02*
X233341000Y-133800001I0J249999D01*
G01*
G37*
%TD*%
%TO.C,CF2*%
G36*
G01*
X234509000Y-134931999D02*
X234509000Y-135832001D01*
G75*
G02*
X234259001Y-136082000I-249999J0D01*
G01*
X233608999Y-136082000D01*
G75*
G02*
X233359000Y-135832001I0J249999D01*
G01*
X233359000Y-134931999D01*
G75*
G02*
X233608999Y-134682000I249999J0D01*
G01*
X234259001Y-134682000D01*
G75*
G02*
X234509000Y-134931999I0J-249999D01*
G01*
G37*
G36*
G01*
X236559000Y-134931999D02*
X236559000Y-135832001D01*
G75*
G02*
X236309001Y-136082000I-249999J0D01*
G01*
X235658999Y-136082000D01*
G75*
G02*
X235409000Y-135832001I0J249999D01*
G01*
X235409000Y-134931999D01*
G75*
G02*
X235658999Y-134682000I249999J0D01*
G01*
X236309001Y-134682000D01*
G75*
G02*
X236559000Y-134931999I0J-249999D01*
G01*
G37*
%TD*%
%TO.C,RF1*%
G36*
G01*
X234491000Y-130613999D02*
X234491000Y-131514001D01*
G75*
G02*
X234241001Y-131764000I-249999J0D01*
G01*
X233590999Y-131764000D01*
G75*
G02*
X233341000Y-131514001I0J249999D01*
G01*
X233341000Y-130613999D01*
G75*
G02*
X233590999Y-130364000I249999J0D01*
G01*
X234241001Y-130364000D01*
G75*
G02*
X234491000Y-130613999I0J-249999D01*
G01*
G37*
G36*
G01*
X236541000Y-130613999D02*
X236541000Y-131514001D01*
G75*
G02*
X236291001Y-131764000I-249999J0D01*
G01*
X235640999Y-131764000D01*
G75*
G02*
X235391000Y-131514001I0J249999D01*
G01*
X235391000Y-130613999D01*
G75*
G02*
X235640999Y-130364000I249999J0D01*
G01*
X236291001Y-130364000D01*
G75*
G02*
X236541000Y-130613999I0J-249999D01*
G01*
G37*
%TD*%
D10*
%TO.C,JPOS1*%
X260350000Y-151130000D03*
X260350000Y-156670000D03*
%TD*%
%TO.C,JNEG1*%
X260350000Y-111808000D03*
X260350000Y-117348000D03*
%TD*%
%TO.C,J2*%
X215392000Y-127230000D03*
X215392000Y-121690000D03*
%TD*%
%TO.C,J1*%
X215392000Y-145010000D03*
X215392000Y-139470000D03*
%TD*%
%TO.C,CF1*%
G36*
G01*
X234491000Y-128581999D02*
X234491000Y-129482001D01*
G75*
G02*
X234241001Y-129732000I-249999J0D01*
G01*
X233590999Y-129732000D01*
G75*
G02*
X233341000Y-129482001I0J249999D01*
G01*
X233341000Y-128581999D01*
G75*
G02*
X233590999Y-128332000I249999J0D01*
G01*
X234241001Y-128332000D01*
G75*
G02*
X234491000Y-128581999I0J-249999D01*
G01*
G37*
G36*
G01*
X236541000Y-128581999D02*
X236541000Y-129482001D01*
G75*
G02*
X236291001Y-129732000I-249999J0D01*
G01*
X235640999Y-129732000D01*
G75*
G02*
X235391000Y-129482001I0J249999D01*
G01*
X235391000Y-128581999D01*
G75*
G02*
X235640999Y-128332000I249999J0D01*
G01*
X236291001Y-128332000D01*
G75*
G02*
X236541000Y-128581999I0J-249999D01*
G01*
G37*
%TD*%
M02*
